<?xml version="1.0" encoding="utf-8"?>
<!-- Generator: Adobe Illustrator 25.4.1, SVG Export Plug-In . SVG Version: 6.00 Build 0)  -->
<svg version="1.1" id="Layer_1" xmlns="http://www.w3.org/2000/svg" xmlns:xlink="http://www.w3.org/1999/xlink" x="0px" y="0px"
	 viewBox="0 0 1608.2 258" style="enable-background:new 0 0 1608.2 258;" xml:space="preserve">
<style type="text/css">
	.st0{fill:url(#SVGID_1_);}
	.st1{fill:url(#SVGID_00000062878712361960060270000001502340864552777140_);}
	.st2{fill:url(#SVGID_00000055679568039950169810000016963621566277293969_);}
</style>
<g>
	<g id="Layer_2_00000017502934972260733130000002905564249731195018_">
		<g id="Layer_1-2_00000017491220294781955290000015903841391255622298_">
			
				<linearGradient id="SVGID_1_" gradientUnits="userSpaceOnUse" x1="108.4104" y1="738.416" x2="301.8208" y2="626.7504" gradientTransform="matrix(1 0 0 -1 0 796.2725)">
				<stop  offset="0" style="stop-color:#FF00A8"/>
				<stop  offset="0.1274" style="stop-color:#F300AA"/>
				<stop  offset="0.3548" style="stop-color:#D500B0"/>
				<stop  offset="0.656" style="stop-color:#A300BA"/>
				<stop  offset="1" style="stop-color:#6200C6"/>
			</linearGradient>
			<path class="st0" d="M223.7,0c2.6,0.5,5.1,1.6,7.2,3.2c2.4,1.9,4.2,4.4,5.3,7.3c6.8,17,13.6,34.1,20.5,51.1
				c7.5,18.9,15.1,37.8,22.8,56.8c4,9.9,7.9,19.9,12,29.8c1.7,4.1,1.7,8.7,0,12.8l-34.7,86.3c-2.3,5.7-6.5,9.3-12.6,10.2
				c-7.6,1.1-14.4-2.6-17.2-9.3c-6.5-16-12.9-32-19.3-48l-32.6-81.4c-9.7-24.2-19.3-48.3-29-72.5c-3.2-8-6.3-16.1-9.7-24
				c-3.5-8.2,0.3-17.6,8.5-21.1c0.9-0.4,1.8-0.7,2.8-0.9c0.3-0.1,0.5-0.2,0.8-0.2H223.7z"/>
			
				<linearGradient id="SVGID_00000085965188199473982720000014593684533356871583_" gradientUnits="userSpaceOnUse" x1="-26.6822" y1="738.4614" x2="166.7121" y2="626.8051" gradientTransform="matrix(1 0 0 -1 0 796.2725)">
				<stop  offset="0" style="stop-color:#FF00A8"/>
				<stop  offset="0.1274" style="stop-color:#F300AA"/>
				<stop  offset="0.3548" style="stop-color:#D500B0"/>
				<stop  offset="0.656" style="stop-color:#A300BA"/>
				<stop  offset="1" style="stop-color:#6200C6"/>
			</linearGradient>
			<path style="fill:url(#SVGID_00000085965188199473982720000014593684533356871583_);" d="M88.5,0c0.9,0.2,1.7,0.4,2.5,0.7
				c4.4,1.4,7.9,4.7,9.6,8.9c7.4,18.4,14.9,36.9,22.2,55.4c7.5,18.6,14.9,37.3,22.4,55.9c3.7,9.1,7.3,18.3,11,27.4
				c1.7,3.9,1.7,8.4,0,12.4c-4.1,10.3-8.2,20.5-12.4,30.8c-7.5,18.8-15.1,37.5-22.6,56.3c-2.4,6-8.2,9.9-14.7,9.9
				c-6.8,0.1-13-4.1-15.4-10.5c-7-17.7-14.1-35.3-21.2-52.9c-9.5-23.9-19-47.8-28.5-71.6C31.8,98.3,22.1,74,12.4,49.8
				C8.7,40.6,5,31.3,1.3,22.2c-3.4-8,0.1-17.2,8-20.8c1.4-0.6,2.8-1,4.2-1.4H88.5z"/>
			
				<linearGradient id="SVGID_00000142163383906991454910000000049543941978950317_" gradientUnits="userSpaceOnUse" x1="240.9977" y1="738.503" x2="434.4682" y2="626.8027" gradientTransform="matrix(1 0 0 -1 0 796.2725)">
				<stop  offset="0" style="stop-color:#FF00A8"/>
				<stop  offset="0.1274" style="stop-color:#F300AA"/>
				<stop  offset="0.3548" style="stop-color:#D500B0"/>
				<stop  offset="0.656" style="stop-color:#A300BA"/>
				<stop  offset="1" style="stop-color:#6200C6"/>
			</linearGradient>
			<path style="fill:url(#SVGID_00000142163383906991454910000000049543941978950317_);" d="M425.2,157c-2.1,6.9-5.1,13.5-7.8,20.2
				c-7.6,19.1-15.2,38.1-22.9,57.2c-1.8,4.4-3.6,8.7-5.3,13.1c-3.3,8.3-12.7,12.3-21,9c-4.1-1.7-7.4-4.9-9-9.1l-33.3-83.2
				l-28.8-71.9c-9.4-23.5-18.8-46.9-28.2-70.4c-3.4-8.1,0.5-17.4,8.6-20.8c0.9-0.4,1.8-0.6,2.7-0.8c0.3-0.1,0.6-0.2,0.9-0.3h75.2
				c0.2,0.1,0.5,0.2,0.7,0.2c5.4,1.1,9.8,4.9,11.7,10c4.4,11,8.8,21.9,13.2,32.9c11.5,28.7,23,57.3,34.5,86c3,7.6,6.4,15,8.8,22.7
				L425.2,157z"/>
		</g>
	</g>
	<g>
		<path d="M1607.9,162.7c-0.6,6-2.3,10.9-4.1,16.1c-13.7,38-49.1,54.8-85.1,44.8c-9.2-2.6-12.3-5-22.2-16c0,5.5,0,10.6,0,16
			c-14,0-27.7,0-41.6,0c0-65.4,0-130.6,0-196.2c13.7,0,27.4,0,41.4,0c0,23.3,0,46.6,0,70.9c1.1-1.4,1.7-2,2.1-2.7
			c6.6-9.6,16.5-13.8,27.5-15.5c40.3-6.6,75.7,19.7,81.4,60.3C1607.9,144.3,1608.7,155.3,1607.9,162.7z M1566.2,153
			c0.1-19.7-15.7-35.5-35.6-35.6c-20.2,0-36.7,15.7-36.8,35c-0.1,20.3,15.7,35.8,36.6,35.8C1550.6,188.2,1566.1,172.9,1566.2,153z"
			/>
		<path d="M1033.9,224.3c0-5.4,0-10.6,0-16.7c-12.3,17.3-29.5,20-47.8,18.8c-38.7-2.6-61.5-35.3-63.5-66.5
			c-1.6-24.3,4.8-45.9,23.1-62.7c20.5-18.9,44.5-22.4,70.5-13.6c7.2,2.4,13.1,7.1,17.6,13.8c0-23.2,0-46.4,0-69.9
			c14.1,0,27.7,0,41.6,0c0,65.5,0,131.1,0,196.8C1061.6,224.3,1048,224.3,1033.9,224.3z M999.9,117.4c-20,0-35.8,15.6-35.8,35.4
			c0,20,15.5,35.4,35.7,35.4c20.4,0,37-16,36.9-35.5C1036.4,133.5,1019.8,117.5,999.9,117.4z"/>
		<path d="M653.5,27.5c0,23.2,0,46.2,0,69.1c0.4,0,0.8,0.2,0.8,0.1c11.1-16.1,27.5-19.5,45.4-17.6c26.2,2.8,42.1,20,44.6,46.9
			c0.4,4.9,0.7,9.9,0.7,14.8c0.1,26.2,0,52.3,0,78.5c0,1.6,0,3.1,0,4.9c-14,0-27.6,0-41.8,0c0-1.6,0-3.1,0-4.6c0-25.5,0-51,0-76.5
			c0-3-0.3-6.2-0.9-9.1c-2.3-10.2-9.4-16.7-19.3-17.6c-12.1-1.2-22.2,4-26.5,14.4c-1.7,4.2-2.7,9-2.8,13.6
			c-0.3,25-0.1,49.9-0.1,74.9c0,1.5,0,2.9,0,4.6c-14,0-27.7,0-41.6,0c0-65.5,0-130.7,0-196.3C625.7,27.5,639.4,27.5,653.5,27.5z"/>
		<path d="M1091.8,81.8c13.4,0,26.3-0.1,39.1,0.1c1.1,0,2.6,1.9,3.1,3.2c7.6,20.2,15,40.5,22.5,60.7c0.4,1,0.7,1.9,1.5,3.7
			c12.7-22.7,25-44.8,37.6-67.4c12.6,22.5,24.9,44.6,37.5,67.3c0.9-2.1,1.5-3.5,2.1-5.1c7.3-19.7,14.7-39.5,21.9-59.2
			c0.9-2.5,2-3.5,4.8-3.4c12.3,0.2,24.6,0.1,37.5,0.1c-19.4,50.3-38.6,100.3-58.2,150.9c-15.4-27.5-30.4-54.4-45.8-81.9
			c-15.3,27.4-30.3,54.3-45.8,81.9C1130.3,182,1111.1,132.1,1091.8,81.8z"/>
		<path d="M1438.2,164.3c-34.5,0-68.6,0-103,0c0.8,11.3,6.6,18.7,16.3,23.2c9.9,4.7,20.5,4.6,31.1,3.7c13.7-1.1,26.5-4.7,38.1-12.4
			c0.3-0.2,0.7-0.1,1.5-0.3c0,11.7,0.1,23.3-0.1,34.9c0,1-1.5,2.4-2.6,3c-12.5,7.4-26.3,10.2-40.6,11.1c-15.7,0.9-31-0.3-45.5-7
			c-23.3-10.8-36.2-29.3-39.4-54.5c-2.2-17-0.9-33.7,7.1-49.2c11-21.3,28.9-33.5,52.4-37.3c15.8-2.6,31.7-1.8,46.3,5.5
			c25.9,13.1,38.3,34.9,39.5,63.5c0.1,3.2,0,6.4-0.2,9.6C1438.9,160,1438.5,161.9,1438.2,164.3z M1335.7,136.4c20.2,0,40.5,0,60.7,0
			c0.6-12.5-13.1-23.1-29.3-22.9C1350.1,113.6,1335,124.5,1335.7,136.4z"/>
		<path d="M593.5,183.1c0,13.9,0,27,0,40.5c-14.5,0.1-28.9,1.7-42.1-5.6c-19.7-10.9-29.2-27.9-29.4-50.1c-0.1-14.4,0-28.8,0-43.3
			c0-1.5,0-2.9,0-4.8c-6.2,0-12.1,0-18.3,0c0-12.8,0-25.1,0-38c5.9,0,11.8,0,18.2,0c0-18.3,0-36.1,0-54.3c13.8,0,27.2,0,40.9,0
			c0,17.9,0,35.7,0,54.1c10.5,0,20.7,0,31.1,0c0,13,0,25.5,0,38.4c-10.2,0-20.3,0-30.7,0c-0.1,1.6-0.2,2.7-0.2,3.9
			c0,14.8,0,29.6,0,44.5c0,9.8,5,14.8,14.8,14.8C582.8,183.1,588,183.1,593.5,183.1z"/>
		<path d="M865.6,223.8c-13.9,0-27.5,0-41.4,0c0-47.3,0-94.4,0-141.9c13.7,0,27.2,0,41.3,0c0,5.7,0,11.5,0,18.1
			c12.4-20,30.7-23,51.4-21.1c0,13.4,0,26.3,0,39.5c-5-0.3-9.9-0.6-14.8-0.7c-7.2-0.1-14.1,1.3-20.4,5
			c-11.3,6.6-15.7,17.2-15.9,29.6c-0.3,22.3-0.2,44.6-0.2,66.8C865.6,220.6,865.6,222.1,865.6,223.8z"/>
		<path d="M764.9,81.9c13.8,0,27.3,0,41.1,0c0,47.4,0,94.6,0,142.2c-13.5,0-27.2,0-41.1,0C764.9,176.7,764.9,129.3,764.9,81.9z"/>
		<path d="M785.4,69.8c-13.5,0-23.8-10.4-23.8-23.9c0-13.5,10.5-24,23.8-24c13.2,0,23.8,10.7,23.8,24.1
			C809.3,59.2,798.7,69.8,785.4,69.8z"/>
	</g>
</g>
</svg>
