<svg width="32" height="63" viewBox="0 0 32 63" fill="none" xmlns="http://www.w3.org/2000/svg">
<path d="M31.0427 25.8159L24.0922 21.7983L22.261 22.8571L28.7531 26.6099L15.7581 34.122L2.74792 26.6099L9.24869 22.8571L7.41746 21.7983L0.458346 25.8159C0.174301 25.9794 0 26.2828 0 26.6099V53.5146C0 53.8417 0.174301 54.1451 0.458346 54.3086L15.2997 62.8773C15.4417 62.9591 15.5988 63 15.7581 63C15.9173 63 16.0744 62.9591 16.2164 62.8773L31.0406 54.3086C31.3246 54.1451 31.4989 53.8417 31.4989 53.5146V26.6099C31.5011 26.2828 31.3246 25.9794 31.0427 25.8159ZM14.8435 60.4974L1.83338 52.9852V28.1958L12.8982 34.5847L14.8435 35.708V60.4974ZM29.6677 52.9852L16.6748 60.4952V35.7058L18.9686 34.3803L29.6677 28.1958V52.9852Z" fill="white"/>
<path d="M31.0427 17.2515L24.0965 13.2361L22.2653 14.2948L28.7532 18.0455L15.7581 25.5576L2.74792 18.0455L9.24439 14.2948L7.41316 13.2361L0.458346 17.2515C0.174301 17.415 0 17.7184 0 18.0455C0 18.3726 0.174301 18.676 0.458346 18.8395L15.3019 27.4082C15.4439 27.49 15.601 27.5309 15.7602 27.5309C15.9195 27.5309 16.0765 27.49 16.2186 27.4082L31.0427 18.8395C31.3268 18.676 31.5011 18.3726 31.5011 18.0455C31.5011 17.7184 31.3246 17.415 31.0427 17.2515Z" fill="white"/>
<path d="M15.7581 18.9708C15.5988 18.9708 15.4417 18.9299 15.2997 18.8481L0.458346 10.2794C0.174301 10.1159 0 9.81248 0 9.4854C0 9.15831 0.174301 8.8549 0.458346 8.69136L15.2997 0.122656C15.5838 -0.0408853 15.9324 -0.0408853 16.2164 0.122656L31.0406 8.69136C31.3246 8.8549 31.4989 9.15831 31.4989 9.4854C31.4989 9.81248 31.3246 10.1137 31.0406 10.2794L16.2164 18.8481C16.0744 18.9299 15.9173 18.9708 15.7581 18.9708ZM2.74793 9.4854L15.7581 16.9975L28.7532 9.4854L15.7581 1.97326L2.74793 9.4854Z" fill="white"/>
</svg>
