<svg xmlns="http://www.w3.org/2000/svg" xml:space="preserve" id="Layer_1" x="0" y="0" style="enable-background:new 0 0 15 29.277" version="1.1" viewBox="0 0 30 29.277"><style>.st0{fill:#00e0bf}.st2{fill:#102545}</style><path d="m7.323 28.851 6.89-3.982V12.366l-6.89 3.982-6.897-3.982v12.503z" class="st0"/><path d="M7.323 8.383.426 12.366l6.897 3.982 6.89-3.982z" style="fill:#fff"/><path d="m14.426 11.997-3.23-1.867-.851.492 3.017 1.744-6.039 3.491-6.046-3.491 3.021-1.744-.851-.492-3.234 1.867a.426.426 0 0 0-.213.369v12.503c0 .152.081.293.213.369L7.11 29.22a.425.425 0 0 0 .426 0l6.889-3.982a.426.426 0 0 0 .213-.369V12.366a.425.425 0 0 0-.212-.369zM6.898 28.114.852 24.623v-11.52l5.142 2.969.904.522v11.52zm6.889-3.491-6.038 3.49v-11.52l1.066-.616 4.972-2.874v11.52z" class="st2"/><path d="m7.323 12.368 6.89-3.982-6.89-3.983L.426 8.386z" style="fill:#b2f6ec"/><path d="m14.426 8.017-3.228-1.866-.851.492 3.015 1.743-6.039 3.491-6.046-3.491 3.019-1.743-.851-.492L.213 8.017a.426.426 0 0 0 0 .738l6.898 3.982a.425.425 0 0 0 .426 0l6.889-3.982a.426.426 0 0 0 0-.738z" class="st2"/><path d="m7.323 8.39 3.024-1.747.85-.492 3.016-1.743L7.323.426.426 4.408l3.019 1.743.851.492z" class="st0"/><path d="M7.323 8.816a.425.425 0 0 1-.213-.057L.213 4.777a.426.426 0 0 1 0-.738L7.11.057a.426.426 0 0 1 .426 0l6.889 3.982a.426.426 0 0 1 0 .738L7.536 8.759a.425.425 0 0 1-.213.057zM1.277 4.408l6.046 3.491 6.039-3.491L7.323.917 1.277 4.408z" class="st2"/></svg>