<svg width="333" height="256" viewBox="0 0 333 256" fill="none" xmlns="http://www.w3.org/2000/svg">
<rect width="333" height="256" fill="#00E0BF"/>
<g clip-path="url(#clip0_3521_17020)">
<path d="M114.043 122.816L107.092 118.798L105.261 119.857L111.753 123.61L98.7581 131.122L85.7479 123.61L92.2487 119.857L90.4175 118.798L83.4583 122.816C83.1743 122.979 83 123.283 83 123.61V150.515C83 150.842 83.1743 151.145 83.4583 151.309L98.2997 159.877C98.4417 159.959 98.5988 160 98.7581 160C98.9173 160 99.0744 159.959 99.2164 159.877L114.041 151.309C114.325 151.145 114.499 150.842 114.499 150.515V123.61C114.501 123.283 114.325 122.979 114.043 122.816ZM97.8435 157.497L84.8334 149.985V125.196L95.8982 131.585L97.8435 132.708V157.497ZM112.668 149.985L99.6748 157.495V132.706L101.969 131.38L112.668 125.196V149.985Z" fill="white"/>
<path d="M114.043 114.251L107.097 110.236L105.265 111.295L111.753 115.045L98.7581 122.558L85.7479 115.045L92.2444 111.295L90.4132 110.236L83.4583 114.251C83.1743 114.415 83 114.718 83 115.045C83 115.373 83.1743 115.676 83.4583 115.84L98.3019 124.408C98.4439 124.49 98.601 124.531 98.7602 124.531C98.9195 124.531 99.0765 124.49 99.2186 124.408L114.043 115.84C114.327 115.676 114.501 115.373 114.501 115.045C114.501 114.718 114.325 114.415 114.043 114.251Z" fill="white"/>
<path d="M98.7581 115.971C98.5988 115.971 98.4417 115.93 98.2997 115.848L83.4583 107.279C83.1743 107.116 83 106.812 83 106.485C83 106.158 83.1743 105.855 83.4583 105.691L98.2997 97.1227C98.5838 96.9591 98.9324 96.9591 99.2164 97.1227L114.041 105.691C114.325 105.855 114.499 106.158 114.499 106.485C114.499 106.812 114.325 107.114 114.041 107.279L99.2164 115.848C99.0744 115.93 98.9173 115.971 98.7581 115.971ZM85.7479 106.485L98.7581 113.998L111.753 106.485L98.7581 98.9733L85.7479 106.485Z" fill="white"/>
<path d="M127.552 100.508C126.315 100.508 125.34 101.519 125.34 102.72C125.34 103.92 126.315 104.895 127.552 104.895C128.753 104.895 129.728 103.92 129.728 102.72C129.728 101.519 128.753 100.508 127.552 100.508Z" fill="white"/>
<path d="M129.166 108.308H125.904V127.057H129.166V108.308Z" fill="white"/>
<path d="M135.314 117.12C135.314 112.696 137.752 110.933 140.752 110.933C143.64 110.933 145.402 112.659 145.402 115.734V127.059H148.664V115.547C148.664 110.746 145.776 107.822 141.389 107.822C138.763 107.822 136.702 108.797 135.314 111.009V108.308H132.052V127.057H135.314V117.12Z" fill="white"/>
<path d="M166.927 123.832V127.057H170.189V100.807H166.927V111.532C165.427 109.244 163.028 107.82 159.839 107.82C154.627 107.82 150.351 112.132 150.351 117.682C150.351 123.231 154.627 127.543 159.839 127.543C163.028 127.543 165.427 126.119 166.927 123.832ZM153.615 117.682C153.615 113.858 156.503 110.97 160.252 110.97C164.039 110.97 166.927 113.858 166.927 117.682C166.927 121.505 164.039 124.393 160.252 124.393C156.503 124.393 153.615 121.508 153.615 117.682Z" fill="white"/>
<path d="M181.816 107.82C175.965 107.82 171.99 112.132 171.99 117.682C171.99 123.306 176.003 127.543 182.039 127.543C185.79 127.543 188.639 125.856 190.29 123.306L187.514 121.731C186.576 123.268 184.701 124.468 182.115 124.468C178.627 124.468 175.965 122.555 175.328 119.181H191.041C191.116 118.693 191.153 118.207 191.153 117.718C191.153 112.47 187.477 107.82 181.816 107.82ZM175.328 116.332C175.853 113.07 178.291 110.895 181.816 110.895C184.628 110.895 187.29 112.62 187.854 116.332H175.328Z" fill="white"/>
<path d="M196.065 100.807H192.803V127.055H196.065V100.807Z" fill="white"/>
<path d="M200.601 100.508C199.364 100.508 198.389 101.519 198.389 102.72C198.389 103.92 199.364 104.895 200.601 104.895C201.802 104.895 202.777 103.92 202.777 102.72C202.777 101.519 201.802 100.508 200.601 100.508Z" fill="white"/>
<path d="M202.213 108.308H198.951V127.057H202.213V108.308Z" fill="white"/>
<path d="M215.451 107.82C212.264 107.82 209.863 109.244 208.363 111.532V100.807H205.101V127.055H208.363V123.829C209.863 126.117 212.262 127.541 215.451 127.541C220.663 127.541 224.939 123.229 224.939 117.679C224.939 112.13 220.663 107.82 215.451 107.82ZM215.038 124.393C211.251 124.393 208.363 121.505 208.363 117.682C208.363 113.858 211.251 110.97 215.038 110.97C218.789 110.97 221.674 113.858 221.674 117.682C221.674 121.505 218.789 124.393 215.038 124.393Z" fill="white"/>
<path d="M230 100.807H226.738V127.055H230V100.807Z" fill="white"/>
<path d="M251 117.72C251 112.47 247.325 107.82 241.663 107.82C235.812 107.82 231.838 112.132 231.838 117.682C231.838 123.306 235.851 127.543 241.887 127.543C245.638 127.543 248.487 125.856 250.137 123.306L247.361 121.731C246.423 123.268 244.549 124.468 241.962 124.468C238.474 124.468 235.812 122.555 235.175 119.181H250.888C250.964 118.695 251 118.207 251 117.72ZM235.175 116.332C235.7 113.07 238.139 110.895 241.663 110.895C244.476 110.895 247.138 112.62 247.701 116.332H235.175Z" fill="white"/>
<path d="M129.166 129.943H125.904V156.191H129.166V129.943Z" fill="white"/>
<path d="M147.577 140.668C146.077 138.38 143.678 136.956 140.489 136.956C135.277 136.956 131.001 141.268 131.001 146.818C131.001 152.367 135.277 156.68 140.489 156.68C143.676 156.68 146.077 155.255 147.577 152.968V156.193H150.839V137.444H147.577V140.668ZM140.902 153.529C137.151 153.529 134.266 150.642 134.266 146.818C134.266 142.992 137.154 140.106 140.902 140.106C144.689 140.106 147.577 142.994 147.577 146.818C147.577 150.644 144.689 153.529 140.902 153.529Z" fill="white"/>
<path d="M164.039 136.956C160.852 136.956 158.451 138.38 156.951 140.668V129.943H153.689V156.191H156.951V152.966C158.451 155.253 160.85 156.678 164.039 156.678C169.251 156.678 173.527 152.365 173.527 146.816C173.527 141.268 169.253 136.956 164.039 136.956ZM163.628 153.529C159.841 153.529 156.953 150.642 156.953 146.818C156.953 142.992 159.841 140.106 163.628 140.106C167.379 140.106 170.265 142.994 170.265 146.818C170.265 150.644 167.377 153.529 163.628 153.529Z" fill="white"/>
<path d="M177.914 142.505C177.914 140.818 179.565 139.992 181.252 139.992C182.902 139.992 184.553 140.704 185.265 142.391L188.002 140.853C186.801 138.415 184.327 136.954 181.252 136.954C177.464 136.954 174.615 139.241 174.615 142.54C174.615 149.327 185.114 147.039 185.114 151.053C185.114 152.89 183.389 153.603 181.402 153.603C179.078 153.603 177.353 152.477 176.752 150.678L173.94 152.29C175.026 154.876 177.652 156.678 181.402 156.678C185.416 156.678 188.415 154.541 188.415 151.053C188.415 144.156 177.914 146.519 177.914 142.505Z" fill="white"/>
</g>
<defs>
<clipPath id="clip0_3521_17020">
<rect width="168" height="63" fill="white" transform="translate(83 97)"/>
</clipPath>
</defs>
</svg>
