<svg width="333" height="256" viewBox="0 0 333 256" fill="none" xmlns="http://www.w3.org/2000/svg">
<rect width="333" height="256" fill="#1D1F30"/>
<g clip-path="url(#clip0_3521_16933)">
<path fill-rule="evenodd" clip-rule="evenodd" d="M88.4619 116.121L90.1474 113.617L87.9756 111.583L86.2902 109.29L84.2472 107.319L82.2438 105.311L80.4067 103L79.3229 105.038L77.6613 106.311L76.1421 106.804L73.6015 106.538L71.0588 106.401L65.1992 105.928L70.3667 108.925L71.3269 110.209L70.3075 110.056L70.213 111.889L70.4124 114.789L69.9937 117.691L70.1174 120.582L68.2449 123.025L70.2992 122.929H71.4121C71.4121 122.929 70.6338 123.86 70.0935 124.482L69.9521 125.546L70.1101 128.067L70.2795 130.59L70.2847 133.113L69.8867 135.635L70.2576 138.159L69.9023 140.682L70.3002 143.207L70.3927 145.734L70.0259 148.241L69.5022 151.227L68.6179 154L70.9798 152.877L73.1962 151.26L75.4408 149.685L77.8806 148.278L76.1494 145.817L76.0257 143.176L76.111 140.532L76.3749 137.889L76.2295 135.248L76.3167 132.606L75.9208 129.962L76.0891 127.319L75.872 124.676L76.2159 122.032L76.3718 119.388L75.9063 116.743L76.1765 114.096L76.2835 111.493L77.8193 109.07L79.5276 110.544L80.7735 112.514L82.5275 114.159L83.5469 114.992L82.4319 115.234L82.2834 116.903L82.0734 119.575L82.1888 122.25L82.0662 124.866L81.5279 127.271L80.0835 129.331L79.4881 131.491L78.501 133.087L78.1466 135.708L78.3939 138.339L79.4985 135.812L81.2058 133.97L83.071 132.268L84.8323 130.465L86.5198 128.589L88.3777 126.874L89.7909 124.864L88.1356 123.139L88.0504 120.737L88.1658 118.398L88.4651 116.123L88.4619 116.121ZM200.11 111.445L199.483 113.562L199.374 115.852L198.69 116.946L198.117 118.678L197.486 121.107L196.813 123.528L196.219 125.972L195.651 128.518L195.131 125.929L194.343 123.518L193.369 121.163L192.71 118.713L192.019 116.271L191.366 113.816L190.478 111.431L191.487 109.207H181.287L182.735 111.468L182.638 114.076L182.721 116.72L182.706 117.457L183.298 119.708L182.912 120.995L183.065 122.007L182.893 124.651L183.04 127.295L183.056 129.941L183.055 132.586L183.036 135.231L182.873 137.876L182.973 140.43L183.074 143.086L182.798 145.801L181.189 148.271L183.873 148.239L186.297 148.34L188.954 148.337L187.161 145.8L187.084 143.249L186.914 140.68L187.25 138.11L187.293 135.541L186.872 132.97L187.044 130.402L187.226 127.83L186.954 125.258L187.018 124.221L186.331 122.342L187.106 122.783L187.848 125.262L188.619 127.832L189.459 130.382L190.145 132.978L190.848 135.569L191.883 138.058L192.621 140.64L193.173 143.281L194.074 145.62L194.556 143.194L195.47 140.688L196.179 138.127L196.743 135.527L197.321 132.931L198.266 130.433L198.717 127.802L199.639 125.294L200.178 122.51L200.972 121.633L200.245 123.866L200.312 125.254L200.029 127.823L200.302 130.393L200.189 132.962L200.243 135.533L200.377 138.101L200.319 140.673L200.207 141.622L200.46 144.103L200.059 145.779L198.517 148.269L200.858 148.135L203.173 148.044L205.489 148.411L207.856 148.275L206.302 145.776L206.17 143.173L206.103 140.529L206.143 137.885L206.135 135.243L206.21 132.598L206.358 129.954L206.091 127.309L206.269 124.663L206.312 122.018L206.256 119.374L206.326 117.513L206.026 114.78L206.2 111.441L207.813 109.207H198.579L200.11 111.445ZM94.0544 114.076L94.254 111.374L92.4885 109.207H101.446L100.624 110.524L99.4765 112.233L99.913 113.159L99.8351 114.079L100.158 116.727L100.124 119.374L99.9441 122.018L100.206 124.663L99.965 127.309L99.8766 129.954L99.9327 132.598L99.9556 134.985L99.5327 139.319L100.22 142.4L100.24 143.173L100.223 145.769L101.727 148.272L99.3757 148.342L97.0627 148.364L94.7517 148.283L92.6308 148.209L94.2529 145.875L93.9443 143.17L94.2217 140.522L93.884 137.876L93.9838 135.231L93.8944 132.586L94.0565 129.941L94.254 127.295L94.043 124.651L94.3059 122.007L94.2955 121.916L94.5252 121.199L94.0035 118.697L93.9672 116.72L94.0544 114.076ZM128.387 145.816C128.173 145.597 127.696 145.105 127.696 145.105C127.696 145.105 127.449 143.969 127.43 143.931L127.17 143.421L126.066 140.97L124.98 138.51L124.312 136.056L123.243 134.543C123.243 134.543 122.584 133.502 122.549 133.364C122.515 133.225 122.088 131.457 122.088 131.457L121.907 131.048L120.975 128.553L121.922 126.124L121.944 126.073L119.396 125.127L112.091 123.822L113.241 126.001L113.853 127.915L114.933 128.92L113.753 129.658L113.438 131.021L112.232 133.415L111.294 135.919L110.156 138.34L109.257 140.453L108.983 141.854L108.485 142.82L107.991 143.643L107.329 145.899L104.249 148.263L106.768 148.4L109.311 148.245L111.757 148.192L110.993 145.805L111.967 143.207L113.053 140.667L114.022 138.078L114.076 137.959V137.72L114.396 136.549L115.081 135.751L115.168 135.56L116.216 133.124L117.164 135.636L118.553 138.08L119.568 140.688L120.856 143.18L121.834 145.824L120.009 148.232L122.642 148.121L125.366 148.378L128.091 148.163L130.898 148.272L128.388 145.823L128.385 145.817L128.387 145.816ZM153.278 141.054L153.838 143.158L153.836 143.155L154.178 145.732L154.676 148.089L152.318 148.053H149.882L147.449 148.068L145.017 148.216L142.584 148.043L138.745 148.442L136.041 148.387L133.142 148.344L134.77 145.909L134.857 145.779V145.754C135.022 145.446 135.336 144.812 135.336 144.812L134.868 144.17L134.876 143.066L134.798 140.317L135.049 137.57L134.944 134.825L135.052 132.079L134.976 129.333L134.82 125.719L134.837 125.303L140.733 126.611L140.314 128.295L140.778 129.505L140.741 129.787L140.739 133.308L140.817 135.222L140.811 137.94L141.111 140.657L141.055 143.346L142.63 145.759L145.58 145.626L148.706 145.966L148.52 143.153L148.136 140.522L147.979 139.461L148.193 137.921L147.661 135.842L147.637 135.269L148.458 133.262L148.944 131.09L150.009 129.159L151.54 126.835L153.033 124.428L152.84 127.369L152.325 130.176L151.996 132.998L152.198 135.556L152.687 138.102L153.278 141.054ZM177.602 143.194L176.857 140.702L176.619 139.106L175.907 138.693C175.907 138.693 175.905 136.861 175.905 135.686L175.884 135.599L175.951 132.999V130.132L176.775 127.369L177.133 124.638L175.469 126.829L173.736 129.043L173.07 131.162L172.363 133.249L171.483 135.257L171.817 137.882L172.026 140.528L172.363 143.163L172.508 145.825L169.52 145.694L166.626 145.656L164.8 143.409L164.906 140.714L164.904 140.681L164.253 139.282L164.8 136.689L164.876 135.393L164.813 132.732L164.764 130.07L165.021 127.408L164.807 124.747L164.881 123.671L158.943 125.319L158.729 127.295L159.07 129.941L159.044 132.586L158.889 135.231L159.018 137.876L159.138 140.522L159.124 143.17L158.734 145.761L157.22 148.289L159.985 148.356L162.689 148.408L166.529 148.109L168.961 148.114L171.393 148.246L173.826 148.038L176.262 148.397L178.609 148.069L178.018 145.759L177.606 143.195L177.602 143.194ZM263.755 105.821L260.826 108.351L258.748 110.935L258.647 113.926L258.875 116.95L258.744 119.603L258.546 122.258L258.6 124.913L258.887 127.566L258.777 130.221L258.833 132.874L258.638 135.525L258.821 138.18L258.642 140.952L258.673 143.487L258.485 145.741L258.688 148.674L258.71 151.448L258.545 152.862L257.923 151.688L256.479 149.36L255.469 147.032L254.021 144.898L253.034 142.562L252.445 140.054L251.458 137.72L250.361 135.432L249.107 133.213L248.277 131.145L247.318 129.137L246.465 127.223L245.355 125.468L244.304 123.092L243.22 121.087L242.99 123.27L243.042 125.959L242.953 127.631V129.857L242.844 132.518L242.946 133.671L242.906 137.84L243.087 139.994L242.997 143.553L243.234 145.803L244.645 148.212L242.511 148.227L240.633 148.097L237.976 148.259L235.707 148.225L236.937 145.736L237.111 143.184L237.032 140.549L237.238 137.553L236.941 135.286L237.007 132.655L237.116 130.023L237.37 127.392L237.16 124.761L237.456 122.13L237.283 119.502L237.145 118.242L237.385 114.214L237.073 111.623L235.704 109.207H244.865L243.358 111.602L244.206 113.375L245.376 115.475L246.182 117.613L247.133 119.452L248.114 122.081L249.438 124.394L250.618 126.729L251.875 129.05L253.114 131.491L254.316 134.178L253.953 131.551L254.309 129.04L254.199 126.531L254.012 124.023L253.933 121.82L254.128 118.917L254.216 116.499L253.98 113.741L254.058 111.265L252.146 108.904L256.138 108.254L258.887 107.267L261.145 106.794L263.755 105.821ZM164.943 120.765L164.898 119.425L164.736 116.762L164.701 114.097L164.694 111.364L166.5 109.208H157.305L158.835 111.457L159.073 114.076L158.984 116.72L158.797 119.365L158.861 120.489L161.902 120.674L164.943 120.766V120.765ZM152.884 119.396L153.024 118.223L152.936 115.712L152.924 114.006L153.244 111.492L153.076 109.207H133.314L134.616 111.039L134.987 111.436L134.997 111.431V111.445L135.494 111.978L135.174 112.407L135.03 112.789L135.196 114.924L134.859 116.218L134.863 116.893L134.829 119.332L134.806 120.761L138.601 120.646L141.039 120.446L141.171 119.253L140.962 116.647L141.117 114.04L140.954 112.237L140.329 111.331H140.872L143.795 111.31L146.626 111.371L149.439 111.459L150.352 113.963L151.117 115.697L151.873 117.429L152.883 119.395L152.884 119.396ZM116.751 118.976L116.513 118.364L115.5 116.657L115.14 115.263L114.492 114.047L113.232 111.408L114.895 109.208H104.345L106.654 111.424L106.729 111.497L106.76 111.553L108.421 113.563L108.623 115.907L109.857 117.892L111.134 121.746L114.141 121.528L117.052 121.199L116.751 118.978V118.976ZM123.829 121.36L123.922 121.135L124.951 118.811L126.046 116.405L126.738 113.836L126.892 113.449L127.09 111.822L128.096 111.038L130.309 109.206H123.338L123.963 111.427L122.916 113.912L122.197 116.547L120.971 118.979L119.981 121.01L122.08 121.325L123.828 121.36H123.829ZM219.006 108.885L221.539 108.639L221.538 108.64L224.04 109L224.701 109.209L226.485 109.77L228.315 111.578L228.34 111.617L229.174 113.834C229.174 113.834 229.587 114.174 230.055 114.544L230.723 116.031L231.407 118.476L231.96 120.958L232.399 123.473L232.464 126.022L232.588 128.569L232.191 131.107L232.134 133.644L231.99 136.185L231.6 138.707L231.271 139.879L230.073 141.329L230.26 142.254L229.594 143.367L228.136 145.402L226.461 147.146L223.941 148.551L221.557 148.78L218.97 148.503L216.656 147.102L214.926 145.418L213.232 143.507L212.968 142.709L213.289 142.142L212.318 140.801L211.477 138.708L211.265 136.156L210.861 133.648L210.592 131.115L210.598 128.568L210.872 126.029L211.012 123.499L210.983 120.935L211.702 118.484L212.459 116.072L212.907 114.672L213.848 113.924L214.483 111.926L214.745 111.566L216.71 109.957L218.315 109.207L219.006 108.885ZM226.064 122.716L226.045 119.788L226.047 119.789L225.56 116.906L223.955 114.422L221.541 109.982L219.115 114.41L217.547 116.913L217.122 119.803L216.937 122.711L216.76 125.618L216.706 127.449L213.839 129.172L216.725 131.236L216.76 134.612L217.027 137.52L217.824 140.321L219.063 142.95L221.54 147.912L224.032 142.967L225.354 140.346L225.748 137.471L226.358 134.614L226.561 131.697L226.525 130.765L228.933 128.946L226.577 127.285L226.485 125.608L226.064 122.716ZM152.991 121.414L151.382 121.43L147.166 121.119L146.764 116.933L146.398 112.785L145.522 117.019L144.361 120.957L141.906 121.211L141.04 121.293L135.483 121.506L134.949 121.556L133.349 121.52L129.074 121.819L124.248 122.266L123.796 122.235L119.959 121.964L119.39 121.924L118.104 121.994L111.761 122.467L109.73 122.669L105.068 122.74L108.668 123.017L109.718 123.098L114.56 123.139L119.398 123.276L124.242 123.339L129.086 123.358L133.351 123.29L137.592 123.871L141.854 123.912L144.557 124.071L144.585 124.218L145.34 128.186L145.869 132.577L146.733 128.239L147.321 124.228L151.372 123.654L155.589 123.602L157.686 123.538L159.804 123.474L163.962 122.865H164.79L164.791 122.862L168.161 122.865L174.234 122.549L168.23 122.07L164.834 121.859L159.445 121.659L158.824 121.647L155.607 121.388L153.056 121.413L152.991 121.414ZM220.755 122.469C220.848 122.456 220.945 122.424 221.027 122.379C221.248 122.257 221.406 122.065 221.553 121.863C221.705 121.654 221.899 121.503 222.155 121.439C222.309 121.401 222.431 121.452 222.509 121.589C222.548 121.658 222.589 121.726 222.632 121.793C222.676 121.863 222.743 121.897 222.826 121.897C222.934 121.897 223.02 121.846 223.085 121.767C223.172 121.659 223.256 121.546 223.331 121.43C223.457 121.234 223.587 121.029 223.611 120.796C223.645 120.475 223.658 120.148 223.64 119.826C223.624 119.529 223.554 119.23 223.407 118.967C223.265 118.712 223.104 118.465 222.932 118.23C222.776 118.017 222.59 117.828 222.373 117.672C222.185 117.538 222.029 117.373 221.918 117.17C221.683 116.742 221.589 116.284 221.639 115.795C221.647 115.728 221.628 115.656 221.609 115.587L221.603 115.563C221.597 115.538 221.558 115.511 221.531 115.507C221.513 115.504 221.476 115.534 221.467 115.557C221.448 115.601 221.429 115.646 221.41 115.691C221.354 115.822 221.298 115.953 221.264 116.09C221.198 116.359 221.143 116.634 221.115 116.909C221.09 117.148 221.067 117.402 221.12 117.63C221.171 117.849 221.271 118.057 221.37 118.264L221.371 118.266C221.396 118.316 221.42 118.366 221.443 118.416C221.466 118.466 221.49 118.515 221.515 118.565C221.611 118.762 221.708 118.96 221.745 119.182C221.792 119.462 221.787 119.74 221.705 120.01C221.594 120.381 221.356 120.664 221.042 120.885C220.9 120.983 220.733 121.001 220.568 120.999C220.43 120.997 220.302 120.853 220.298 120.722C220.295 120.604 220.372 120.539 220.542 120.516C220.55 120.515 220.559 120.513 220.567 120.512C220.576 120.511 220.585 120.509 220.593 120.508C220.701 120.492 220.759 120.437 220.778 120.327C220.785 120.282 220.788 120.237 220.792 120.192V120.19C220.793 120.176 220.794 120.162 220.795 120.148C220.838 119.665 220.715 119.204 220.593 118.746L220.591 118.736C220.539 118.542 220.462 118.354 220.384 118.167L220.384 118.166C220.36 118.109 220.337 118.052 220.314 117.995C220.29 117.934 220.258 117.877 220.226 117.82C220.211 117.794 220.196 117.769 220.182 117.743C220.17 117.745 220.156 117.747 220.144 117.749C220.144 117.763 220.143 117.777 220.143 117.792C220.142 117.814 220.141 117.836 220.14 117.859C220.136 117.936 220.132 118.013 220.139 118.09C220.161 118.358 220.143 118.626 220.054 118.874C219.96 119.132 219.842 119.382 219.723 119.632C219.705 119.67 219.687 119.708 219.669 119.747C219.662 119.762 219.654 119.777 219.647 119.793C219.466 120.176 219.313 120.563 219.3 120.996C219.291 121.35 219.373 121.67 219.585 121.958C219.877 122.355 220.261 122.541 220.754 122.471L220.755 122.469ZM220.302 128.238C220.004 128.105 219.794 127.878 219.606 127.62H219.609C219.461 127.417 219.369 127.192 219.31 126.949C219.256 126.73 219.218 126.511 219.234 126.28C219.204 125.84 219.339 125.436 219.545 125.053C219.602 124.948 219.679 124.857 219.756 124.765L219.775 124.743C219.987 124.493 220.232 124.281 220.532 124.142C220.815 124.01 221.114 123.929 221.43 123.911C221.814 123.889 222.181 123.954 222.53 124.105C222.876 124.255 223.169 124.477 223.392 124.789C223.501 124.941 223.589 125.102 223.653 125.275C223.716 125.45 223.735 125.635 223.716 125.821C223.683 126.147 223.515 126.4 223.281 126.615C223.223 126.668 223.148 126.699 223.074 126.722C222.758 126.823 222.46 126.78 222.175 126.603C221.96 126.47 221.852 126.273 221.778 126.046C221.724 125.882 221.658 125.724 221.546 125.592C221.367 125.382 221.142 125.243 220.865 125.208C220.769 125.195 220.685 125.255 220.616 125.317C220.359 125.548 220.242 125.842 220.23 126.186C220.221 126.438 220.276 126.677 220.395 126.892C220.52 127.12 220.687 127.321 220.899 127.48C221.134 127.656 221.407 127.724 221.688 127.766C222.079 127.825 222.46 127.783 222.828 127.634C222.941 127.587 223.047 127.527 223.15 127.459C223.153 127.457 223.156 127.455 223.16 127.452C223.171 127.443 223.182 127.433 223.196 127.445C223.208 127.456 223.201 127.47 223.194 127.483C223.192 127.487 223.19 127.49 223.189 127.494C223.106 127.689 222.96 127.83 222.802 127.962C222.56 128.164 222.296 128.326 221.989 128.409C221.651 128.501 221.309 128.512 220.966 128.435C220.74 128.384 220.515 128.332 220.302 128.238ZM219.792 131.931C219.578 132.302 219.334 132.646 219.013 132.931L219.012 132.933C218.918 133.016 218.816 133.09 218.714 133.164L218.714 133.164C218.685 133.185 218.656 133.206 218.628 133.227L218.621 133.233C218.601 133.248 218.578 133.267 218.539 133.259C218.692 133.006 218.808 132.74 218.923 132.474C218.976 132.353 219.029 132.231 219.085 132.111C219.112 132.055 219.138 131.998 219.164 131.941L219.165 131.94L219.165 131.939V131.938C219.309 131.629 219.451 131.321 219.634 131.033C219.834 130.716 220.074 130.43 220.412 130.252C220.69 130.106 220.975 129.965 221.291 129.928C221.675 129.883 222.058 129.913 222.395 130.125C222.675 130.301 222.897 130.543 223.037 130.851C223.165 131.132 223.232 131.429 223.212 131.738C223.178 132.238 223.024 132.691 222.621 133.019C222.382 133.215 222.109 133.343 221.792 133.368C221.588 133.384 221.386 133.387 221.187 133.333C220.818 133.232 220.53 133.023 220.353 132.679C220.248 132.475 220.234 132.257 220.297 132.033C220.358 131.813 220.46 131.619 220.634 131.466C220.944 131.196 221.315 131.129 221.656 131.289C221.831 131.371 221.94 131.525 221.943 131.736C221.944 131.869 221.935 131.997 221.859 132.114C221.727 132.32 221.468 132.296 221.325 132.204C221.245 132.151 221.241 132.066 221.25 131.98C221.253 131.961 221.256 131.938 221.277 131.937C221.305 131.936 221.304 131.957 221.303 131.975C221.303 131.978 221.302 131.981 221.302 131.983C221.3 132.1 221.431 132.156 221.514 132.14C221.63 132.117 221.734 131.987 221.748 131.87C221.769 131.701 221.605 131.57 221.473 131.533C221.238 131.469 221.045 131.556 220.894 131.734C220.66 132.009 220.674 132.376 220.937 132.625C221.082 132.763 221.271 132.831 221.476 132.853C221.889 132.898 222.169 132.613 222.318 132.309C222.439 132.06 222.429 131.8 222.376 131.538C222.342 131.367 222.289 131.209 222.153 131.09C221.948 130.909 221.707 130.815 221.438 130.789C221.215 130.769 220.994 130.777 220.786 130.867C220.571 130.962 220.366 131.073 220.217 131.268C220.057 131.478 219.923 131.704 219.792 131.931ZM222.59 139.554L222.53 139.586L222.531 139.584C222.128 139.8 221.893 140.256 221.994 140.702C221.997 140.714 221.998 140.727 222 140.741L222.001 140.75L222.003 140.761H222.005C222.005 140.761 222.244 141.891 221.182 142.443C221.182 142.443 221.506 141.716 221.102 141.003C220.732 140.512 220.311 139.9 220.226 139.546C220.166 139.298 220.378 138.957 220.68 138.609C220.745 138.421 220.831 138.079 220.675 137.883C220.544 137.718 220.357 137.687 220.204 137.661C220.096 137.643 220.005 137.627 219.96 137.57L219.943 137.548C219.841 137.421 219.754 137.312 219.9 137.066C219.9 137.066 219.883 137.384 220.112 137.406C220.139 137.409 220.179 137.409 220.225 137.41C220.531 137.417 221.167 137.43 221.229 138.043C221.338 137.939 221.445 137.838 221.546 137.744C221.793 137.513 221.999 137.321 222.077 137.209C222.343 136.824 222.385 136.257 221.867 135.749C221.867 135.749 222.678 136.138 222.73 136.815C222.754 137.132 222.401 137.595 222.037 138.07C221.627 138.606 221.204 139.159 221.299 139.539C221.313 139.596 221.334 139.65 221.356 139.704C221.447 139.606 221.57 139.488 221.731 139.378C221.912 139.254 222.154 139.208 222.379 139.165C222.624 139.119 222.848 139.076 222.949 138.942C223.144 138.683 222.81 138.136 222.81 138.136C222.81 138.136 223.286 138.349 223.221 138.999C223.197 139.232 222.909 139.385 222.59 139.554ZM225.176 133.963L225.164 133.961C225.109 133.953 225.053 133.945 225.001 133.924C224.802 133.841 224.616 133.732 224.44 133.611C224.157 133.418 223.926 133.171 223.72 132.9C223.675 132.842 223.636 132.78 223.598 132.719C223.572 132.677 223.545 132.635 223.517 132.594C223.483 132.544 223.462 132.547 223.438 132.605L223.434 132.613C223.432 132.618 223.43 132.624 223.428 132.629C223.426 132.637 223.423 132.644 223.421 132.651C223.406 132.69 223.393 132.729 223.368 132.763C223.313 132.839 223.258 132.916 223.202 132.992C222.954 133.329 222.621 133.554 222.237 133.708C221.964 133.817 221.681 133.829 221.392 133.798C221.071 133.764 220.78 133.656 220.518 133.463C220.284 133.29 220.078 133.098 219.967 132.822C219.954 132.789 219.934 132.76 219.915 132.73C219.908 132.721 219.902 132.712 219.897 132.703C219.886 132.688 219.871 132.676 219.849 132.681C219.827 132.688 219.823 132.706 219.822 132.725C219.821 132.744 219.82 132.763 219.821 132.78C219.824 132.892 219.844 133 219.864 133.109C219.874 133.164 219.884 133.218 219.893 133.273C219.931 133.532 220.008 133.771 220.183 133.977C220.454 134.292 220.78 134.5 221.191 134.576C221.383 134.611 221.577 134.616 221.77 134.611C222.037 134.604 222.294 134.538 222.533 134.429C222.891 134.265 223.18 134.008 223.422 133.698C223.488 133.614 223.534 133.608 223.608 133.684C223.67 133.748 223.739 133.803 223.813 133.848C224.078 134.011 224.371 134.087 224.699 134.098L224.723 134.096C224.757 134.093 224.802 134.089 224.846 134.084C224.958 134.072 225.069 134.053 225.178 134.019L225.184 134.017L225.191 134.015C225.211 134.011 225.233 134.006 225.232 133.984C225.232 133.961 225.213 133.962 225.195 133.963C225.188 133.963 225.182 133.963 225.176 133.963Z" fill="#F2E6E0"/>
<path d="M261.492 145.528V145.057H263.967V145.528H263.008V148.16H262.451V145.528H261.492Z" fill="#F2E6E0"/>
<path d="M264.444 145.057H265.132L266.053 147.305H266.089L267.011 145.057H267.698V148.16H267.159V146.028H267.13L266.272 148.15H265.87L265.012 146.024H264.984V148.16H264.444V145.057Z" fill="#F2E6E0"/>
</g>
<defs>
<clipPath id="clip0_3521_16933">
<rect width="203" height="51" fill="white" transform="translate(65 103)"/>
</clipPath>
</defs>
</svg>
