<svg width="182" height="46" viewBox="0 0 182 46" fill="none" xmlns="http://www.w3.org/2000/svg">
<path fill-rule="evenodd" clip-rule="evenodd" d="M21.3815 11.8343L22.9175 9.57577L20.9383 7.7418L19.4023 5.6735L17.5406 3.89573L15.7148 2.08422L14.0405 0L13.0528 1.83775L11.5386 2.9867L10.1541 3.43091L7.8388 3.19099L5.52151 3.06729L0.181519 2.64089L4.89084 5.34456L5.76587 6.50196L4.83687 6.36419L4.75069 8.01729L4.93249 10.6329L4.55087 13.2503L4.66358 15.8585L2.95711 18.0617L4.82929 17.9755H5.84349C5.84349 17.9755 5.13422 18.8152 4.64178 19.3756L4.513 20.3352L4.65694 22.6097L4.81131 24.8851L4.81605 27.1605L4.45333 29.4359L4.79141 31.7122L4.46754 33.9876L4.83022 36.2649L4.9145 38.544L4.58023 40.8054L4.10296 43.4988L3.29708 46L5.44956 44.9869L7.46945 43.5287L9.51495 42.108L11.7384 40.8391L10.1608 38.619L10.0481 36.2368L10.1257 33.8527L10.3663 31.4686L10.2337 29.0863L10.3132 26.7031L9.95245 24.319L10.1058 21.9349L9.90792 19.5508L10.2214 17.1658L10.3634 14.7817L9.9392 12.3957L10.1854 10.0078L10.2829 7.66024L11.6826 5.47483L13.2394 6.80464L14.3748 8.58148L15.9733 10.065L16.9023 10.8166L15.8862 11.0349L15.7508 12.54L15.5595 14.9504L15.6646 17.3626L15.5529 19.7223L15.0624 21.8918L13.746 23.7492L13.2034 25.6976L12.3038 27.1371L11.9808 29.5015L12.2062 31.8743L13.2129 29.5952L14.7688 27.9336L16.4686 26.3986L18.0737 24.7726L19.6116 23.0801L21.3048 21.5338L22.5927 19.7204L21.0842 18.1648L21.0065 15.9981L21.1116 13.8885L21.3844 11.8362L21.3815 11.8343ZM123.13 7.61714L122.558 9.52614L122.459 11.5916L121.836 12.5784L121.313 14.1406L120.739 16.3317L120.125 18.5153L119.584 20.7195L119.066 23.0164L118.592 20.681L117.874 18.5068L116.986 16.3823L116.386 14.1725L115.757 11.9702L115.161 9.75573L114.352 7.60403L115.272 5.59852H105.976L107.295 7.63779L107.207 9.99L107.283 12.3751L107.269 13.0395L107.809 15.0703L107.457 16.2305L107.596 17.1433L107.439 19.5283L107.574 21.9134L107.588 24.2994L107.587 26.6853L107.57 29.0713L107.421 31.4564L107.512 33.7608L107.604 36.1562L107.353 38.6049L105.887 40.8325L108.333 40.8035L110.541 40.8953L112.963 40.8925L111.329 38.604L111.258 36.3033L111.104 33.9857L111.41 31.6681L111.45 29.3506L111.066 27.0321L111.222 24.7154L111.388 22.396L111.14 20.0756L111.198 19.1404L110.573 17.446L111.279 17.8434L111.955 20.0794L112.658 22.3979L113.423 24.6976L114.049 27.0387L114.689 29.3759L115.632 31.6213L116.305 33.9501L116.808 36.3314L117.629 38.4419L118.068 36.2537L118.901 33.9932L119.547 31.6831L120.061 29.3384L120.588 26.9965L121.45 24.7436L121.861 22.3707L122.701 20.1084L123.192 17.5968L123.916 16.8059L123.253 18.8208L123.314 20.0719L123.056 22.3894L123.305 24.707L123.202 27.0246L123.251 29.3431L123.373 31.6597L123.321 33.9792L123.218 34.8358L123.449 37.0737L123.083 38.5853L121.678 40.8307L123.812 40.7098L125.921 40.6283L128.032 40.9591L130.189 40.8363L128.773 38.5825L128.652 36.2349L128.592 33.8498L128.628 31.4648L128.62 29.0816L128.688 26.6966L128.824 24.3116L128.581 21.9256L128.742 19.5396L128.782 17.1536L128.731 14.7685L128.794 13.0901L128.522 10.6254L128.68 7.61341L130.149 5.59852H121.735L123.13 7.61714ZM26.4782 9.99L26.66 7.55343L25.0511 5.59852H33.214L32.465 6.78592L31.4195 8.32752L31.8172 9.16343L31.7462 9.99281L32.0407 12.3816L32.0095 14.7685L31.8456 17.1536L32.0843 19.5396L31.8646 21.9256L31.7841 24.3116L31.8352 26.6966L31.856 28.8492L31.4706 32.7581L32.0966 35.5377L32.1155 36.2349L32.0994 38.5759L33.4706 40.8335L31.3276 40.8963L29.2196 40.9169L27.1136 40.8438L25.1808 40.7763L26.659 38.6715L26.3778 36.2321L26.6306 33.8433L26.3229 31.4564L26.4138 29.0713L26.3323 26.6853L26.4801 24.2994L26.66 21.9134L26.4677 19.5283L26.7073 17.1433L26.6978 17.0618L26.9071 16.4151L26.4318 14.1585L26.3986 12.3751L26.4782 9.99ZM57.7665 38.6181C57.5713 38.4213 57.1367 37.977 57.1367 37.977C57.1367 37.977 56.9112 36.9528 56.894 36.9181L56.6574 36.4579L55.6515 34.2472L54.6619 32.029L54.053 29.8154L53.0787 28.451C53.0787 28.451 52.4782 27.5119 52.4461 27.3872C52.415 27.2617 52.0259 25.6667 52.0259 25.6667L51.8609 25.2983L51.0117 23.0483L51.8744 20.8572L51.8948 20.8113L49.573 19.9576L42.9158 18.7805L43.9632 20.7457L44.5209 22.4719L45.5058 23.3791L44.43 24.0445L44.1431 25.274L43.0437 27.4332L42.1894 29.6917L41.1516 31.8753L40.3324 33.7814L40.0834 35.0447L39.6288 35.9163L39.179 36.6585L38.5758 38.693L35.769 40.825L38.0644 40.9488L40.3817 40.8091L42.6109 40.7613L41.9148 38.6087L42.8022 36.2649L43.7917 33.9745L44.6753 31.6391L44.7245 31.5313V31.3158L45.0162 30.2596L45.6403 29.5399L45.7198 29.3675L46.6744 27.1708L47.539 29.4368L48.8042 31.641L49.7292 33.9932L50.9034 36.2405L51.7944 38.6256L50.1318 40.7979L52.5312 40.6976L55.0133 40.9291L57.4964 40.7351L60.0544 40.8335L57.7674 38.6246L57.7646 38.619L57.7665 38.6181ZM80.4504 34.3231L80.9608 36.2209L80.9589 36.218L81.2703 38.5422L81.724 40.6686L79.5751 40.6358H77.3556L75.1379 40.6498L72.9216 40.7829L70.7049 40.6273L67.2057 40.9872L64.7416 40.9375L62.0996 40.8981L63.5838 38.7024L63.6623 38.5853V38.5628C63.8129 38.2845 64.0997 37.7128 64.0997 37.7128L63.6725 37.1336L63.68 36.1384L63.6093 33.6587L63.8376 31.1809L63.7418 28.7049L63.8404 26.228L63.7711 23.7511L63.6289 20.4917L63.6442 20.1169L69.0176 21.2958L68.6359 22.8149L69.0589 23.9067L69.025 24.1607L69.0231 27.3367L69.0943 29.0629L69.0891 31.5145L69.362 33.9651L69.3109 36.3905L70.7467 38.5665L73.4348 38.4466L76.2837 38.7539L76.114 36.2162L75.7645 33.8433L75.6208 32.8865L75.8165 31.4976L75.3317 29.6224L75.3099 29.1051L76.0573 27.2954L76.5003 25.3358L77.4709 23.5946L78.8667 21.4982L80.2268 19.3269L80.0516 21.9799L79.5816 24.5121L79.2818 27.0574L79.4663 29.3647L79.9121 31.6607L80.4504 34.3231ZM102.618 36.2537L101.938 34.0054L101.722 32.566L101.073 32.1939C101.073 32.1939 101.071 30.5417 101.071 29.4818L101.052 29.4031L101.113 27.0583V24.4718L101.863 21.9799L102.19 19.5171L100.674 21.4926L99.0945 23.4897L98.4874 25.4014L97.8432 27.2832L97.0413 29.0948L97.3453 31.462L97.5364 33.8489L97.8432 36.2256L97.9752 38.6265L95.2522 38.5084L92.6144 38.4738L90.9503 36.4476L91.047 34.0167L91.0451 33.9867L90.452 32.7253L90.9503 30.3861L91.0195 29.2175L90.9628 26.8175L90.9182 24.4165L91.152 22.0155L90.9568 19.6145L91.0242 18.6446L85.6132 20.1309L85.418 21.9134L85.7285 24.2994L85.7052 26.6853L85.5639 29.0713L85.6815 31.4564L85.7912 33.8433L85.7777 36.2321L85.4226 38.5684L84.043 40.8485L86.5628 40.9094L89.0268 40.9562L92.526 40.6864L94.7428 40.691L96.9591 40.8101L99.1768 40.6226L101.396 40.9459L103.535 40.6508L102.997 38.5665L102.621 36.2546L102.618 36.2537ZM181.131 2.54437L178.462 4.82632L176.569 7.157L176.477 9.85509L176.684 12.5822L176.565 14.9757L176.384 17.3701L176.433 19.7645L176.695 22.158L176.595 24.5524L176.646 26.9449L176.468 29.3365L176.635 31.7309L176.472 34.2313L176.5 36.5179L176.329 38.5506L176.514 41.1962L176.533 43.6983L176.383 44.9738L175.816 43.9148L174.5 41.8147L173.58 39.7155L172.261 37.7906L171.361 35.6829L170.824 33.4216L169.924 31.3158L168.925 29.2522L167.782 27.2514L167.026 25.3855L166.152 23.575L165.374 21.8478L164.363 20.2649L163.405 18.1226L162.417 16.3139L162.207 18.2828L162.255 20.7082L162.173 22.2161V24.2244L162.075 26.6244L162.168 27.6637L162.131 31.4245L162.296 33.3672L162.214 36.5769L162.43 38.6068L163.716 40.7791L161.771 40.7932L160.06 40.6761L157.639 40.8222L155.57 40.7913L156.691 38.5459L156.85 36.2443L156.778 33.8677L156.966 31.1659L156.695 29.121L156.755 26.7472L156.854 24.3734L157.085 22.0005L156.895 19.6276L157.164 17.2548L157.007 14.8838L156.881 13.748L157.099 10.1147L156.815 7.7774L155.567 5.59852H163.916L162.543 7.75868L163.316 9.35746L164.382 11.2524L165.117 13.1801L165.983 14.8388L166.877 17.2108L168.084 19.2969L169.159 21.4027L170.305 23.4962L171.434 25.6976L172.53 28.121L172.198 25.7519L172.523 23.4869L172.423 21.2236L172.252 18.9623L172.18 16.9746L172.358 14.3562L172.439 12.1755L172.223 9.68824L172.294 7.45504L170.551 5.32487L174.19 4.73915L176.695 3.84888L178.753 3.42247L181.131 2.54437ZM91.0809 16.0234L91.0405 14.8145L90.8927 12.4125L90.8606 10.0088L90.8545 7.54405L92.4995 5.59949H84.1206L85.5146 7.62744L85.7317 9.99L85.6508 12.3751L85.4798 14.761L85.5383 15.7741L88.3101 15.9409L91.0809 16.0243V16.0234ZM80.0915 14.7882L80.2184 13.7302L80.1385 11.466L80.1273 9.92721L80.4197 7.65932L80.2663 5.59852H62.2567L63.4434 7.2507L63.7813 7.60872L63.7901 7.60403V7.61714L64.2429 8.09793L63.9519 8.48498L63.8204 8.82887L63.9719 10.7547L63.6642 11.9224L63.6679 12.5306L63.6377 14.731L63.6158 16.0196L67.0751 15.9156L69.2969 15.7357L69.4168 14.6598L69.2267 12.3095L69.3676 9.95721L69.2193 8.33124L68.6499 7.51405H69.1445L71.8079 7.49533L74.3886 7.55062L76.9521 7.62933L77.7837 9.88788L78.4814 11.452L79.1698 13.0142L80.0906 14.7873L80.0915 14.7882ZM47.162 14.4096L46.9454 13.8576L46.0219 12.3179L45.6942 11.0612L45.1033 9.96378L43.9556 7.58342L45.4707 5.59949H35.8561L37.9602 7.59842L38.0284 7.66401L38.0568 7.71461L39.5711 9.52706L39.7548 11.6413L40.8798 13.4322L42.0436 16.908L44.7833 16.7112L47.4367 16.4151L47.162 14.4115V14.4096ZM53.6128 16.5604L53.697 16.357L54.6354 14.2606L55.6329 12.0911L56.2633 9.77353L56.4036 9.42489L56.5844 7.95736L57.5011 7.24978L59.5184 5.5976H53.1647L53.7351 7.60122L52.7803 9.84193L52.1254 12.2186L51.0079 14.4124L50.1062 16.2445L52.0189 16.5285L53.6119 16.5604H53.6128ZM140.35 5.30803L142.658 5.0859L142.657 5.08686L144.938 5.41204L145.541 5.60041L147.166 6.10645L148.833 7.73711L148.856 7.77179L149.617 9.77164C149.617 9.77164 149.993 10.0781 150.419 10.4127L151.028 11.7537L151.652 13.9588L152.156 16.1977L152.556 18.4656L152.615 20.7654L152.728 23.0623L152.367 25.3518L152.315 27.6394L152.183 29.9317L151.828 32.2061L151.528 33.2632L150.436 34.5715L150.606 35.4055L149.999 36.4092L148.67 38.2451L147.144 39.8176L144.848 41.0856L142.675 41.2918L140.317 41.0415L138.208 39.7783L136.632 38.2592L135.088 36.5357L134.847 35.816L135.14 35.3043L134.256 34.0954L133.489 32.207L133.295 29.9054L132.927 27.6431L132.683 25.3583L132.688 23.0614L132.937 20.771L133.065 18.4891L133.039 16.1771L133.694 13.9663L134.383 11.7903L134.792 10.5279L135.65 9.8532L136.228 8.05106L136.467 7.72588L138.258 6.27514L139.721 5.59852L140.35 5.30803ZM146.782 17.7834L146.765 15.1425L146.767 15.1434L146.323 12.5428L144.86 10.3021L142.66 6.29763L140.45 10.2918L139.021 12.5494L138.633 15.1556L138.465 17.7787L138.304 20.4008L138.255 22.0521L135.641 23.6059L138.272 25.468L138.304 28.5128L138.546 31.1359L139.273 33.6624L140.402 36.0334L142.659 40.5093L144.931 36.0484L146.136 33.6849L146.494 31.0918L147.05 28.5147L147.235 25.8831L147.203 25.0425L149.397 23.4025L147.25 21.904L147.166 20.3914L146.782 17.7834ZM80.1887 16.6091L78.7222 16.6232L74.8799 16.343L74.5136 12.5672L74.1804 8.82607L73.3818 12.6449L72.3243 16.1967L70.0867 16.4254L69.2979 16.4995L64.2331 16.6916L63.7465 16.7365L62.2883 16.7047L58.3921 16.9737L53.9944 17.3776L53.5826 17.3495L50.0862 17.1049L49.5675 17.0683L48.3952 17.1321L42.6147 17.5584L40.7633 17.7403L36.5152 17.8049L39.7955 18.0542L40.7529 18.1273L45.1658 18.1648L49.5749 18.2885L53.9889 18.3447L58.4038 18.3625L62.2902 18.3006L66.1556 18.8245L70.0392 18.862L72.5023 19.0054L72.5279 19.1375L73.2163 22.7165L73.6983 26.6769L74.4853 22.7643L75.0212 19.1469L78.7133 18.6287L82.5565 18.5818L84.4674 18.5247L86.3973 18.4665L90.187 17.9174H90.9419L90.9428 17.9146L94.0139 17.9174L99.5481 17.6325L94.0762 17.2005L90.9814 17.0102L86.0706 16.8293L85.5044 16.819L82.5732 16.5857L80.2477 16.6082L80.1887 16.6091ZM141.944 17.5603C142.029 17.5481 142.118 17.52 142.192 17.4788C142.394 17.3691 142.538 17.1958 142.671 17.014C142.81 16.8256 142.987 16.6888 143.22 16.6316C143.361 16.5969 143.472 16.6428 143.543 16.7665C143.579 16.8284 143.615 16.8902 143.654 16.9502C143.695 17.014 143.756 17.044 143.831 17.044C143.93 17.044 144.009 16.998 144.067 16.9268C144.147 16.8293 144.223 16.7281 144.292 16.6232C144.406 16.4461 144.525 16.2614 144.547 16.0515C144.578 15.7619 144.59 15.4667 144.574 15.1762C144.559 14.9082 144.495 14.6392 144.361 14.4012C144.231 14.1716 144.085 13.9485 143.928 13.7367C143.786 13.5446 143.617 13.3741 143.419 13.2335C143.247 13.1126 143.105 12.9636 143.004 12.7809C142.79 12.3947 142.704 11.9814 142.75 11.541C142.757 11.4799 142.74 11.4151 142.723 11.3532L142.717 11.3311C142.711 11.3086 142.676 11.2842 142.652 11.2805C142.635 11.2777 142.602 11.3048 142.593 11.3255C142.576 11.366 142.559 11.4063 142.541 11.4467C142.49 11.565 142.439 11.6833 142.408 11.8062C142.348 12.0489 142.298 12.2973 142.272 12.5456C142.249 12.7612 142.228 12.9898 142.277 13.196C142.323 13.393 142.414 13.581 142.505 13.7672L142.506 13.7691C142.528 13.8143 142.55 13.8594 142.571 13.9045C142.592 13.9495 142.614 13.9941 142.636 14.0387C142.725 14.2169 142.813 14.3952 142.847 14.5952C142.889 14.8482 142.885 15.0984 142.81 15.3421C142.708 15.6767 142.492 15.9325 142.206 16.1311C142.077 16.2202 141.924 16.2361 141.774 16.2342C141.648 16.2324 141.531 16.103 141.527 15.985C141.525 15.8781 141.595 15.8191 141.75 15.7985C141.757 15.7976 141.765 15.7964 141.773 15.7952C141.781 15.794 141.789 15.7929 141.796 15.7919C141.895 15.7769 141.948 15.7273 141.965 15.6279C141.971 15.5875 141.975 15.547 141.978 15.5062V15.505C141.979 15.4923 141.98 15.4796 141.981 15.4667C142.02 15.0313 141.908 14.6153 141.797 14.2021L141.795 14.1931C141.747 14.018 141.677 13.8489 141.606 13.68L141.606 13.6787C141.585 13.6275 141.563 13.5763 141.543 13.525C141.52 13.47 141.491 13.4187 141.462 13.3672C141.448 13.344 141.435 13.3208 141.422 13.2972C141.411 13.2991 141.399 13.3009 141.387 13.3028C141.387 13.3157 141.386 13.3285 141.386 13.3414C141.386 13.3615 141.385 13.3817 141.384 13.4018C141.38 13.4716 141.377 13.5416 141.383 13.6102C141.403 13.852 141.387 14.0938 141.305 14.3178C141.22 14.5507 141.112 14.776 141.004 15.0011C140.987 15.0356 140.971 15.0702 140.954 15.1048C140.948 15.1186 140.941 15.1324 140.935 15.1462C140.77 15.492 140.63 15.8416 140.619 16.2314C140.61 16.551 140.685 16.8396 140.878 17.0992C141.144 17.4572 141.494 17.625 141.943 17.5622L141.944 17.5603ZM141.531 22.7634C141.26 22.6434 141.068 22.4391 140.898 22.2067H140.9C140.765 22.023 140.681 21.8206 140.627 21.6013C140.578 21.4036 140.544 21.2058 140.558 20.9978C140.53 20.6004 140.653 20.2368 140.842 19.891C140.894 19.7964 140.964 19.7138 141.034 19.6314L141.051 19.6117C141.244 19.3859 141.468 19.1947 141.741 19.0691C141.999 18.9501 142.271 18.877 142.56 18.8611C142.909 18.8414 143.243 18.8995 143.561 19.0363C143.877 19.1713 144.144 19.3718 144.347 19.6529C144.447 19.7898 144.527 19.9351 144.585 20.0916C144.643 20.249 144.66 20.4158 144.643 20.5836C144.613 20.8778 144.459 21.1055 144.246 21.2995C144.193 21.3473 144.125 21.3755 144.058 21.3961C143.769 21.487 143.498 21.4486 143.238 21.2892C143.043 21.1693 142.944 20.9912 142.877 20.7869C142.827 20.6389 142.767 20.4964 142.665 20.3774C142.502 20.1881 142.297 20.0625 142.045 20.0307C141.957 20.0194 141.881 20.0728 141.817 20.129C141.583 20.3371 141.476 20.6023 141.466 20.9125C141.458 21.1402 141.507 21.3558 141.616 21.5498C141.73 21.755 141.882 21.9368 142.076 22.0802C142.29 22.2386 142.539 22.3004 142.794 22.3379C143.15 22.3913 143.498 22.3529 143.833 22.2189C143.937 22.1767 144.033 22.1224 144.127 22.0615C144.13 22.0596 144.133 22.0571 144.136 22.0546C144.146 22.0465 144.156 22.0376 144.168 22.0483C144.18 22.0585 144.173 22.0709 144.167 22.0825C144.165 22.0859 144.163 22.0892 144.162 22.0924C144.087 22.2686 143.954 22.396 143.81 22.515C143.589 22.6968 143.349 22.843 143.069 22.918C142.761 23.0005 142.449 23.0108 142.136 22.9414C141.931 22.8955 141.725 22.8487 141.531 22.7634ZM141.066 26.0949C140.872 26.4295 140.649 26.7397 140.357 26.9965L140.356 26.9984C140.27 27.0736 140.177 27.1402 140.085 27.2068L140.084 27.207C140.058 27.2258 140.032 27.2446 140.006 27.2636L139.999 27.2686C139.981 27.2828 139.96 27.2993 139.925 27.2926C140.064 27.0646 140.17 26.8242 140.275 26.5847C140.323 26.4749 140.371 26.3652 140.422 26.2571C140.447 26.2061 140.47 26.155 140.494 26.1038L140.495 26.1029L140.495 26.102V26.1011C140.626 25.8226 140.756 25.5441 140.922 25.2843C141.105 24.9985 141.324 24.7408 141.631 24.5805C141.885 24.4484 142.145 24.3209 142.433 24.2881C142.782 24.2478 143.131 24.2741 143.439 24.4652C143.694 24.6245 143.896 24.8429 144.024 25.1203C144.14 25.3743 144.202 25.6423 144.183 25.9206C144.153 26.3714 144.012 26.78 143.645 27.0762C143.427 27.2523 143.178 27.3685 142.889 27.391C142.703 27.4051 142.519 27.4079 142.338 27.3591C142.002 27.2682 141.739 27.0799 141.578 26.7697C141.482 26.5851 141.47 26.3883 141.526 26.1868C141.582 25.9881 141.675 25.8129 141.834 25.6751C142.116 25.4314 142.455 25.3715 142.765 25.5158C142.925 25.5898 143.025 25.7285 143.026 25.9187C143.027 26.0387 143.02 26.154 142.951 26.2599C142.83 26.4454 142.594 26.4239 142.464 26.3405C142.391 26.2927 142.387 26.2168 142.396 26.139C142.398 26.1221 142.401 26.1006 142.42 26.0996C142.445 26.0988 142.444 26.1184 142.444 26.1341C142.444 26.1368 142.443 26.1395 142.443 26.1418C142.441 26.2468 142.561 26.2974 142.635 26.2833C142.741 26.2627 142.836 26.1456 142.849 26.0396C142.868 25.8869 142.719 25.7688 142.598 25.736C142.384 25.6779 142.208 25.7566 142.071 25.9169C141.858 26.1652 141.87 26.496 142.11 26.7209C142.242 26.8447 142.415 26.9065 142.602 26.9262C142.978 26.9665 143.233 26.7097 143.369 26.4351C143.479 26.2112 143.47 25.9768 143.421 25.7398C143.39 25.5861 143.342 25.4436 143.218 25.3358C143.031 25.1728 142.812 25.0884 142.566 25.065C142.364 25.0463 142.162 25.0538 141.973 25.1353C141.776 25.2206 141.59 25.3208 141.453 25.4971C141.308 25.6864 141.186 25.8897 141.066 26.0949ZM143.616 32.9703L143.561 32.9989L143.562 32.997C143.195 33.192 142.981 33.6034 143.073 34.0054C143.076 34.0166 143.077 34.0286 143.079 34.0406L143.08 34.049L143.081 34.0589H143.084C143.084 34.0589 143.301 35.0785 142.333 35.5761C142.333 35.5761 142.629 34.9201 142.26 34.2772C141.923 33.8339 141.54 33.2819 141.462 32.9633C141.407 32.7393 141.6 32.4319 141.876 32.118C141.935 31.9484 142.013 31.64 141.871 31.4629C141.752 31.3143 141.582 31.286 141.442 31.2626C141.344 31.2462 141.261 31.2323 141.22 31.1809L141.204 31.1609C141.111 31.0463 141.032 30.9479 141.165 30.7263C141.165 30.7263 141.149 31.0131 141.358 31.0328C141.383 31.0352 141.419 31.036 141.461 31.0369C141.74 31.0427 142.319 31.0549 142.376 31.6072C142.475 31.5132 142.573 31.4226 142.665 31.3379C142.89 31.1296 143.078 30.9566 143.149 30.8547C143.391 30.508 143.43 29.9963 142.958 29.538C142.958 29.538 143.696 29.8895 143.744 30.4996C143.765 30.786 143.444 31.2029 143.113 31.6314C142.739 32.1154 142.354 32.6143 142.44 32.9567C142.453 33.0083 142.471 33.057 142.492 33.1057C142.575 33.0167 142.687 32.9108 142.833 32.8115C142.999 32.6998 143.219 32.6583 143.424 32.6198C143.647 32.5779 143.852 32.5396 143.944 32.4179C144.121 32.1845 143.817 31.6916 143.817 31.6916C143.817 31.6916 144.251 31.8837 144.191 32.4694C144.17 32.6803 143.907 32.8181 143.616 32.9703ZM145.973 27.9271L145.962 27.9255C145.912 27.9186 145.861 27.9116 145.813 27.8924C145.633 27.8174 145.463 27.719 145.302 27.6103C145.045 27.436 144.834 27.213 144.646 26.9684C144.605 26.916 144.57 26.8606 144.535 26.8053C144.511 26.7675 144.487 26.7297 144.461 26.6928C144.43 26.6478 144.411 26.6507 144.389 26.7022L144.386 26.7097C144.384 26.7145 144.382 26.7195 144.38 26.7244C144.378 26.731 144.376 26.7376 144.373 26.7442C144.36 26.779 144.348 26.814 144.326 26.8447C144.275 26.9139 144.225 26.9835 144.174 27.0518C143.948 27.3554 143.645 27.5588 143.295 27.6975C143.046 27.7959 142.788 27.8062 142.525 27.779C142.232 27.7481 141.967 27.6506 141.728 27.4763C141.515 27.3207 141.327 27.1474 141.226 26.8981C141.215 26.8686 141.196 26.8419 141.178 26.8155C141.173 26.8074 141.167 26.7993 141.162 26.7912C141.152 26.7772 141.138 26.7669 141.118 26.7715C141.098 26.7772 141.095 26.794 141.094 26.8109C141.093 26.8277 141.092 26.8448 141.093 26.8606C141.096 26.9612 141.114 27.0592 141.132 27.1573C141.142 27.2064 141.151 27.2554 141.158 27.3048C141.193 27.5391 141.263 27.7547 141.423 27.9402C141.67 28.2241 141.967 28.4116 142.342 28.48C142.517 28.5119 142.693 28.5166 142.869 28.5119C143.113 28.5053 143.347 28.4463 143.564 28.3479C143.891 28.1998 144.155 27.9683 144.375 27.6881C144.435 27.6122 144.477 27.6075 144.545 27.6759C144.6 27.7331 144.664 27.7828 144.731 27.824C144.973 27.9711 145.239 28.0395 145.539 28.0489L145.56 28.0471C145.592 28.0445 145.632 28.0412 145.672 28.0367C145.774 28.0255 145.876 28.0086 145.975 27.9777L145.98 27.9764L145.987 27.9748C146.005 27.9706 146.025 27.9658 146.025 27.9467C146.024 27.9254 146.007 27.9263 145.991 27.9272C145.985 27.9275 145.979 27.9278 145.973 27.9271Z" fill="white"/>
</svg>
