<svg width="151" height="41" viewBox="0 0 151 41" fill="none" xmlns="http://www.w3.org/2000/svg">
<g clip-path="url(#clip0_3728_16174)">
<path d="M150.718 12.7251C150.718 5.82244 145.044 0.26664 138.245 0.26664H109.253C102.286 0.26664 96.7797 5.82244 96.7797 12.7251V27.9334C96.7797 29.4486 95.5436 30.7393 93.9704 30.7393C92.3972 30.7393 91.2173 29.4486 91.2173 27.9334V12.7251C91.2173 5.82244 85.5987 0.26664 78.744 0.26664H72.1702C65.3155 0.26664 59.6969 5.82244 59.6969 12.7251V27.9334C59.6969 29.4486 58.517 30.7393 56.9438 30.7393C55.3706 30.7393 54.1345 29.4486 54.1345 27.9334V12.7251C54.1345 5.82244 48.5159 0.26664 41.6612 0.26664H12.613C5.75834 0.26664 0.195923 5.82244 0.195923 12.7251V40.3357H13.1187V25.0713H32.2782C34.9189 25.0713 37.054 22.9949 37.054 20.3012C37.054 17.6075 34.9189 15.4749 32.2782 15.4749H13.1187V12.7251C13.1187 11.1538 14.3548 9.86301 15.928 9.86301H38.4586C39.9195 9.86301 41.2117 11.1538 41.2117 12.7251V27.9334C41.2117 34.7799 46.7742 40.3357 53.685 40.3357H60.2588C67.1135 40.3357 72.6197 34.7799 72.6197 27.9334V12.7251C72.6197 11.1538 73.912 9.86301 75.429 9.86301C77.0023 9.86301 78.2945 11.1538 78.2945 12.7251V27.9334C78.2945 34.7799 83.8008 40.3357 90.6555 40.3357H97.2292C104.14 40.3357 109.703 34.7799 109.703 27.9334V12.7251C109.703 11.1538 110.882 9.86301 112.456 9.86301H134.986C136.503 9.86301 137.796 11.1538 137.796 12.7251C137.796 14.1842 136.503 15.4749 134.986 15.4749H118.636C115.995 15.4749 113.86 17.6075 113.86 20.3012C113.86 22.9949 115.995 25.0713 118.636 25.0713H134.986C136.503 25.0713 137.796 26.362 137.796 27.9334C137.796 29.4486 136.503 30.7393 134.986 30.7393H118.636C115.995 30.7393 113.86 32.8718 113.86 35.5094C113.86 38.2032 115.995 40.3357 118.636 40.3357H138.245C145.044 40.3357 150.718 34.7799 150.718 27.9334C150.718 25.0152 149.707 22.4337 148.021 20.3012C149.707 18.1686 150.718 15.5872 150.718 12.7251Z" fill="white"/>
</g>
<defs>
<clipPath id="clip0_3728_16174">
<rect width="151" height="40.3356" fill="white"/>
</clipPath>
</defs>
</svg>
