<svg width="333" height="256" viewBox="0 0 333 256" fill="none" xmlns="http://www.w3.org/2000/svg">
<rect width="333" height="256" fill="black"/>
<g clip-path="url(#clip0_3521_17523)">
<path d="M233 121.193C233 114.992 227.986 110 221.979 110H196.362C190.206 110 185.34 114.992 185.34 121.193V134.857C185.34 136.218 184.248 137.378 182.858 137.378C181.468 137.378 180.425 136.218 180.425 134.857V121.193C180.425 114.992 175.461 110 169.404 110H163.596C157.539 110 152.575 114.992 152.575 121.193V134.857C152.575 136.218 151.532 137.378 150.142 137.378C148.752 137.378 147.66 136.218 147.66 134.857V121.193C147.66 114.992 142.695 110 136.638 110H110.972C104.915 110 100 114.992 100 121.193V146H111.418V132.286H128.348C130.681 132.286 132.567 130.42 132.567 128C132.567 125.58 130.681 123.664 128.348 123.664H111.418V121.193C111.418 119.782 112.511 118.622 113.901 118.622H133.808C135.099 118.622 136.241 119.782 136.241 121.193V134.857C136.241 141.008 141.156 146 147.262 146H153.071C159.128 146 163.993 141.008 163.993 134.857V121.193C163.993 119.782 165.135 118.622 166.475 118.622C167.865 118.622 169.007 119.782 169.007 121.193V134.857C169.007 141.008 173.872 146 179.929 146H185.738C191.844 146 196.759 141.008 196.759 134.857V121.193C196.759 119.782 197.801 118.622 199.191 118.622H219.099C220.44 118.622 221.582 119.782 221.582 121.193C221.582 122.504 220.44 123.664 219.099 123.664H204.652C202.319 123.664 200.433 125.58 200.433 128C200.433 130.42 202.319 132.286 204.652 132.286H219.099C220.44 132.286 221.582 133.445 221.582 134.857C221.582 136.218 220.44 137.378 219.099 137.378H204.652C202.319 137.378 200.433 139.294 200.433 141.664C200.433 144.084 202.319 146 204.652 146H221.979C227.986 146 233 141.008 233 134.857C233 132.235 232.106 129.916 230.617 128C232.106 126.084 233 123.765 233 121.193Z" fill="white"/>
</g>
<defs>
<clipPath id="clip0_3521_17523">
<rect width="133" height="36" fill="white" transform="translate(100 110)"/>
</clipPath>
</defs>
</svg>
