<svg width="333" height="256" viewBox="0 0 333 256" fill="none" xmlns="http://www.w3.org/2000/svg">
<rect width="333" height="256" fill="black"/>
<g clip-path="url(#clip0_3521_17126)">
<path d="M146.878 138.756V127.003L141.739 138.756H138.908L133.798 127.018V138.756H129.889V118.34H134.457L140.379 131.791L146.301 118.34H150.868V138.756H146.878Z" fill="white"/>
<path fill-rule="evenodd" clip-rule="evenodd" d="M169.54 138.756L167.604 133.777H160.313L158.377 138.756H154.193L161.926 118.34H166.045L173.778 138.756H169.54ZM163.945 123.924L161.674 129.875H166.216L163.945 123.924Z" fill="white"/>
<path d="M189.762 138.756L181.049 126.16V138.756H177.087V118.34H180.779L189.358 130.628V118.34H193.293V138.756H189.762Z" fill="white"/>
<path d="M198.968 138.756V118.34H203.012V138.756H198.968Z" fill="white"/>
<path d="M208.679 138.756V118.34H222.049V122.214H212.723V126.937H221.013V130.839H212.723V138.756H208.679Z" fill="white"/>
<path fill-rule="evenodd" clip-rule="evenodd" d="M225.836 135.023L225.835 135.016C225.54 133.683 225.406 131.506 225.406 128.548C225.406 125.591 225.54 123.421 225.835 122.105L225.836 122.1L225.837 122.096C226.18 120.641 226.995 119.551 228.291 118.938C229.512 118.362 231.443 118.122 233.945 118.122C236.429 118.122 238.349 118.361 239.569 118.937C240.883 119.549 241.702 120.639 242.027 122.1C242.342 123.423 242.484 125.596 242.484 128.548C242.484 131.503 242.341 133.685 242.026 135.023C241.7 136.471 240.879 137.549 239.569 138.158C238.349 138.734 236.429 138.973 233.945 138.973C231.443 138.973 229.512 138.734 228.291 138.157C226.999 137.547 226.182 136.469 225.838 135.03L225.836 135.023ZM233.945 135.099C235.813 135.099 236.924 134.974 237.42 134.796C237.697 134.696 237.993 134.429 238.158 133.65C238.338 132.806 238.44 131.131 238.44 128.548C238.44 125.965 238.338 124.29 238.158 123.446C237.993 122.667 237.697 122.4 237.42 122.3C236.924 122.121 235.813 121.997 233.945 121.997C232.085 121.997 230.96 122.12 230.44 122.301C230.164 122.402 229.869 122.67 229.704 123.446C229.525 124.29 229.423 125.965 229.423 128.548C229.423 131.131 229.525 132.806 229.704 133.65C229.869 134.426 230.164 134.694 230.44 134.795C230.96 134.976 232.085 135.099 233.945 135.099Z" fill="white"/>
<path d="M247.514 118.34H251.559V134.8H260.312V138.756H247.514V118.34Z" fill="white"/>
<path fill-rule="evenodd" clip-rule="evenodd" d="M264.096 118.34H270.917C273.522 118.34 275.513 118.57 276.762 119.117C278.096 119.683 278.947 120.734 279.296 122.172C279.614 123.477 279.757 125.627 279.757 128.548C279.757 131.469 279.614 133.618 279.296 134.924C278.947 136.362 278.097 137.419 276.768 138.004L276.762 138.006L276.757 138.009C275.513 138.534 273.524 138.756 270.917 138.756H264.096V118.34ZM275.41 123.612L275.408 123.604C275.245 122.922 274.94 122.648 274.551 122.534L274.539 122.53L274.527 122.526C273.946 122.338 272.66 122.214 270.535 122.214H268.14V134.881H270.535C272.67 134.881 273.973 134.768 274.566 134.593C274.973 134.462 275.275 134.172 275.436 133.518C275.627 132.722 275.739 131.096 275.739 128.548C275.739 126.017 275.617 124.407 275.412 123.62L275.41 123.612Z" fill="white"/>
<path d="M54 116.002L62.4914 124.531L92.7152 124.53L84.3684 132.913L80.3039 128.831H67.0348L79.1505 141H92.4195L88.1362 136.698H93.8696L105.985 124.529L105.985 124.529L97.4938 116L54 116.002Z" fill="white"/>
</g>
<defs>
<clipPath id="clip0_3521_17126">
<rect width="226" height="25" fill="white" transform="translate(54 116)"/>
</clipPath>
</defs>
</svg>
