<svg width="226" height="25" viewBox="0 0 226 25" fill="none" xmlns="http://www.w3.org/2000/svg">
<g clip-path="url(#clip0_3728_16510)">
<path d="M92.8777 22.7558V11.0029L87.7392 22.7558H84.9082L79.7976 11.0177V22.7558H75.8894V2.33997H80.4569L86.3787 15.7907L92.3005 2.33997H96.8678V22.7558H92.8777Z" fill="white"/>
<path fill-rule="evenodd" clip-rule="evenodd" d="M115.54 22.7558L113.604 17.777H106.313L104.377 22.7558H100.193L107.926 2.33997H112.045L119.778 22.7558H115.54ZM109.945 7.92377L107.674 13.8755H112.216L109.945 7.92377Z" fill="white"/>
<path d="M135.762 22.7558L127.049 10.1603V22.7558H123.087V2.33997H126.779L135.358 14.6281V2.33997H139.293V22.7558H135.762Z" fill="white"/>
<path d="M144.968 22.7558V2.33997H149.012V22.7558H144.968Z" fill="white"/>
<path d="M154.679 22.7558V2.33997H168.049V6.21427H158.723V10.9372H167.013V14.8387H158.723V22.7558H154.679Z" fill="white"/>
<path fill-rule="evenodd" clip-rule="evenodd" d="M171.836 19.0229L171.835 19.0157C171.54 17.6833 171.406 15.5061 171.406 12.5479C171.406 9.59072 171.54 7.42075 171.835 6.1047L171.836 6.1002L171.837 6.09572C172.18 4.64142 172.995 3.55135 174.291 2.93842C175.512 2.36155 177.443 2.12231 179.945 2.12231C182.429 2.12231 184.349 2.36147 185.569 2.93732C186.883 3.54862 187.702 4.63937 188.027 6.10047C188.342 7.42332 188.484 9.59607 188.484 12.5479C188.484 15.5035 188.341 17.6846 188.026 19.0233C187.7 20.4706 186.879 21.5491 185.569 22.1584C184.349 22.7343 182.429 22.9735 179.945 22.9735C177.443 22.9735 175.512 22.7342 174.291 22.1574C172.999 21.5466 172.182 20.4695 171.838 19.03L171.836 19.0229ZM179.945 19.0991C181.813 19.0991 182.924 18.9744 183.42 18.7958C183.697 18.696 183.993 18.4289 184.158 17.65C184.338 16.8057 184.44 15.1308 184.44 12.5479C184.44 9.96492 184.338 8.2901 184.158 7.44575C183.993 6.66687 183.697 6.39977 183.42 6.29997C182.924 6.12135 181.813 5.99662 179.945 5.99662C178.085 5.99662 176.96 6.1201 176.44 6.30115C176.164 6.40187 175.869 6.66992 175.704 7.44575C175.525 8.2901 175.423 9.96492 175.423 12.5479C175.423 15.1308 175.525 16.8057 175.704 17.65C175.869 18.4259 176.164 18.6939 176.44 18.7946C176.96 18.9757 178.085 19.0991 179.945 19.0991Z" fill="white"/>
<path d="M193.514 2.33997H197.559V18.7999H206.312V22.7558H193.514V2.33997Z" fill="white"/>
<path fill-rule="evenodd" clip-rule="evenodd" d="M210.096 2.33997H216.917C219.522 2.33997 221.513 2.5696 222.762 3.1169C224.096 3.68262 224.947 4.73355 225.296 6.17177C225.614 7.4773 225.757 9.6269 225.757 12.5479C225.757 15.4689 225.614 17.6185 225.296 18.924C224.947 20.3624 224.097 21.4193 222.768 22.0037L222.762 22.0062L222.757 22.0085C221.513 22.5344 219.524 22.7558 216.917 22.7558H210.096V2.33997ZM221.41 7.612L221.408 7.60422C221.245 6.9225 220.94 6.64755 220.551 6.53387L220.539 6.53037L220.527 6.5265C219.946 6.3382 218.66 6.21427 216.535 6.21427H214.14V18.8815H216.535C218.67 18.8815 219.973 18.7681 220.566 18.5926C220.973 18.4622 221.275 18.1716 221.436 17.5176C221.627 16.7219 221.739 15.0959 221.739 12.5479C221.739 10.0168 221.617 8.40692 221.412 7.61975L221.41 7.612Z" fill="white"/>
<path d="M0 0.00222897L8.49135 8.53115L38.7152 8.5296L30.3684 16.9133L26.3039 12.8308H13.0348L25.1505 25H38.4195L34.1362 20.6978H39.8696L51.985 8.52892L51.9852 8.52865L43.4938 0L0 0.00222897Z" fill="white"/>
</g>
<defs>
<clipPath id="clip0_3728_16510">
<rect width="226" height="25" fill="white"/>
</clipPath>
</defs>
</svg>
