<svg width="333" height="256" viewBox="0 0 333 256" fill="none" xmlns="http://www.w3.org/2000/svg">
<rect width="333" height="256" fill="#171717"/>
<g clip-path="url(#clip0_3521_17281)">
<mask id="mask0_3521_17281" style="mask-type:luminance" maskUnits="userSpaceOnUse" x="65" y="56" width="203" height="135">
<path d="M65 56H268V191H65V56Z" fill="white"/>
</mask>
<g mask="url(#mask0_3521_17281)">
<path d="M120.52 136.955C120.52 136.955 131.719 135.696 140.452 128.477C148.77 121.637 151.773 115.745 153.846 109.065C155.919 102.384 156.238 86.319 156.238 81.5473V68.5041H151.07C151.07 68.5041 151.068 69.8208 151.068 73.3332C150.975 80.5662 150.35 94.3165 147.024 103.258C139 124.831 120.52 126.72 120.52 126.72V136.955Z" fill="white"/>
<path d="M205.783 136.955C205.783 136.955 194.583 135.696 185.852 128.477C177.533 121.637 174.529 115.745 172.457 109.065C170.384 102.384 170.067 86.319 170.067 81.5473V68.5041H175.233C175.233 68.5041 175.235 69.8208 175.235 73.3332C175.328 80.5662 175.951 94.3165 179.279 103.258C187.303 124.831 205.783 126.72 205.783 126.72V136.955Z" fill="white"/>
<path d="M167.927 136.955H158.379V68.5042H167.927V136.955Z" fill="white"/>
<path d="M155.387 142.331H137.682V147.065H144.194V173.607H148.847V147.065H155.387V142.331Z" fill="white"/>
<path d="M205.665 173.607H200.738V142.33H205.665V173.607Z" fill="white"/>
<path d="M125.893 161.306L129.37 149.356L132.848 161.306H125.893ZM133.026 145.287C132.568 143.488 131.186 142.279 129.372 142.279C127.794 142.279 126.447 143.258 125.906 144.639H125.903L125.899 144.657C125.824 144.853 117.473 173.607 117.473 173.607H122.308L124.607 165.725H134.134L136.417 173.597L141.29 173.598L133.026 145.287Z" fill="white"/>
<path d="M160.528 161.306L163.996 149.356L167.464 161.306H160.528ZM167.643 145.288C167.184 143.488 165.803 142.279 163.997 142.279C162.429 142.279 161.081 143.258 160.54 144.639H160.538L160.534 144.657C160.459 144.853 152.107 173.607 152.107 173.607H156.943L159.242 165.725H168.751L171.029 173.597L175.902 173.599L167.643 145.288Z" fill="white"/>
<path d="M196.511 150.568C196.511 150.568 196.643 151.702 196.321 153.979C195.668 157.621 193.389 159.083 192.435 159.639C191.483 160.196 190.948 160.579 190.948 160.579C190.665 160.796 190.482 161.136 190.482 161.519C190.482 161.675 190.49 162.083 190.777 162.519C190.777 162.519 191.108 162.985 192.062 164.446C193.016 165.907 198.211 173.607 198.211 173.607H192.707L185.605 162.884C184.793 161.697 184.793 160.87 184.793 160.41C184.793 158.853 185.65 157.823 186.993 157.255C186.993 157.255 191.878 155.672 191.878 151.869C191.878 150.939 191.765 150.473 191.627 149.899C191.272 148.433 189.77 147.037 187.961 147.037L184.221 147.047C183.63 147.047 183.151 147.525 183.151 148.113V173.607H178.456V146.298C178.456 144.108 180.217 142.331 182.387 142.331H187.852C192.64 142.331 196.521 146.203 196.521 150.978" fill="white"/>
<path d="M209.285 171.719H209.663C209.844 171.719 209.968 171.693 210.034 171.638C210.1 171.586 210.132 171.513 210.132 171.426C210.132 171.368 210.117 171.318 210.085 171.273C210.051 171.227 210.009 171.194 209.953 171.172C209.897 171.15 209.792 171.138 209.639 171.138H209.285V171.719ZM208.973 172.806V170.875H209.637C209.864 170.875 210.027 170.895 210.129 170.93C210.231 170.966 210.312 171.028 210.372 171.118C210.434 171.206 210.463 171.299 210.463 171.399C210.463 171.541 210.412 171.664 210.312 171.768C210.211 171.871 210.077 171.931 209.91 171.942C209.979 171.973 210.034 172.006 210.075 172.045C210.153 172.123 210.248 172.25 210.36 172.428L210.596 172.806H210.214L210.044 172.503C209.909 172.261 209.8 172.113 209.717 172.052C209.661 172.009 209.576 171.986 209.468 171.986H209.285V172.806H208.973ZM209.761 170.319C209.508 170.319 209.263 170.383 209.023 170.512C208.786 170.64 208.599 170.824 208.462 171.064C208.329 171.305 208.26 171.556 208.26 171.815C208.26 172.072 208.327 172.323 208.458 172.559C208.591 172.795 208.776 172.978 209.015 173.112C209.253 173.245 209.502 173.31 209.761 173.31C210.019 173.31 210.268 173.245 210.506 173.112C210.745 172.978 210.93 172.795 211.061 172.559C211.192 172.323 211.259 172.072 211.259 171.815C211.259 171.556 211.192 171.305 211.057 171.064C210.924 170.824 210.737 170.64 210.496 170.512C210.257 170.383 210.011 170.319 209.761 170.319ZM209.761 170.022C210.062 170.022 210.357 170.097 210.644 170.251C210.932 170.407 211.155 170.629 211.315 170.916C211.475 171.204 211.556 171.505 211.556 171.815C211.556 172.125 211.476 172.422 211.32 172.707C211.161 172.992 210.94 173.213 210.655 173.369C210.369 173.526 210.072 173.607 209.761 173.607C209.45 173.607 209.151 173.526 208.865 173.369C208.582 173.213 208.358 172.992 208.2 172.707C208.041 172.422 207.963 172.125 207.963 171.815C207.963 171.505 208.043 171.204 208.204 170.916C208.365 170.629 208.589 170.407 208.877 170.251C209.166 170.097 209.459 170.022 209.761 170.022Z" fill="white"/>
</g>
</g>
<defs>
<clipPath id="clip0_3521_17281">
<rect width="203" height="135" fill="white" transform="translate(65 56)"/>
</clipPath>
</defs>
</svg>
