<svg width="61" height="49" viewBox="0 0 61 49" fill="none" xmlns="http://www.w3.org/2000/svg">
<path d="M0 49C0 49 8.01239 48.0983 14.2601 42.9307C20.2113 38.0349 22.3592 33.8169 23.8425 29.0349C25.3258 24.2523 25.554 12.7526 25.554 9.33684V0H21.8568C21.8568 0 21.855 0.942558 21.855 3.45683C21.7884 8.63453 21.3411 18.4775 18.9621 24.8785C13.2213 40.3206 0 41.6732 0 41.6732V49Z" fill="white"/>
<path d="M61.0001 49C61.0001 49 52.9877 48.0983 46.741 42.9307C40.7896 38.0349 38.6404 33.8169 37.1576 29.0349C35.6745 24.2523 35.4478 12.7526 35.4478 9.33684V0H39.1435C39.1435 0 39.1453 0.942558 39.1453 3.45683C39.2116 8.63453 39.6575 18.4775 42.0387 24.8785C47.779 40.3206 61.0001 41.6732 61.0001 41.6732V49Z" fill="white"/>
<path d="M33.9165 49H27.0859V3.05176e-05H33.9165V49Z" fill="white"/>
</svg>
