<svg xmlns="http://www.w3.org/2000/svg" width="1152" height="768"><defs><clipPath id="a" clipPathUnits="userSpaceOnUse"><path d="M0 576h864V0H0Z"/></clipPath></defs><g clip-path="url(#a)" transform="matrix(1.33333 0 0 -1.33333 0 768)"><path d="M0 0s47.666 5.374 84.834 36.175c35.404 29.181 48.182 54.322 57.006 82.824 8.824 28.506 10.182 97.049 10.182 117.408v55.651h-21.995s-.011-5.618-.011-20.604c-.396-30.861-3.057-89.529-17.21-127.681C78.654 51.732 0 43.67 0 43.67Z" style="fill:#000;fill-opacity:1;fill-rule:nonzero;stroke:none" transform="translate(236.303 230.591)"/><path d="M0 0s-47.666 5.374-84.828 36.175c-35.405 29.181-48.191 54.322-57.012 82.824-8.823 28.506-10.172 97.049-10.172 117.408v55.651h21.986s.011-5.618.011-20.604c.394-30.861 3.047-89.529 17.213-127.681C-78.653 51.732 0 43.67 0 43.67Z" style="fill:#000;fill-opacity:1;fill-rule:nonzero;stroke:none" transform="translate(599.195 230.591)"/><path d="M438.073 230.591h-40.635v292.058h40.635z" style="fill:#000;fill-opacity:1;fill-rule:nonzero;stroke:none"/><path d="M0 0h-75.357v-20.201h27.716v-113.244h19.804v113.244H0Z" style="fill:#000;fill-opacity:1;fill-rule:nonzero;stroke:none" transform="translate(384.703 207.656)"/><path d="M598.694 74.212h-20.969v133.445h20.969z" style="fill:#000;fill-opacity:1;fill-rule:nonzero;stroke:none"/><path d="m0 0 14.8 50.989L29.601 0Zm30.359 68.347c-1.951 7.679-7.831 12.837-15.552 12.837-6.716 0-12.451-4.178-14.754-10.071H.041l-.018-.075c-.316-.836-35.862-123.519-35.862-123.519h20.581l9.786 33.627h40.545l9.72-33.587 20.739-.005z" style="fill:#000;fill-opacity:1;fill-rule:nonzero;stroke:none" transform="translate(259.172 126.692)"/><path d="m0 0 14.76 50.989L29.521 0Zm30.281 68.347c-1.952 7.679-7.832 12.837-15.516 12.837-6.674 0-12.41-4.178-14.713-10.071H.044l-.021-.075C-.296 70.202-35.84-52.481-35.84-52.481h20.582l9.785 33.627h40.472l9.696-33.587 20.74-.005z" style="fill:#000;fill-opacity:1;fill-rule:nonzero;stroke:none" transform="translate(406.584 126.692)"/><path d="M0 0s.562-4.839-.809-14.553c-2.776-15.542-12.478-21.779-16.537-24.151-4.054-2.378-6.331-4.009-6.331-4.009a5.059 5.059 0 0 1-1.981-4.011c0-.667.032-2.407 1.253-4.268 0 0 1.411-1.99 5.471-8.221C-14.872-65.449 7.238-98.3 7.238-98.3H-16.19l-30.226 45.749c-3.457 5.067-3.457 8.596-3.457 10.556 0 6.646 3.65 11.04 9.364 13.461 0 0 20.79 6.756 20.79 22.98 0 3.969-.479 5.956-1.066 8.408-1.513 6.255-7.902 12.211-15.603 12.211l-15.919-.043a4.551 4.551 0 0 1-4.552-4.549V-98.3h-19.984V18.219c0 9.343 7.495 16.926 16.73 16.926h23.259C-16.476 35.145.043 18.624.043-1.749" style="fill:#000;fill-opacity:1;fill-rule:nonzero;stroke:none" transform="translate(559.73 172.511)"/><path d="M0 0h1.612c.769 0 1.299.11 1.577.343.281.225.418.535.418.907 0 .247-.062.461-.198.654a1.233 1.233 0 0 1-.563.428c-.241.097-.688.145-1.336.145H0Zm-1.325-4.638v8.239H1.5c.966 0 1.662-.085 2.096-.235a2.031 2.031 0 0 0 1.034-.801c.262-.375.385-.774.385-1.199 0-.608-.216-1.133-.642-1.575-.431-.442-1.002-.696-1.709-.744.292-.131.525-.271.702-.439.329-.332.736-.876 1.21-1.634l1.007-1.612H3.958l-.726 1.291c-.573 1.033-1.036 1.665-1.39 1.925-.238.182-.6.284-1.06.284H0v-3.5zM2.03 5.971c-1.077 0-2.121-.273-3.144-.822-1.009-.546-1.802-1.333-2.386-2.356-.567-1.029-.862-2.097-.862-3.205 0-1.096.287-2.164.846-3.171a6.055 6.055 0 0 1 2.37-2.362 6.418 6.418 0 0 1 3.176-.843c1.095 0 2.155.278 3.17.843a6.022 6.022 0 0 1 2.362 2.362c.557 1.007.843 2.075.843 3.171 0 1.108-.286 2.176-.862 3.205a5.786 5.786 0 0 1-2.386 2.356c-1.02.549-2.067.822-3.127.822m0 1.27c1.28 0 2.535-.322 3.757-.98a7.085 7.085 0 0 0 2.857-2.834C9.321 2.198 9.669.913 9.669-.412c0-1.321-.34-2.587-1.006-3.803A7.08 7.08 0 0 0 5.832-7.04C4.616-7.712 3.35-8.055 2.03-8.055c-1.326 0-2.598.343-3.816 1.015a7.086 7.086 0 0 0-2.828 2.825c-.677 1.216-1.009 2.482-1.009 3.803 0 1.325.34 2.61 1.025 3.839a7.075 7.075 0 0 0 2.863 2.834c1.229.658 2.477.98 3.765.98" style="fill:#000;fill-opacity:1;fill-rule:nonzero;stroke:none" transform="translate(614.099 82.266)"/></g></svg>