<svg width="333" height="256" viewBox="0 0 333 256" fill="none" xmlns="http://www.w3.org/2000/svg">
<rect width="333" height="256" fill="#2081E2"/>
<path d="M122.95 134.392L123.3 133.842L144.4 100.833C144.708 100.35 145.433 100.4 145.667 100.925C149.191 108.825 152.233 118.65 150.808 124.767C150.2 127.283 148.533 130.692 146.658 133.842C146.417 134.3 146.15 134.75 145.866 135.183C145.733 135.383 145.508 135.5 145.266 135.5H123.567C122.983 135.5 122.642 134.867 122.95 134.392Z" fill="white"/>
<path d="M217 140.525V145.75C217 146.05 216.817 146.317 216.55 146.433C214.917 147.133 209.325 149.7 207 152.933C201.067 161.192 196.533 173 186.4 173H144.125C129.142 173 117 160.817 117 145.783V145.3C117 144.9 117.325 144.575 117.725 144.575H141.292C141.758 144.575 142.1 145.008 142.058 145.467C141.892 147 142.175 148.567 142.9 149.992C144.3 152.833 147.2 154.608 150.333 154.608H162V145.5H150.467C149.875 145.5 149.525 144.817 149.867 144.333C149.992 144.142 150.133 143.942 150.283 143.717C151.375 142.167 152.933 139.758 154.483 137.017C155.542 135.167 156.567 133.192 157.392 131.208C157.558 130.85 157.692 130.483 157.825 130.125C158.05 129.492 158.283 128.9 158.45 128.308C158.617 127.808 158.75 127.283 158.883 126.792C159.275 125.108 159.442 123.325 159.442 121.475C159.442 120.75 159.408 119.992 159.342 119.267C159.308 118.475 159.208 117.683 159.108 116.892C159.042 116.192 158.917 115.5 158.783 114.775C158.617 113.717 158.383 112.667 158.117 111.608L158.025 111.208C157.825 110.483 157.658 109.792 157.425 109.067C156.767 106.792 156.008 104.575 155.208 102.5C154.917 101.675 154.583 100.883 154.25 100.092C153.758 98.9 153.258 97.8167 152.8 96.7916C152.567 96.325 152.367 95.9 152.167 95.4667C151.942 94.9749 151.708 94.4834 151.475 94.0166C151.308 93.6583 151.117 93.325 150.983 92.9917L149.558 90.3583C149.358 90 149.692 89.575 150.083 89.6833L159 92.1H159.025C159.042 92.1 159.05 92.1083 159.058 92.1083L160.233 92.4333L161.525 92.7999L162 92.9333V87.6334C162 85.075 164.05 83 166.583 83C167.85 83 169 83.5166 169.825 84.3583C170.65 85.2001 171.167 86.35 171.167 87.6334V95.5L172.117 95.7666C172.192 95.7916 172.267 95.825 172.333 95.8749C172.567 96.0499 172.9 96.3084 173.325 96.6249C173.658 96.8917 174.017 97.2167 174.45 97.5499C175.308 98.2417 176.333 99.1334 177.458 100.158C177.758 100.417 178.05 100.683 178.317 100.95C179.767 102.3 181.392 103.883 182.942 105.633C183.375 106.125 183.8 106.625 184.233 107.15C184.667 107.683 185.125 108.208 185.525 108.733C186.05 109.433 186.617 110.158 187.108 110.917C187.342 111.275 187.608 111.642 187.833 112C188.467 112.958 189.025 113.95 189.558 114.942C189.783 115.4 190.017 115.9 190.217 116.392C190.808 117.717 191.275 119.067 191.575 120.417C191.667 120.708 191.733 121.025 191.767 121.308V121.375C191.867 121.775 191.9 122.2 191.933 122.633C192.067 124.017 192 125.4 191.7 126.792C191.575 127.383 191.408 127.942 191.208 128.533C191.008 129.1 190.808 129.692 190.55 130.25C190.05 131.408 189.458 132.567 188.758 133.65C188.533 134.05 188.267 134.475 188 134.875C187.708 135.3 187.408 135.7 187.142 136.092C186.775 136.592 186.383 137.117 185.983 137.583C185.625 138.075 185.258 138.567 184.858 139C184.3 139.658 183.767 140.283 183.208 140.883C182.875 141.275 182.517 141.675 182.15 142.033C181.792 142.433 181.425 142.792 181.092 143.125C180.533 143.683 180.067 144.117 179.675 144.475L178.758 145.317C178.625 145.433 178.45 145.5 178.267 145.5H171.167V154.608H180.1C182.1 154.608 184 153.9 185.533 152.6C186.058 152.142 188.35 150.158 191.058 147.167C191.15 147.067 191.267 146.992 191.4 146.958L216.075 139.825C216.533 139.692 217 140.042 217 140.525Z" fill="white"/>
</svg>
