<svg width="61" height="55" viewBox="0 0 61 55" fill="none" xmlns="http://www.w3.org/2000/svg">
<path d="M3.6293 31.4059L3.84272 31.0699L16.7137 10.8981C16.9019 10.6027 17.3441 10.6333 17.4865 10.9541C19.6366 15.7819 21.4921 21.7861 20.6229 25.524C20.2518 27.0619 19.2351 29.1449 18.0913 31.0699C17.944 31.35 17.7812 31.625 17.6084 31.8898C17.5271 32.012 17.3898 32.0833 17.2424 32.0833H4.00544C3.64953 32.0833 3.44118 31.6963 3.6293 31.4059Z" fill="white"/>
<path d="M61 35.1542V38.3472C61 38.5305 60.8882 38.6935 60.7255 38.7648C59.7292 39.1926 56.3182 40.7612 54.9 42.737C51.2807 47.7838 48.5153 55 42.334 55H16.5462C7.40642 55 0 47.5546 0 38.3676V38.0722C0 37.8278 0.19824 37.6292 0.442218 37.6292H14.8179C15.1026 37.6292 15.311 37.894 15.2856 38.1741C15.1839 39.1111 15.3568 40.0685 15.799 40.9394C16.653 42.6759 18.422 43.7606 20.3333 43.7606H27.45V38.1944H20.4147C20.0537 38.1944 19.8403 37.7769 20.0486 37.4814C20.1249 37.3644 20.2114 37.2421 20.3028 37.1046C20.9687 36.1574 21.9193 34.6856 22.8648 33.0101C23.5104 31.8797 24.1357 30.6726 24.6389 29.4607C24.7406 29.2417 24.8219 29.0176 24.9032 28.7986C25.0405 28.4116 25.1828 28.05 25.2844 27.6885C25.3861 27.3829 25.4675 27.062 25.5489 26.7616C25.7878 25.7329 25.8894 24.643 25.8894 23.5125C25.8894 23.0694 25.869 22.606 25.8284 22.1629C25.8081 21.6791 25.7471 21.1954 25.6861 20.7116C25.6454 20.2838 25.5692 19.8611 25.4878 19.4181C25.3861 18.7713 25.2439 18.1297 25.0811 17.4829L25.0253 17.2384C24.9032 16.7954 24.8015 16.3727 24.6593 15.9296C24.2576 14.5393 23.7951 13.1847 23.3071 11.9167C23.1292 11.4125 22.9258 10.9287 22.7225 10.445C22.4226 9.71664 22.1176 9.05464 21.838 8.42822C21.6957 8.14304 21.5736 7.88331 21.4517 7.61851C21.3144 7.31802 21.1721 7.01764 21.0297 6.73236C20.9281 6.51338 20.8111 6.30971 20.7298 6.10604L19.8606 4.49675C19.7386 4.27778 19.9419 4.01804 20.1808 4.08424L25.62 5.56113H25.6353C25.6454 5.56113 25.6505 5.5662 25.6556 5.5662L26.3723 5.7648L27.1603 5.98884L27.45 6.07035V2.83151C27.45 1.26805 28.7005 0 30.2458 0C31.0185 0 31.72 0.315688 32.2232 0.830088C32.7265 1.34449 33.0417 2.04724 33.0417 2.83151V7.63889L33.6211 7.8018C33.6669 7.81711 33.7126 7.83749 33.7533 7.868C33.8957 7.97496 34.099 8.13291 34.3582 8.32633C34.5615 8.48935 34.7801 8.68795 35.0445 8.89162C35.5681 9.31438 36.1933 9.85929 36.8796 10.4856C37.0626 10.6436 37.2405 10.8065 37.4032 10.9695C38.2876 11.7944 39.2789 12.7621 40.2244 13.8315C40.4887 14.1319 40.748 14.4374 41.0123 14.7583C41.2767 15.0842 41.5562 15.4051 41.8003 15.726C42.1205 16.1537 42.4661 16.5967 42.7661 17.0602C42.9084 17.2792 43.0711 17.5032 43.2083 17.7222C43.5947 18.3079 43.9353 18.9139 44.2606 19.5199C44.3978 19.8 44.5401 20.1055 44.6622 20.406C45.023 21.2157 45.3078 22.0408 45.4907 22.8658C45.5467 23.044 45.5873 23.2375 45.6076 23.4107V23.4513C45.6686 23.6959 45.689 23.9556 45.7093 24.2204C45.7907 25.0657 45.75 25.9111 45.5669 26.7616C45.4907 27.1232 45.389 27.4643 45.2671 27.8259C45.1451 28.1722 45.023 28.5338 44.8655 28.875C44.5605 29.5828 44.1996 30.2908 43.7726 30.9528C43.6353 31.1972 43.4726 31.4569 43.31 31.7013C43.1321 31.9611 42.949 32.2056 42.7864 32.445C42.5628 32.7505 42.3239 33.0713 42.0798 33.3564C41.8612 33.6569 41.6376 33.9574 41.3936 34.2222C41.053 34.6245 40.7276 35.0065 40.3871 35.3732C40.1837 35.6125 39.9651 35.857 39.7415 36.0759C39.5229 36.3204 39.2993 36.5393 39.0959 36.743C38.7553 37.0842 38.4707 37.349 38.2318 37.568L37.6726 38.0824C37.5912 38.1537 37.4844 38.1944 37.3726 38.1944H33.0417V43.7606H38.491C39.711 43.7606 40.87 43.3278 41.8053 42.5334C42.1255 42.2532 43.5235 41.0412 45.1756 39.213C45.2315 39.1519 45.3026 39.106 45.384 39.0857L60.4357 34.7264C60.7153 34.6449 61 34.8588 61 35.1542Z" fill="white"/>
</svg>
