<svg width="240" height="240" viewBox="0 0 240 240" fill="none" xmlns="http://www.w3.org/2000/svg">
<path opacity="0.15" d="M120 0C53.74 0 0 53.74 0 120C0 186.26 53.74 240 120 240C186.26 240 240 186.26 240 120C240 53.74 186.29 0 120 0ZM59.2 124.03L59.71 123.22L90.94 74.38C91.0446 74.2195 91.1904 74.0899 91.3621 74.005C91.5339 73.92 91.7253 73.8828 91.9164 73.8971C92.1075 73.9114 92.2912 73.9767 92.4484 74.0863C92.6056 74.1959 92.7305 74.3457 92.81 74.52C98.01 86.21 102.53 100.75 100.41 109.8C99.53 113.52 97.06 118.56 94.27 123.22C93.9121 123.902 93.5216 124.566 93.1 125.21C92.999 125.354 92.8639 125.47 92.7068 125.549C92.5497 125.627 92.3756 125.665 92.2 125.66H60.13C59.9386 125.663 59.7499 125.614 59.5841 125.518C59.4183 125.423 59.2814 125.284 59.1881 125.117C59.0948 124.95 59.0485 124.76 59.0541 124.569C59.0597 124.378 59.117 124.191 59.22 124.03H59.2ZM198.34 140.83C198.342 141.044 198.282 141.253 198.167 141.433C198.051 141.612 197.885 141.754 197.69 141.84C195.26 142.87 186.99 146.69 183.55 151.46C174.77 163.68 168.07 181.16 153.07 181.16H90.53C85.2496 181.152 80.0226 180.104 75.1476 178.075C70.2726 176.046 65.8451 173.076 62.1183 169.336C58.3915 165.595 55.4384 161.156 53.4277 156.274C51.417 151.391 50.3882 146.16 50.4 140.88V140.16C50.4 139.58 50.88 139.1 51.48 139.1H86.33C87.03 139.1 87.53 139.73 87.48 140.42C87.22 142.68 87.65 145.01 88.73 147.12C90.79 151.32 95.09 153.94 99.72 153.94H116.98V140.47H99.9C99.6999 140.468 99.5041 140.411 99.3338 140.306C99.1635 140.201 99.0251 140.051 98.9335 139.873C98.842 139.695 98.8007 139.496 98.8142 139.296C98.8277 139.096 98.8954 138.904 99.01 138.74L99.64 137.84C101.24 135.53 103.55 131.98 105.85 127.92C107.41 125.18 108.93 122.26 110.15 119.32C110.39 118.8 110.58 118.25 110.8 117.72C111.13 116.78 111.47 115.9 111.71 115.03C111.946 114.292 112.162 113.549 112.36 112.8C112.93 110.3 113.17 107.66 113.17 104.93C113.17 103.85 113.13 102.72 113.03 101.66C112.98 100.49 112.83 99.31 112.69 98.14C112.578 97.0932 112.418 96.052 112.21 95.02C111.941 93.4485 111.614 91.8874 111.23 90.34L111.09 89.74C110.79 88.66 110.53 87.64 110.19 86.57C109.238 83.2841 108.143 80.041 106.91 76.85C106.48 75.6497 106.007 74.4656 105.49 73.3C104.77 71.52 104.03 69.91 103.36 68.4C103.027 67.7531 102.713 67.0961 102.42 66.43C102.095 65.7114 101.751 65.0012 101.39 64.3C101.15 63.77 100.86 63.26 100.67 62.78L98.56 58.9C98.27 58.37 98.75 57.72 99.33 57.89L112.53 61.46H112.63L114.36 61.96L116.28 62.5L116.98 62.69V54.86C116.98 51.07 120 48 123.77 48C124.66 47.9976 125.542 48.1753 126.361 48.5225C127.181 48.8696 127.922 49.379 128.54 50.02C129.817 51.3078 130.535 53.0465 130.54 54.86V66.5L131.95 66.89C132.05 66.94 132.17 66.99 132.26 67.06C132.6 67.3 133.1 67.68 133.73 68.16C134.23 68.54 134.76 69.02 135.38 69.53C137.355 71.1388 139.269 72.8199 141.12 74.57C143.26 76.56 145.66 78.89 147.96 81.48C148.61 82.22 149.23 82.94 149.88 83.74C150.5 84.53 151.2 85.3 151.78 86.06C152.57 87.1 153.38 88.18 154.13 89.3C154.46 89.83 154.87 90.38 155.18 90.91C156.14 92.33 156.96 93.79 157.75 95.26C158.09 95.93 158.42 96.67 158.71 97.39C159.6 99.36 160.3 101.35 160.73 103.37C160.872 103.799 160.969 104.241 161.02 104.69V104.79C161.16 105.36 161.21 105.99 161.26 106.63C161.542 109.586 161.18 112.567 160.2 115.37C159.89 116.21 159.6 117.07 159.22 117.91C158.47 119.61 157.61 121.34 156.58 122.93C156.24 123.53 155.83 124.15 155.45 124.75C155.02 125.38 154.56 125.98 154.18 126.55C153.63 127.307 153.053 128.044 152.45 128.76C151.92 129.48 151.39 130.2 150.79 130.85C149.98 131.83 149.19 132.75 148.34 133.63C147.86 134.21 147.34 134.81 146.78 135.33C146.26 135.93 145.7 136.46 145.22 136.94C144.38 137.78 143.72 138.41 143.14 138.96L141.77 140.18C141.579 140.371 141.32 140.479 141.05 140.48H130.54V153.94H143.76C146.71 153.94 149.52 152.9 151.8 150.96C152.57 150.29 155.95 147.36 159.96 142.94C160.091 142.79 160.266 142.684 160.46 142.64L196.96 132.07C197.12 132.024 197.289 132.015 197.453 132.045C197.617 132.075 197.772 132.142 197.906 132.242C198.04 132.342 198.148 132.471 198.224 132.62C198.299 132.769 198.339 132.933 198.34 133.1V140.83Z" fill="#FFFFFF"/>
</svg>
