<svg width="32" height="32" viewBox="0 0 32 32" fill="none" xmlns="http://www.w3.org/2000/svg">
<path d="M16 0C7.16533 0 0 7.16533 0 16C0 24.8347 7.16533 32 16 32C24.8347 32 32 24.8347 32 16C32 7.16533 24.8387 0 16 0ZM7.89333 16.5373L7.96133 16.4293L12.1253 9.91733C12.1393 9.89593 12.1587 9.87866 12.1816 9.86733C12.2045 9.85601 12.23 9.85104 12.2555 9.85294C12.281 9.85485 12.3055 9.86357 12.3265 9.87818C12.3474 9.89279 12.3641 9.91276 12.3747 9.936C13.068 11.4947 13.6707 13.4333 13.388 14.64C13.2707 15.136 12.9413 15.808 12.5693 16.4293C12.5216 16.5202 12.4696 16.6088 12.4133 16.6947C12.3999 16.7138 12.3819 16.7293 12.3609 16.7398C12.34 16.7503 12.3167 16.7554 12.2933 16.7547H8.01733C7.99181 16.7551 7.96666 16.7485 7.94455 16.7358C7.92243 16.723 7.90419 16.7045 7.89174 16.6822C7.8793 16.66 7.87313 16.6347 7.87388 16.6092C7.87463 16.5837 7.88227 16.5589 7.896 16.5373H7.89333ZM26.4453 18.7773C26.4457 18.8058 26.4376 18.8337 26.4222 18.8577C26.4068 18.8816 26.3847 18.9005 26.3587 18.912C26.0347 19.0493 24.932 19.5587 24.4733 20.1947C23.3027 21.824 22.4093 24.1547 20.4093 24.1547H12.0707C11.3666 24.1536 10.6697 24.0138 10.0197 23.7433C9.36967 23.4728 8.77935 23.0768 8.28244 22.5781C7.78553 22.0793 7.39178 21.4875 7.12369 20.8365C6.8556 20.1855 6.71842 19.488 6.72 18.784V18.688C6.72 18.6107 6.784 18.5467 6.864 18.5467H11.5107C11.604 18.5467 11.6707 18.6307 11.664 18.7227C11.6293 19.024 11.6867 19.3347 11.8307 19.616C12.1053 20.176 12.6787 20.5253 13.296 20.5253H15.5973V18.7293H13.32C13.2933 18.729 13.2672 18.7215 13.2445 18.7075C13.2218 18.6935 13.2033 18.6735 13.1911 18.6498C13.1789 18.626 13.1734 18.5994 13.1752 18.5728C13.177 18.5462 13.186 18.5205 13.2013 18.4987L13.2853 18.3787C13.4987 18.0707 13.8067 17.5973 14.1133 17.056C14.3213 16.6907 14.524 16.3013 14.6867 15.9093C14.7187 15.84 14.744 15.7667 14.7733 15.696C14.8173 15.5707 14.8627 15.4533 14.8947 15.3373C14.9261 15.239 14.955 15.1398 14.9813 15.04C15.0573 14.7067 15.0893 14.3547 15.0893 13.9907C15.0893 13.8467 15.084 13.696 15.0707 13.5547C15.064 13.3987 15.044 13.2413 15.0253 13.0853C15.0104 12.9458 14.9891 12.8069 14.9613 12.6693C14.9255 12.4598 14.8819 12.2517 14.8307 12.0453L14.812 11.9653C14.772 11.8213 14.7373 11.6853 14.692 11.5427C14.565 11.1045 14.4191 10.6721 14.2547 10.2467C14.1974 10.0866 14.1342 9.92874 14.0653 9.77333C13.9693 9.536 13.8707 9.32133 13.7813 9.12C13.7369 9.03374 13.6951 8.94615 13.656 8.85733C13.6126 8.76152 13.5668 8.66682 13.5187 8.57333C13.4867 8.50267 13.448 8.43467 13.4227 8.37067L13.1413 7.85333C13.1027 7.78267 13.1667 7.696 13.244 7.71867L15.004 8.19467H15.0173L15.248 8.26133L15.504 8.33333L15.5973 8.35867V7.31467C15.5973 6.80933 16 6.4 16.5027 6.4C16.6214 6.39968 16.7389 6.42338 16.8482 6.46966C16.9575 6.51595 17.0563 6.58387 17.1387 6.66933C17.3089 6.84104 17.4047 7.07287 17.4053 7.31467V8.86667L17.5933 8.91867C17.6067 8.92533 17.6227 8.932 17.6347 8.94133C17.68 8.97333 17.7467 9.024 17.8307 9.088C17.8973 9.13867 17.968 9.20267 18.0507 9.27067C18.314 9.48517 18.5692 9.70933 18.816 9.94267C19.1013 10.208 19.4213 10.5187 19.728 10.864C19.8147 10.9627 19.8973 11.0587 19.984 11.1653C20.0667 11.2707 20.16 11.3733 20.2373 11.4747C20.3427 11.6133 20.4507 11.7573 20.5507 11.9067C20.5947 11.9773 20.6493 12.0507 20.6907 12.1213C20.8187 12.3107 20.928 12.5053 21.0333 12.7013C21.0787 12.7907 21.1227 12.8893 21.1613 12.9853C21.28 13.248 21.3733 13.5133 21.4307 13.7827C21.4496 13.8398 21.4626 13.8988 21.4693 13.9587V13.972C21.488 14.048 21.4947 14.132 21.5013 14.2173C21.5389 14.6114 21.4907 15.009 21.36 15.3827C21.3187 15.4947 21.28 15.6093 21.2293 15.7213C21.1293 15.948 21.0147 16.1787 20.8773 16.3907C20.832 16.4707 20.7773 16.5533 20.7267 16.6333C20.6693 16.7173 20.608 16.7973 20.5573 16.8733C20.484 16.9743 20.4071 17.0726 20.3267 17.168C20.256 17.264 20.1853 17.36 20.1053 17.4467C19.9973 17.5773 19.892 17.7 19.7787 17.8173C19.7147 17.8947 19.6453 17.9747 19.5707 18.044C19.5013 18.124 19.4267 18.1947 19.3627 18.2587C19.2507 18.3707 19.1627 18.4547 19.0853 18.528L18.9027 18.6907C18.8772 18.7162 18.8427 18.7306 18.8067 18.7307H17.4053V20.5253H19.168C19.5613 20.5253 19.936 20.3867 20.24 20.128C20.3427 20.0387 20.7933 19.648 21.328 19.0587C21.3454 19.0386 21.3688 19.0246 21.3947 19.0187L26.2613 17.6093C26.2827 17.6032 26.3052 17.602 26.3271 17.606C26.349 17.61 26.3696 17.619 26.3875 17.6323C26.4053 17.6456 26.4198 17.6628 26.4298 17.6827C26.4399 17.7025 26.4452 17.7244 26.4453 17.7467V18.7773Z" fill="#2081E2"/>
</svg>
