<svg width="333" height="256" viewBox="0 0 333 256" fill="none" xmlns="http://www.w3.org/2000/svg">
<rect width="333" height="256" fill="#F9E4CA"/>
<g clip-path="url(#clip0_3521_17580)">
<path d="M124.389 95.0503C121.445 95.0219 118.288 95.1035 114.725 95.3055C111.785 95.4721 108.364 95.6883 104.972 96.1562C95.8244 97.411 89.9437 102.831 87.4904 112.256C86.7189 115.222 86.2816 118.586 86.1891 122.258C85.8834 134.477 85.7732 142.618 87.2593 155.513C87.8673 160.788 90.5837 164.137 95.3337 165.466C96.4608 165.782 97.5665 165.938 98.6296 165.938C100.571 165.938 102.366 165.413 103.86 164.389C106.146 162.819 107.564 160.171 107.856 156.938C107.977 155.609 107.945 154.276 107.913 152.986C107.906 152.749 107.902 152.511 107.899 152.277C110.53 152.167 113.161 152.065 115.788 151.962C117.797 151.884 119.802 151.802 121.811 151.721C121.95 151.714 122.092 151.71 122.234 151.706C122.824 151.692 123.436 151.675 124.072 151.536C128.812 150.498 132.399 146.003 132.239 141.307C132.076 136.486 128.143 132.101 123.475 131.531C120.641 131.187 117.758 131.265 114.97 131.343H114.814C112.766 131.403 110.69 131.57 108.681 131.729C108.19 131.768 107.703 131.807 107.209 131.846C107.18 129.872 107.145 128.716 107.116 127.699C107.074 126.26 107.038 125.122 107.038 122.326C107.038 121.291 107.198 120.16 107.522 118.866C107.995 116.981 108.997 116.169 110.978 116.077C112.88 115.984 114.817 115.917 116.695 115.85C119.208 115.761 121.807 115.669 124.371 115.52C129.935 115.198 133.316 112.674 134.422 108.02C135.158 104.918 134.411 101.654 132.378 99.0663C130.397 96.5426 127.486 95.0787 124.392 95.0467L124.389 95.0503Z" fill="#70B8EC"/>
<path d="M216.874 124.974C214.071 119.019 209.749 114.807 204.023 112.449C194.721 108.621 185.701 109.13 177.207 113.961C169.122 118.56 164.828 125.287 164.444 133.956C164.398 135.023 164.348 136.037 164.302 137.012C163.971 144.091 163.729 149.206 164.391 157.065C164.85 162.553 168.435 166.424 173.518 166.925C178.437 167.405 182.869 163.987 183.826 158.957C184.196 157 184.121 155.001 184.05 153.066C184.029 152.5 184.007 151.935 183.997 151.373C183.958 149.086 183.879 147.403 183.801 145.774C183.688 143.369 183.592 141.292 183.659 137.919C183.759 133.053 185.719 131.619 188.635 130.958C189.859 130.68 190.894 130.577 191.797 130.634C194.344 130.805 198.62 131.886 198.659 137.24C198.666 138.375 198.662 138.833 198.659 139.21C198.659 139.701 198.655 140.057 198.677 141.544C198.701 143.188 198.748 144.856 198.79 146.467C198.833 148.029 198.876 149.64 198.901 151.223C198.915 152.027 198.897 152.856 198.879 153.657C198.851 155.062 198.822 156.513 198.94 157.961C199.182 160.86 200.583 163.325 202.991 165.083C204.738 166.356 206.619 167 208.561 167C209.984 167 211.442 166.655 212.904 165.961C216.394 164.307 218.407 161.276 218.571 157.42C218.709 154.105 218.677 150.743 218.649 147.495C218.638 146.507 218.631 145.518 218.624 144.528H218.77V143.283C218.77 142.042 218.777 141.249 218.784 140.584C218.795 139.374 218.802 138.574 218.756 136.293C218.677 132.53 218.599 128.635 216.874 124.971V124.974Z" fill="#EBB9CB"/>
<path d="M158.97 142.906C159.063 141.081 159.185 136.189 159.182 133.495C159.182 132.895 159.175 132.107 159.131 131.333C159.024 129.48 158.469 127.567 157.526 125.803C155.312 121.66 150.024 119.576 145.224 120.961C141.254 122.104 137.371 125.721 137.64 131.22C137.887 136.289 137.901 141.468 137.912 146.477C137.915 148.273 137.923 150.069 137.937 151.865C137.944 152.568 137.905 153.274 137.865 154.016C137.808 155.053 137.751 156.121 137.819 157.204C138.145 162.337 142.548 166.316 148.061 166.466C148.172 166.466 148.28 166.469 148.387 166.469C153.969 166.469 158.533 162.632 158.845 157.612C159.049 154.339 158.999 151.017 158.952 147.808C158.942 147.069 158.931 146.328 158.924 145.589C158.913 144.631 158.931 143.751 158.974 142.902L158.97 142.906Z" fill="#70B970"/>
<path d="M238.139 121.803C234.658 120.467 230.93 120.961 227.909 123.163C225.046 125.247 223.395 128.535 223.598 131.742C223.942 137.108 223.942 142.605 223.942 147.92C223.942 150.342 223.942 152.849 223.974 155.314C223.977 155.633 223.974 155.956 223.97 156.283C223.956 157.423 223.942 158.598 224.253 159.759C225.447 164.173 229.539 167 234.493 167C235.015 167 235.544 166.968 236.08 166.904C241.045 166.315 244.887 162.061 245.02 157.014C245.098 154.018 245.08 150.978 245.059 148.038C245.052 147.143 245.048 146.248 245.045 145.357H245.116V144.114C245.116 142.842 245.12 141.571 245.127 140.3C245.138 137.42 245.152 134.441 245.098 131.508C245.023 127.207 242.289 123.4 238.132 121.803H238.139Z" fill="#DB653F"/>
<path d="M246.579 98.9014C245.901 97.6118 244.578 96.8395 243.107 96.8714L236.882 97.0308C236.453 97.0486 236.034 96.8431 235.779 96.4994L232.104 91.5397C231.242 90.3741 229.81 89.8073 228.377 90.0588C226.954 90.3068 225.816 91.3165 225.404 92.6875L223.649 98.5684C223.528 98.9687 223.213 99.2876 222.805 99.4186L216.889 101.318C215.502 101.76 214.512 102.926 214.306 104.354C214.101 105.781 214.721 107.17 215.927 107.985L221.067 111.46C221.421 111.698 221.631 112.091 221.634 112.509L221.652 118.641C221.656 120.069 222.461 121.355 223.755 121.993C224.298 122.262 224.88 122.393 225.458 122.393C226.27 122.393 227.075 122.131 227.752 121.617L232.683 117.883C233.026 117.625 233.48 117.547 233.896 117.681L239.822 119.573C241.22 120.019 242.716 119.644 243.731 118.595C244.724 117.564 245.04 116.087 244.554 114.741L242.461 108.959C242.319 108.569 242.383 108.134 242.628 107.797L246.274 102.834C247.121 101.679 247.235 100.173 246.572 98.9014H246.579Z" fill="#F2D667"/>
<path d="M148.545 95.0484H148.484C141.867 95.0484 136.635 100.173 136.563 106.738C136.53 109.903 137.736 112.839 139.963 115.009C142.183 117.17 145.216 118.379 148.509 118.41C148.552 118.41 148.595 118.41 148.635 118.41C151.815 118.41 154.777 117.244 156.982 115.122C159.235 112.955 160.487 109.991 160.512 106.784C160.534 103.683 159.318 100.758 157.09 98.5479C154.827 96.3065 151.794 95.0625 148.548 95.0448L148.545 95.0484Z" fill="#70B970"/>
</g>
<defs>
<clipPath id="clip0_3521_17580">
<rect width="161" height="77" fill="white" transform="translate(86 90)"/>
</clipPath>
</defs>
</svg>
