<svg width="90" height="44" viewBox="0 0 90 44" fill="none" xmlns="http://www.w3.org/2000/svg">
<g clip-path="url(#clip0_3728_16585)">
<path d="M21.4596 2.82315C19.8138 2.8073 18.0489 2.85286 16.0575 2.96581C14.4138 3.05894 12.5018 3.1798 10.6057 3.44136C5.49187 4.14277 2.20454 7.17238 0.833158 12.441C0.401869 14.0995 0.157405 15.9798 0.105729 18.0325C-0.0651962 24.8627 -0.126809 29.414 0.70397 36.6224C1.04383 39.5708 2.56229 41.4432 5.2176 42.1862C5.84763 42.3627 6.46575 42.4498 7.06002 42.4498C8.14519 42.4498 9.14889 42.1565 9.98365 41.5839C11.2616 40.7061 12.0546 39.226 12.2176 37.4189C12.2852 36.6759 12.2673 35.9309 12.2494 35.2096C12.2454 35.0769 12.2434 34.9442 12.2414 34.8133C13.7122 34.752 15.1829 34.6945 16.6518 34.6369C17.7746 34.5934 18.8957 34.5479 20.0185 34.5023C20.096 34.4983 20.1756 34.4964 20.2551 34.4943C20.585 34.4864 20.9269 34.4765 21.2825 34.3992C23.932 33.8187 25.9374 31.3063 25.8479 28.6808C25.7565 25.9861 23.5583 23.535 20.9487 23.216C19.3647 23.0238 17.7528 23.0674 16.1946 23.1111H16.1072C14.9623 23.1446 13.8016 23.2378 12.6787 23.327C12.4044 23.3487 12.1321 23.3705 11.8559 23.3923C11.84 22.2887 11.8201 21.6427 11.8042 21.0741C11.7803 20.2696 11.7605 19.6336 11.7605 18.0702C11.7605 17.4917 11.8499 16.8595 12.0308 16.1364C12.2951 15.0823 12.8556 14.6285 13.9626 14.577C15.026 14.5255 16.1091 14.4878 17.1586 14.4502C18.5637 14.4006 20.0166 14.3491 21.4496 14.2659C24.56 14.0856 26.4502 12.6748 27.0683 10.0732C27.4796 8.33945 27.0623 6.51456 25.9255 5.0681C24.8184 3.65733 23.1907 2.839 21.4615 2.82116L21.4596 2.82315Z" fill="white"/>
<path d="M73.1594 19.5508C71.5925 16.2219 69.1766 13.8675 65.9753 12.5491C60.7759 10.4094 55.7333 10.6938 50.985 13.3943C46.4656 15.9654 44.0656 19.7258 43.8508 24.5719C43.8249 25.1684 43.7971 25.7351 43.7714 26.28C43.5863 30.2373 43.4512 33.0967 43.821 37.4895C44.0775 40.5578 46.0818 42.7214 48.9231 43.0018C51.6731 43.2701 54.1505 41.3591 54.6855 38.5474C54.8922 37.4536 54.8504 36.3361 54.8107 35.2544C54.7988 34.9381 54.7868 34.6219 54.7808 34.3077C54.7589 33.0292 54.7152 32.0886 54.6715 31.1779C54.608 29.8336 54.5542 28.6723 54.592 26.7871C54.6477 24.0668 55.7433 23.2654 57.3737 22.8956C58.0577 22.7405 58.6364 22.6827 59.1414 22.7146C60.5651 22.8101 62.955 23.4146 62.9769 26.4073C62.9809 27.0417 62.9788 27.2982 62.9769 27.5089C62.9769 27.7834 62.975 27.9823 62.9869 28.8134C63.0007 29.7322 63.0266 30.6648 63.0505 31.5656C63.0743 32.4386 63.0981 33.3394 63.1121 34.2243C63.12 34.6737 63.1102 35.137 63.1002 35.5845C63.0843 36.37 63.0684 37.1812 63.134 37.9906C63.2692 39.6113 64.0526 40.9893 65.3987 41.9717C66.375 42.6835 67.4269 43.0435 68.5126 43.0435C69.3079 43.0435 70.1231 42.8505 70.9403 42.4628C72.8909 41.5381 74.0163 39.8439 74.1078 37.6883C74.1854 35.835 74.1674 33.9558 74.1515 32.1403C74.1455 31.5875 74.1417 31.0346 74.1377 30.4818H74.2192V29.7858C74.2192 29.0919 74.2232 28.6484 74.2271 28.2766C74.233 27.6004 74.237 27.153 74.2111 25.8783C74.1674 23.7744 74.1237 21.597 73.1594 19.5489V19.5508Z" fill="white"/>
<path d="M40.7911 29.5746C40.8432 28.5546 40.9113 25.8201 40.9094 24.3141C40.9094 23.9786 40.9054 23.5381 40.8813 23.1056C40.8212 22.0697 40.5109 21.0002 39.9841 20.014C38.7464 17.6983 35.7904 16.5334 33.1069 17.3073C30.8878 17.9463 28.717 19.9683 28.8672 23.0421C29.0053 25.8757 29.0133 28.7709 29.0194 31.5708C29.0214 32.5749 29.0254 33.579 29.0334 34.5831C29.0374 34.9759 29.0154 35.3708 28.9934 35.7856C28.9613 36.3649 28.9293 36.9623 28.9674 37.5675C29.1496 40.4368 31.6108 42.6613 34.693 42.7447C34.755 42.7447 34.8151 42.7466 34.8752 42.7466C37.9955 42.7466 40.5469 40.6016 40.7211 37.7957C40.8353 35.9661 40.8072 34.1088 40.7812 32.315C40.7752 31.9022 40.7691 31.4875 40.7651 31.0747C40.7591 30.5389 40.7691 30.0469 40.7932 29.5725L40.7911 29.5746Z" fill="white"/>
<path d="M85.0464 17.7778C83.1003 17.0314 81.0163 17.3073 79.3279 18.5381C77.7274 19.7034 76.8043 21.5415 76.9181 23.334C77.11 26.3334 77.11 29.4063 77.11 32.3779C77.11 33.7317 77.11 35.1331 77.128 36.5107C77.13 36.6894 77.128 36.87 77.1259 37.0526C77.1181 37.6898 77.11 38.3468 77.2838 38.9959C77.9513 41.4633 80.239 43.0435 83.0084 43.0435C83.3001 43.0435 83.5958 43.0257 83.8956 42.9899C86.6708 42.6604 88.8188 40.2823 88.8927 37.4615C88.9366 35.7862 88.9266 34.087 88.9147 32.4434C88.9107 31.9432 88.9087 31.4428 88.9067 30.9447H88.9467V30.2499C88.9467 29.5393 88.9487 28.8286 88.9527 28.1179C88.9586 26.5081 88.9667 24.8426 88.9366 23.203C88.8947 20.7991 87.3662 18.6711 85.0424 17.7778H85.0464Z" fill="white"/>
<path d="M89.7644 4.97594C89.3856 4.25507 88.6461 3.82334 87.8233 3.84117L84.3437 3.93028C84.1037 3.9402 83.8699 3.82533 83.7271 3.63323L81.673 0.860678C81.1911 0.209128 80.3902 -0.107735 79.5891 0.032873C78.7942 0.1715 78.1578 0.735913 77.9276 1.50232L76.9463 4.78979C76.8789 5.01357 76.7025 5.1918 76.4744 5.26508L73.1673 6.32657C72.3921 6.57412 71.8389 7.22566 71.7239 8.02376C71.6089 8.82187 71.9558 9.59819 72.63 10.0537L75.5028 11.9964C75.7011 12.1291 75.8181 12.349 75.8202 12.5826L75.83 16.0107C75.832 16.8088 76.282 17.5278 77.0058 17.8841C77.3091 18.0346 77.6343 18.1079 77.9574 18.1079C78.4116 18.1079 78.8616 17.9615 79.2403 17.6742L81.9962 15.5869C82.1884 15.4424 82.4422 15.3987 82.6743 15.474L85.9873 16.5315C86.7685 16.781 87.6052 16.5711 88.1722 15.985C88.7273 15.4087 88.9039 14.5828 88.6323 13.8303L87.4624 10.5983C87.3831 10.3804 87.4188 10.1369 87.5556 9.94871L89.5939 7.17418C90.0677 6.52857 90.1312 5.6869 89.7603 4.97594H89.7644Z" fill="white"/>
<path d="M34.9631 2.82207H34.9289C31.2299 2.82207 28.3053 5.68652 28.265 9.35673C28.247 11.1259 28.9207 12.7669 30.1659 13.9804C31.4068 15.1881 33.1025 15.8639 34.9429 15.8816C34.9671 15.8816 34.9912 15.8816 35.0134 15.8816C36.7913 15.8816 38.4468 15.2295 39.6798 14.0435C40.9389 12.8319 41.6389 11.1751 41.653 9.38235C41.665 7.64869 40.9852 6.01355 39.7401 4.77833C38.475 3.52537 36.7793 2.82995 34.965 2.82009L34.9631 2.82207Z" fill="white"/>
</g>
<defs>
<clipPath id="clip0_3728_16585">
<rect width="90" height="43.0435" fill="white"/>
</clipPath>
</defs>
</svg>
