<svg width="333" height="256" viewBox="0 0 333 256" fill="none" xmlns="http://www.w3.org/2000/svg">
<rect width="333" height="256" fill="#E61D2A"/>
<g clip-path="url(#clip0_3521_16813)">
<path d="M147.746 148.106C141.569 144.153 133.186 143.459 119.667 147.185C105.255 150.55 100.449 152.707 94.1387 148.377C91.7143 146.25 90.8451 142.825 91.4941 137.892C92.9995 129.851 97.0678 122.112 104.294 113.528C108.328 109.062 112.069 105.23 117.01 103.691C120.796 102.726 120.442 105.682 119.984 106.105C119.5 106.105 118.688 106.181 118.061 106.587C117.551 106.98 116.153 108.247 116.078 109.952C115.969 112.562 118.688 112.019 119.861 110.586C121.124 108.971 122.992 105.879 121.523 102.997C120.907 101.971 119.843 101.262 118.522 101.021C113.998 100.764 109.785 102.907 105.896 105.275C97.3927 111.144 90.5902 119.276 86.7411 128.177C84.5219 133.548 82.515 141.241 85.5233 147.503C87.8504 151.847 92.6818 154.155 98.446 153.672C102.489 153.251 107.377 151.952 110.665 151.169C113.953 150.384 130.783 144.636 136.313 154.639C136.313 154.639 138.152 151.093 142.747 151.017C146.525 150.671 151.976 152.104 155.945 155C154.623 153.024 150.874 150.113 147.746 148.106Z" fill="white"/>
<path d="M121.383 114.538C118.235 112.487 111.909 116.409 106.841 123.137C102.208 129.173 100.207 136.187 102.384 139.431C105.623 143.248 111.637 137.696 114.194 134.724L114.524 134.377C116.263 132.521 117.606 130.288 118.907 128.146C118.907 128.146 120.102 126.185 120.159 126.094C120.898 125.959 121.788 125.747 122.79 125.461C122.776 125.506 118.954 131.887 119.344 135.055C119.465 136.021 119.373 139.552 122.842 140.623C127.466 141.392 131.158 137.832 134.416 134.663C134.416 134.663 134.971 134.136 135.285 133.835C135.205 134.151 135.102 134.572 135.102 134.572C133.748 139.249 135.573 140.23 136.714 140.593C140.164 141.589 144.285 136.61 144.298 136.61C144.191 138.178 143.879 139.476 145.543 140.517C147.114 141.075 148.703 140.224 149.912 139.424C154.264 136.377 157.77 131.607 160.603 127.484H158.796C158.775 127.484 154.338 133.872 151.458 135.261C151.453 135.261 150.929 135.528 150.627 135.317C150.253 135 150.4 134.341 150.631 133.874C150.646 133.844 161.754 114.704 161.754 114.704H156.509C156.509 114.704 155.936 115.624 155.89 115.685C155.854 115.655 155.77 115.496 155.712 115.42C152.463 110.955 145.104 117.824 139.564 125.789C137.431 128.852 134.715 132.301 131.9 134.79C131.9 134.79 127.728 138.589 125.946 135.859C125.294 134.712 125.495 133.036 125.862 131.935C127.938 126.066 131.513 120.74 135.582 117.526C136.731 116.637 137.98 116.379 138.599 116.757C139.19 117.104 139.285 117.963 138.911 118.552C137.964 118.522 137.204 118.808 136.587 119.442C135.371 120.709 134.949 121.931 135.335 123.078C137.213 125.733 140.959 120.483 140.778 117.285C140.713 116.138 140.097 115.052 139.178 114.523C137.808 113.709 135.719 113.92 134.367 114.569C132.556 115.248 129.691 117.616 128.018 119.457C125.913 121.766 122.301 124.33 121.172 124.043C121.542 123.062 124.592 116.861 121.383 114.538ZM146.669 123.711C147.69 122.308 150.659 118.551 151.383 117.918C153.818 115.79 154.791 116.726 154.875 117.39C152.603 121.433 149.921 126.064 147.4 130.229C147.405 130.214 146.61 131.42 146.61 131.42C145.497 133.11 144.375 134.558 142.546 135.569C142.286 135.645 141.856 135.675 141.569 135.463C141.225 135.237 141.089 134.859 141.128 134.467C141.237 133.17 142.567 129.203 146.669 123.711ZM118.137 126.14C118.137 126.14 118.091 126.276 118.069 126.321C118.063 126.321 115.782 130.016 115.782 130.016C114.406 131.842 112.687 134.136 110.538 135.237C109.902 135.448 109.021 135.584 108.573 135.026C107.622 133.894 108.112 132.325 108.51 131.058L108.651 130.606C109.793 127.528 111.604 124.812 113.367 122.293C113.389 122.278 113.439 122.263 113.456 122.263C113.461 122.278 113.468 122.278 113.471 122.308C114.577 124.42 116.652 125.4 118.203 125.853C118.213 125.853 118.223 125.868 118.223 125.899C118.223 125.944 118.197 126.004 118.137 126.14ZM120.298 121.78C120.288 121.81 119.282 124.103 119.282 124.103C119.137 124.224 118.907 124.164 118.643 124.103L118.192 124.027C116.774 123.59 115.704 122.655 115.375 121.538C114.92 119.366 116.788 117.661 117.611 117.043C118.401 116.499 119.629 116.213 120.342 116.771C120.781 117.284 120.948 117.948 120.948 118.672C120.948 119.653 120.643 120.754 120.298 121.78Z" fill="white"/>
<path d="M186.603 128.78C186.097 127.694 184.896 127 183.617 127.075C179.462 127.452 175.398 130.847 173.264 135.719C172.145 138.224 171.534 140.291 171.133 143.579C172.425 142.101 175.06 139.673 178.051 138.345C178.051 138.345 178.458 135.192 180.533 132.386C181.318 131.224 182.889 129.353 184.653 129.851C186.195 130.364 185.653 134.603 183.604 138.706C182.088 141.724 179.769 144.742 177.421 146.823C175.346 148.573 172.276 150.685 169.589 149.056C167.897 148.061 167.034 145.979 167.217 143.293C168.025 135.675 171.516 129.187 176.512 121.795C181.663 114.931 187.341 107.885 194.99 104.128C196.55 103.344 197.995 103.163 199.244 103.646C199.244 103.646 192.063 107.568 188.641 114.825C187.77 116.666 186.559 119.154 187.778 121.357C188.416 122.504 189.547 122.594 190.458 122.534C194.654 121.568 197.364 117.676 199.579 114.116C200.863 111.415 202.004 108.73 202.004 105.743C202.004 105.381 201.985 104.898 201.954 104.536C203.959 103.48 208.069 105.35 208.069 105.35C211.281 106.407 218.12 111.612 220.427 112.607C221.552 111.31 223.401 109.349 224.442 108.368L222.935 107.448C220.522 105.984 217.971 104.596 215.46 103.223C209.758 100.131 205.117 101.217 202.755 102.062C201.827 102.394 200.978 102.68 200.978 102.68C199.225 100.78 196.35 100.96 194.232 101.473C186.614 103.646 179.541 108.941 171.958 118.129C166.383 125.325 162.924 131.541 161.081 137.681C159.661 141.815 159.229 147.895 162.696 151.501C165.645 154.562 169.554 153.899 172.315 152.798C178.297 149.871 183.673 143.565 186.352 136.308C186.998 134.151 187.716 131.103 186.603 128.78ZM200.357 106.045C199.565 115.067 192.506 120.362 190.76 120.784C189.701 120.995 187.895 120.528 189.507 116.741C191.882 111.642 195.935 107.312 200.285 105.094C200.391 105.472 200.388 105.712 200.357 106.045Z" fill="white"/>
<path d="M242.23 107.191C238.433 109.333 234.497 110.721 229.732 110.238C228.412 111.717 227.126 113.241 225.941 114.81C232.629 116.499 239.718 112.743 243.672 109.168C247.855 105.562 250 101.021 250 101.021C250 101.021 246.865 104.581 242.23 107.191Z" fill="white"/>
<path d="M167.661 119.239L170.471 114.704H165.49L162.681 119.239H167.661Z" fill="white"/>
<path d="M229.712 148.526C229.177 148.888 228.424 148.609 228.706 147.78C229.406 145.668 232.192 141.363 232.192 141.363L239.952 127.691H234.637C234.384 128.103 233.844 129.05 233.844 129.05C233.598 128.643 232.863 127.738 232.56 127.543C231.261 126.727 229.356 127.113 228.042 127.852C222.327 131.171 218.158 137.73 214.87 142.844C214.87 142.844 211.409 148.53 209.487 148.953C207.987 149.073 208.142 147.066 208.207 146.598C208.787 143.218 210.134 140.005 211.491 137.093C214.251 135.193 217.401 132.703 220.263 129.973C226.475 124.073 231.712 117.39 232.478 115.896C232.478 115.896 231.649 116.063 230.671 116.093C225.892 122.715 216.112 132.341 213.147 133.774C214.46 130.636 222.947 115.655 230.168 108.489L231.305 107.402C233.062 105.698 234.883 103.948 236.301 103.661C236.451 103.646 236.644 103.661 236.811 104.008C236.874 105.336 236.377 106.317 235.806 107.433L235.006 109.062C235.006 109.062 236.139 108.851 236.883 108.609C237.746 106.996 238.702 105.185 238.35 103.028C238.232 102.334 237.727 101.806 237.066 101.685C234.911 101.278 232.564 102.861 230.674 104.144L230.598 104.189C220.887 111.747 212.687 122.64 205.517 137.516C204.998 137.907 202.99 138.375 202.649 138.149C203.357 136.701 204.248 134.754 204.694 132.642C204.771 132.039 204.843 131.42 204.843 130.817C204.843 129.518 204.529 128.297 203.359 127.452C201.986 126.773 200.289 127.09 199.145 127.603C194.02 129.715 190.19 134.935 187.426 139.235C185.94 141.966 184.457 144.891 184.047 148.241C183.758 150.866 184.346 152.556 185.848 153.401C187.393 154.185 189.338 153.37 190.101 152.978C195.293 150.262 198.921 144.817 201.78 139.838C201.894 139.823 203.455 139.778 204.636 139.476C204.652 139.476 204.659 139.476 204.685 139.491C204.617 139.717 204.007 141.528 204.007 141.528C202.195 146.808 201.356 150.399 203.068 152.525C205.515 155.528 209.564 152.42 212.859 148.316C212.152 153.234 214.717 154.004 216.673 153.627C218.92 153.024 221.423 150.64 222.585 149.418C222.212 150.851 222.313 153.416 224.357 153.672C225.758 153.93 226.806 153.173 228.019 152.524C232.37 150.17 237.579 142.327 238.931 140.059H237.158C235.236 142.945 232.789 146.73 229.712 148.526ZM190.657 148C190.381 147.593 190.29 147.148 190.28 146.666C190.228 143.708 193.431 138.41 195.692 135.524C195.697 135.524 195.697 135.524 195.697 135.524C196.645 137.586 198.791 138.911 200.086 139.469C198.477 143.03 192.959 150.656 190.657 148ZM200.994 137.877C200.841 137.983 198.135 137.078 197.612 134.589C197.168 132.446 198.654 130.771 200.091 129.927C200.708 129.444 201.637 129.278 202.319 129.519C202.951 129.942 203.123 130.697 203.123 131.51C203.123 132.009 203.056 132.522 202.998 132.989C202.998 132.989 202.986 133.08 202.984 133.095C202.534 134.769 201.844 136.414 200.994 137.877ZM222.698 147.05C222.696 147.05 222.185 147.503 222.185 147.503C221.455 148.151 220.704 148.845 219.797 148.498C219.546 148.407 219.37 148.076 219.328 147.819C219.286 145.963 220.128 144.243 220.943 142.569L221.153 142.131C223.499 138.239 226.226 133.653 230.232 130.47C230.907 129.986 231.639 129.58 232.413 129.897C232.59 130.062 232.797 130.349 232.797 130.636C232.797 130.726 232.716 130.968 232.669 131.043C231.551 132.839 230.485 134.724 229.449 136.535C227.424 140.11 225.324 143.806 222.698 147.05Z" fill="white"/>
</g>
<defs>
<clipPath id="clip0_3521_16813">
<rect width="166" height="54" fill="white" transform="translate(84 101)"/>
</clipPath>
</defs>
</svg>
