<svg width="166" height="54" viewBox="0 0 166 54" fill="none" xmlns="http://www.w3.org/2000/svg">
<path d="M63.7459 47.1058C57.5691 43.1528 49.1863 42.4591 35.667 46.1854C21.2547 49.55 16.4494 51.7069 10.1387 47.3771C7.71427 45.2501 6.84505 41.8254 7.49411 36.8924C8.99953 28.8508 13.0678 21.1119 20.294 12.5277C24.3276 8.06222 28.069 4.23001 33.0096 2.69115C36.796 1.72578 36.442 4.68209 35.9839 5.10489C35.5004 5.10489 34.6882 5.18054 34.0605 5.58747C33.5511 5.97996 32.1528 7.24733 32.0777 8.95214C31.9694 11.5619 34.688 11.0187 35.8606 9.58583C37.1245 7.9711 38.9924 4.87895 37.5231 1.99707C36.9072 0.971298 35.8432 0.262371 34.522 0.0209766C29.9981 -0.235878 25.7848 1.90657 21.8965 4.27516C13.3927 10.1439 6.59024 18.2758 2.74112 27.1771C0.521905 32.5477 -1.48504 40.241 1.5233 46.5026C3.85041 50.8473 8.68184 53.1551 14.446 52.6725C18.4887 52.2505 23.3772 50.9524 26.665 50.1687C29.9529 49.3837 46.783 43.6362 52.3129 53.6393C52.3129 53.6393 54.1517 50.093 58.7472 50.0174C62.5254 49.671 67.9758 51.1039 71.9451 54C70.6227 52.0244 66.8736 49.1126 63.7459 47.1058Z" fill="white"/>
<path d="M37.3832 13.5384C34.2354 11.4866 27.9088 15.4091 22.8414 22.1374C18.2075 28.1727 16.2066 35.1871 18.3841 38.4308C21.6234 42.2476 27.6367 36.6959 30.1939 33.7244L30.5239 33.377C32.2629 31.5213 33.6065 29.2884 34.9069 27.1459C34.9069 27.1459 36.1021 25.1847 36.1592 25.094C36.8979 24.9587 37.7876 24.7474 38.7903 24.4607C38.7759 24.5056 34.9542 30.8874 35.3441 34.055C35.4655 35.0214 35.3727 38.5516 38.8421 39.6225C43.4661 40.3925 47.1583 36.8316 50.4157 33.6633C50.4157 33.6633 50.9707 33.1358 51.2847 32.8346C51.2052 33.1507 51.1016 33.5722 51.1016 33.5722C49.7479 38.2492 51.5727 39.2304 52.7141 39.5926C56.1638 40.5889 60.285 35.6099 60.2983 35.6099C60.1914 37.1783 59.8789 38.4758 61.543 39.5168C63.1138 40.0754 64.7035 39.2239 65.9118 38.4242C70.2641 35.3768 73.7704 30.6073 76.6026 26.4844H74.7961C74.7747 26.4844 70.3383 32.8724 67.4576 34.2607C67.4531 34.2607 66.9289 34.5281 66.6268 34.3166C66.2529 33.9996 66.4004 33.3407 66.6314 32.874C66.6459 32.8435 77.754 13.7035 77.754 13.7035H72.5092C72.5092 13.7035 71.9363 14.6243 71.8896 14.6847C71.8543 14.6546 71.7703 14.4963 71.712 14.4205C68.4626 9.95499 61.104 16.8237 55.5639 24.7891C53.431 27.8519 50.7155 31.3005 47.8997 33.7897C47.8997 33.7897 43.7283 37.5885 41.9459 34.8592C41.2944 33.7124 41.4948 32.0358 41.8623 30.9348C43.9375 25.0661 47.5133 19.74 51.5824 16.5262C52.7311 15.6367 53.9797 15.3794 54.5993 15.7567C55.1896 16.1042 55.2848 16.9635 54.9113 17.552C53.9637 17.5219 53.2045 17.808 52.5871 18.4417C51.3712 19.7091 50.9487 20.9313 51.3353 22.0781C53.2134 24.7332 56.959 19.4829 56.7778 16.2846C56.7131 15.1378 56.0972 14.0519 55.1782 13.5233C53.8085 12.7091 51.719 12.9199 50.3667 13.5691C48.5565 14.2477 45.6909 16.6161 44.0182 18.457C41.9125 20.7656 38.3012 23.33 37.1718 23.0428C37.5417 22.0618 40.5922 15.8614 37.3832 13.5384ZM62.6694 22.7109C63.6896 21.3081 66.6592 17.5514 67.3831 16.9179C69.8179 14.7899 70.7911 15.7262 70.8754 16.3895C68.603 20.4326 65.9211 25.0645 63.3996 29.2286C63.4047 29.2137 62.6104 30.4203 62.6104 30.4203C61.4968 32.1096 60.3754 33.558 58.5463 34.5687C58.2855 34.6446 57.8556 34.6749 57.5694 34.463C57.225 34.2366 57.0891 33.8594 57.1279 33.4669C57.2374 32.1698 58.5669 28.2028 62.6694 22.7109ZM34.1371 25.1397C34.1371 25.1397 34.0914 25.276 34.0688 25.3205C34.063 25.3205 31.7822 29.0162 31.7822 29.0162C30.4056 30.8421 28.6869 33.1358 26.5384 34.2366C25.9016 34.4479 25.0214 34.584 24.5728 34.0261C23.6218 32.8944 24.1119 31.3255 24.5101 30.0583L24.651 29.6056C25.7927 26.5283 27.6041 23.8122 29.3673 21.2927C29.3893 21.2778 29.4386 21.2628 29.4565 21.2628C29.4606 21.2778 29.4677 21.2778 29.4708 21.3081C30.5772 23.4199 32.6518 24.4001 34.2033 24.8534C34.2126 24.8534 34.2226 24.8684 34.2226 24.8987C34.2228 24.9437 34.1975 25.0045 34.1371 25.1397ZM36.298 20.7802C36.288 20.8103 35.2821 23.1032 35.2821 23.1032C35.1366 23.2238 34.9067 23.1636 34.6432 23.1032L34.1916 23.0274C32.7738 22.5901 31.7043 21.6547 31.3746 20.5384C30.9198 18.3658 32.7879 16.661 33.6111 16.0428C34.4008 15.4992 35.6286 15.2127 36.3415 15.7711C36.7812 16.2842 36.9479 16.9478 36.9479 17.6724C36.9481 18.6528 36.6435 19.754 36.298 20.7802Z" fill="white"/>
<path d="M102.603 27.7798C102.097 26.6938 100.896 25.9998 99.6168 26.075C95.462 26.4524 91.3981 29.8468 89.2644 34.7194C88.1448 37.2241 87.5337 39.2906 87.133 42.5795C88.4249 41.1014 91.0601 38.6726 94.0506 37.3449C94.0506 37.3449 94.4575 34.1919 96.5325 31.3857C97.3177 30.2236 98.8891 28.3531 100.653 28.8507C102.195 29.364 101.653 33.6034 99.6044 37.706C98.0884 40.7238 95.7685 43.7419 93.4213 45.8233C91.3461 47.5735 88.2757 49.6854 85.5894 48.0563C83.8974 47.061 83.0344 44.9785 83.2168 42.2931C84.0253 34.6747 87.516 28.1873 92.5116 20.795C97.6626 13.9307 103.341 6.88531 110.99 3.12814C112.55 2.34376 113.995 2.16277 115.244 2.64556C115.244 2.64556 108.063 6.56805 104.641 13.8249C103.77 15.6658 102.559 18.1543 103.778 20.3572C104.416 21.5036 105.547 21.5943 106.458 21.5339C110.654 20.5681 113.364 16.6759 115.579 13.1158C116.863 10.4153 118.004 7.72988 118.004 4.74265C118.004 4.38066 117.985 3.89808 117.954 3.53568C119.959 2.48002 124.069 4.35036 124.069 4.35036C127.281 5.40685 134.12 10.612 136.427 11.6072C137.552 10.31 139.401 8.34893 140.442 7.36809L138.935 6.44766C136.522 4.98425 133.971 3.59608 131.46 2.22337C125.758 -0.868985 121.117 0.216979 118.755 1.06196C117.827 1.39365 116.978 1.68039 116.978 1.68039C115.225 -0.220457 112.35 -0.0398757 110.232 0.473421C102.614 2.64576 95.5409 7.94097 87.9578 17.129C82.3827 24.3255 78.9245 30.5413 77.0813 36.6813C75.6605 40.8147 75.2287 46.8947 78.6965 50.5005C81.6448 53.5622 85.5543 52.899 88.3151 51.798C94.2967 48.8712 99.6728 42.5646 102.352 35.3079C102.998 33.1509 103.716 30.1034 102.603 27.7798ZM116.357 5.04465C115.565 14.0665 108.506 19.3623 106.76 19.7841C105.701 19.995 103.895 19.5277 105.507 15.7414C107.882 10.6417 111.935 6.31223 116.285 4.09433C116.391 4.47157 116.388 4.71235 116.357 5.04465Z" fill="white"/>
<path d="M158.23 6.19081C154.433 8.33346 150.497 9.72101 145.732 9.23843C144.412 10.7173 143.126 12.2409 141.941 13.8097C148.629 15.4994 155.718 11.7429 159.672 8.16772C163.855 4.56186 166 0.0211411 166 0.0211411C166 0.0211411 162.865 3.58124 158.23 6.19081Z" fill="white"/>
<path d="M83.6607 18.2389L86.4713 13.7037H81.4904L78.6809 18.2389H83.6607Z" fill="white"/>
<path d="M145.712 47.5257C145.177 47.8877 144.424 47.6094 144.706 46.7798C145.406 44.6677 148.192 40.3634 148.192 40.3634L155.952 26.6907H150.637C150.384 27.103 149.844 28.0499 149.844 28.0499C149.598 27.6429 148.863 26.738 148.56 26.5425C147.261 25.7272 145.356 26.1127 144.042 26.8517C138.327 30.1713 134.158 36.7297 130.87 41.8443C130.87 41.8443 127.409 47.5298 125.487 47.9526C123.987 48.0734 124.142 46.066 124.207 45.5982C124.787 42.2183 126.134 39.0051 127.491 36.0934C130.251 34.1925 133.401 31.7033 136.263 28.9728C142.475 23.0733 147.712 16.39 148.478 14.8965C148.478 14.8965 147.649 15.0626 146.671 15.0925C141.892 21.7155 132.112 31.3411 129.147 32.774C130.46 29.6355 138.947 14.6549 146.168 7.4889L147.305 6.40232C149.062 4.69751 150.883 2.94756 152.301 2.66082C152.451 2.64577 152.644 2.66082 152.811 3.00838C152.874 4.33573 152.377 5.31656 151.806 6.43283L151.006 8.06239C151.006 8.06239 152.139 7.8511 152.883 7.60908C153.746 5.9956 154.702 4.18463 154.35 2.02775C154.232 1.33367 153.727 0.805733 153.066 0.684933C150.911 0.277594 148.564 1.86119 146.674 3.14402L146.598 3.18896C136.887 10.7474 128.687 21.64 121.517 36.5155C120.998 36.9072 118.99 37.3754 118.649 37.1488C119.357 35.7009 120.248 33.7543 120.694 31.6421C120.771 31.0385 120.843 30.4203 120.843 29.8169C120.843 28.5184 120.529 27.2968 119.359 26.4522C117.986 25.7732 116.289 26.0903 115.145 26.6029C110.02 28.7151 106.19 33.9355 103.426 38.2346C101.94 40.966 100.457 43.8914 100.047 47.2412C99.7579 49.8658 100.346 51.5556 101.848 52.4007C103.393 53.1847 105.338 52.3698 106.101 51.9779C111.293 49.2624 114.921 43.8165 117.78 38.8375C117.894 38.8227 119.455 38.7778 120.636 38.4756C120.652 38.4756 120.659 38.4756 120.685 38.4914C120.617 38.7167 120.007 40.5277 120.007 40.5277C118.195 45.8077 117.356 49.3987 119.068 51.5255C121.515 54.5279 125.564 51.4203 128.859 47.316C128.152 52.2342 130.717 53.0039 132.673 52.6271C134.92 52.0239 137.423 49.6397 138.585 48.4181C138.212 49.851 138.313 52.416 140.357 52.6722C141.758 52.9295 142.806 52.1725 144.019 51.5236C148.37 49.1699 153.579 41.3267 154.931 39.0591H153.158C151.236 41.9454 148.789 45.7295 145.712 47.5257ZM106.657 47.0004C106.381 46.5931 106.29 46.1476 106.28 45.666C106.228 42.7079 109.431 37.4102 111.692 34.5242C111.697 34.5242 111.697 34.5242 111.697 34.5242C112.645 36.5856 114.791 37.9107 116.086 38.4692C114.477 42.0299 108.959 49.6555 106.657 47.0004ZM116.994 36.8773C116.841 36.9835 114.135 36.0779 113.612 33.5887C113.168 31.4457 114.654 29.7712 116.091 28.927C116.708 28.444 117.637 28.2785 118.319 28.5188C118.951 28.9418 119.123 29.6967 119.123 30.5102C119.123 31.009 119.056 31.5215 118.998 31.989C118.998 31.989 118.986 32.08 118.984 32.095C118.534 33.7691 117.844 35.4137 116.994 36.8773ZM138.698 46.0501C138.696 46.0501 138.185 46.5026 138.185 46.5026C137.455 47.1509 136.704 47.845 135.797 47.4978C135.546 47.4073 135.37 47.0759 135.328 46.8186C135.286 44.9629 136.128 43.2434 136.943 41.5691L137.153 41.1313C139.499 37.2391 142.226 32.6528 146.232 29.47C146.907 28.9862 147.639 28.5796 148.413 28.8967C148.59 29.0622 148.797 29.3492 148.797 29.6355C148.797 29.7264 148.716 29.9676 148.669 30.0426C147.551 31.8388 146.485 33.7244 145.449 35.5345C143.424 39.1103 141.324 42.806 138.698 46.0501Z" fill="white"/>
</svg>
