<svg xmlns="http://www.w3.org/2000/svg" width="1991" height="1991"><defs><clipPath id="a"><path d="M0 1493V-.297h1493.25V1493H0z" clip-rule="evenodd"/></clipPath><clipPath id="b"><path d="M0-.297h1494v1494H0z" clip-rule="evenodd"/></clipPath></defs><g clip-path="url(#a)" transform="scale(1.3333)"><g clip-path="url(#b)"><path fill="#F40009" d="M1493.25 746.398c0-412.337-334.312-746.695-746.699-746.695C334.262-.297 0 334.062 0 746.398 0 1158.734 334.262 1493 746.551 1493c412.387 0 746.699-334.266 746.699-746.602"/><path fill="#FFF" d="M662.988 945.59c-32.101-22.63-71.207-32.617-106.765-31.06-35.938 1.375-52.082 28.125-52.082 28.125-16.192-28.125-48.2-45.593-97.77-45.12-79.965.995-159.269 37.926-222.144 37.926-60.368 0-104.356-37.927-102.887-105.25 2.558-117.942 102.223-224.231 176.746-272.196 42.797-27.507 78.687-35.7 102.172-33 17.09 1.942 37.64 21.683 24.715 50.71-19.035 42.798-45.407 39.107-44.457 18.793.566-13.3 9.371-21.589 16-26.178 4.261-2.938 11.695-3.692 15.484-3.79 3.789-3.171 6.676-26.61-24.004-18.843-30.683 7.766-67.66 37.78-102.836 76.702-35.226 38.868-90.055 112.54-103.547 189.716-6.297 35.887-2.082 101.226 82.809 100.468 71.965-.617 178.16-48.011 275.695-47.253 37.926.332 70.879 10.558 96.586 26.467 25.285 15.622 55.586 38.302 66.285 53.783m23.106-213.953h14.722s-73.859 106.859-115.711 102.078c-23.296-2.654-16.382-31.582-16.382-31.582s-32.86 38.444-62.828 30.776c-27.274-7.054-9.707-52.46-9.707-52.46-3.079 1.37-62.165 67.942-103.641 51.984-43.32-16.664-20.879-72.437-12.594-89.293 6.961-14.063 14.727-27.792 14.727-27.792s-6.723 1.894-10.797 2.793c-4.168.996-10.465 2.178-10.465 2.178s-20.5 33.38-33.094 50.095c-12.5 16.523-65.859 73.948-97.25 62.495-31.437-11.413-23.672-55.347-5.965-90.288 28.598-56.77 96.493-126.273 137.399-115.953 41.332 10.558 7.152 77.648 7.152 77.648s8.188 1.136 27.883-12.454c28.41-19.315 65.812-71.346 106.391-65.288 18.98 2.84 36.785 22.442 12.543 59.469-7.762 11.93-20.786 22.629-30.821 12.023-6.203-6.39-.804-18.372 5.727-26.512 9.187-11.601 21.875-10.086 21.875-10.086s6.722-15.34-10.274-15.101c-13.824.234-48.671 32.476-68.414 65.004-18.086 29.734-45.453 80.633-17.945 91.71 25.188 10.18 73.148-46.823 95.402-76.652 22.207-29.828 72.774-97.632 115.192-100.281 14.586-1.043 23.344 12.261 23.344 12.261l4.921-7.765h42.379s-79.922 133.614-86.172 143.743c-4.925 7.91-11.41 25.71 6.629 15.722 18.133-10.04 55.774-58.472 55.774-58.472M356.898 718.14c-.714-.333-11.414-3.313-21.781-10.087-10.418-6.578-15.246-16.472-15.625-17.183-.379-.759-.851-.141-1.23.426-.426.519-2.653 3.452-17.801 25.66-15.152 22.16-37.5 67.66-16.477 75.426 13.399 5.061 35.981-18.61 48.243-34.236 11.316-14.484 24.812-36.836 25.425-38.113.524-1.323 0-1.655-.754-1.894m16.805-71.02c-11.125-8.476-39.437 11.177-39.531 31.345-.192 20.69 25.516 26.562 28.832 26.703 0 0 2.934.71 4.07-1.656.711-1.563 4.215-8 8.145-18.184 3.883-10.32 8.855-30.348-1.516-38.207m216.184 111.172c17.136-23.486 64.343-105.82 64.343-105.82s-.757-5.779-6.25-6.063c-6.582-.234-17.375 1.898-39.109 29.12-21.73 27.13-38.445 48.767-50.707 71.207-13.445 24.481-19.316 41.716-11.601 46.543 2.132 1.232 5.445 1.372 8.097.806 5.02-1.328 11.598-6.302 20.641-16.763 4.215-4.832 8.949-11.269 14.586-19.03M780.5 630.788h-40.242l-22.727 36.93h40.246zm594.668-66.094c-29.688 19.173-71.02 36.454-110.648 32.622-10.036 10.46-20.735 22.442-31.579 35.507 68.84 13.587 128.973-28.975 161.024-65.34 19.98-22.628 29.781-42.893 29.781-42.893s-19.078 21.117-48.578 40.104M1257.371 877.13c-5.777 9.09-12.215 26.562 6.629 15.721 22.914-13.402 55.586-62.924 55.586-62.924h14.723s-19.411 30.87-44.789 58.992c-23.293 25.664-51.61 49.19-71.586 46.875-23.34-2.746-16.051-33.38-16.051-33.38s-33.477 35.555-56.531 33.048c-31.11-3.41-21.637-42.09-21.637-42.09s-35.274 43.366-59.277 42.09c-37.688-2.18-28.266-48.293-17.758-80.349 5.636-17.327 10.797-30.87 10.797-30.87s-3.743 1.043-11.743 2.133c-4.214.663-11.882 1.137-11.882 1.137s-15.672 27.699-28.172 44.269c-12.594 16.758-65.86 74.094-97.297 62.543-29.024-10.512-19.461-55.062-2.555-90.337 24.617-51.464 93.934-125.468 133.988-115.808 41.426 10.133.946 85.79.946 85.79s0 .19.429.332c.899.378 2.981.617 8-.333 8.004-1.558 15.149-4.542 15.149-4.542s41.668-87.258 87.687-144.453c46.067-57.102 137.871-155.485 173.95-131.72 8.851 5.824 4.828 25.993-7.055 50.426-5.16 1.61-10.652 3.219-16.242 4.305 7.906-14.485 13.211-26.511 14.773-35.036 5.348-29.491-63.492 32.625-112.73 99.57-49.145 66.997-78.688 127.697-78.688 127.697s9.942-5.685 25.422-18.086c16.145-13.072 38.305-33.43 62.5-58.477 16.238-16.665 35.32-37.781 53.215-61.36 5.305-.28 10.512-.805 15.625-1.702-19.883 26.937-40.906 51.37-58.711 69.453-19.504 19.886-40.813 41.194-59.32 56.769-29.403 24.765-52.086 38.825-52.086 38.825s-43.129 86.738-19.742 92.37c13.828 3.223 41.003-38.632 41.003-38.632s35.461-54.164 56.817-78.595c29.211-33.14 54.301-52.268 79.398-52.694 14.629-.332 23.199 15.241 23.199 15.241l6.915-10.554h42.468s-79.07 134.223-85.367 144.356m-238.246-52.935c-.805-.284-9.941-4.401-19.457-12.307-9.52-8-14.395-17.141-14.68-17.754-.379-.712-.804-.192-1.23.379-.473.613-2.18 1.988-17.328 24.336-15.059 22.203-38.254 68.035-17.188 75.8 13.352 4.968 35.844-18.558 48.012-34.183 11.363-14.633 21.918-32.953 22.535-34.375.613-1.231.047-1.658-.664-1.896m21.352-37.495c3.933-10.18 8.902-30.207-1.512-38.066-11.082-8.43-39.391 11.264-39.582 31.342-.145 20.594 20.027 29.97 24.855 31.2 2.746.758 3.645.712 5.067-1.515.851-1.562 7.246-12.641 11.172-22.962m243.363-28.265c.851-1.562 1.23-2.89 1.23-2.89s-.804-5.774-6.297-6.06c-6.535-.331-15.484 1.044-38.871 26.943-23.343 25.753-37.5 48.245-49.761 70.686-13.446 24.478-18.797 42.755-11.078 47.442 2.175 1.278 5.492 1.469 8.093.758 5.211-1.188 11.129-6.11 20.172-16.48 4.211-4.828 8.902-11.739 14.442-19.457 15.433-21.164 54.304-87.543 62.07-100.942m91.328-193.739c-29.688 19.173-71.02 36.454-110.648 32.622-10.036 10.46-20.735 22.442-31.579 35.507 68.84 13.587 128.973-28.975 161.024-65.34 19.98-22.628 29.781-42.893 29.781-42.893s-19.078 21.117-48.578 40.104m-193.219 49.904c-32.476-16.715-56.199-37.122-81.008-49.762-23.625-12.125-38.824-17.142-57.906-14.63-3.172.423-7.906 1.892-7.906 1.892s9.898 33.57-29.211 90.054c-39.582 57.144-75.473 56.86-85.699 41-10.699-16.618 3.078-50.423 26.183-80.348 24.098-31.485 66.52-57.621 66.52-57.621s-13.539-8.235-46.777 10.515c-32.383 18.414-88.204 62.07-139.907 135.786-51.656 73.531-61.929 114.153-69.41 146.015-7.48 31.817-.617 66.052 34.75 66.052 35.465 0 76.559-54.024 88.16-72.724 21.496-34.991 35.559-88.538 6.25-81.151-14.488 3.55-26.23 19.695-33.613 35.034-7.578 15.86-10.609 31.058-10.609 31.058s-12.215 4.31-28.692 16.664c-16.383 12.266-27.082 24.055-27.082 24.055s.047-25.425 20.36-66.757c20.359-41.239 57.668-60.176 78.738-61.93 19.078-1.515 43.84 14.63 22.867 74.333C886.938 861.74 825.102 934.229 760 935.129c-59.988.948-99.332-75.755-15.859-209.602 92.324-147.86 200.933-193.265 236.211-198.239 35.222-5.206 46.632 10.419 46.632 10.419s29.496-13.684 66.95-11.177c43.086 2.986 76.367 33.332 120.211 54.688-11.457 11.173-22.348 22.63-32.196 33.38m-160.172-58.051s-25.187 10.132-54.449 42.332c-29.355 32.383-46.305 68.553-33.664 78.168 4.832 3.69 15.957 4.308 36.316-13.97 15.817-14.25 31.864-32.812 42.895-59.562 13.023-31.957 8.902-46.54 8.902-46.968"/></g></g></svg>