<svg width="79" height="62" viewBox="0 0 79 62" fill="none" xmlns="http://www.w3.org/2000/svg">
<path d="M53.6102 45.0149V-0.000294956C51.7112 -0.00459366 49.8168 0.18562 47.9568 0.567353C42.4699 1.68731 37.4413 4.40998 33.511 8.38882C29.5807 12.3677 26.9266 17.4227 25.8864 22.9105C24.8462 28.3983 25.467 34.0706 27.6698 39.2054C29.8727 44.3402 33.5578 48.7053 38.2562 51.7451C34.3167 50.3062 30.7498 48.0066 27.8169 45.0149H0V50.6428H17.4925C21.907 50.6441 26.2224 51.9482 29.895 54.3908L35.5621 58.1486C39.2321 60.5906 43.5448 61.8947 47.9568 61.8966H48.5202C52.9348 61.8962 57.2505 60.592 60.9226 58.1486L66.5897 54.3908C70.2614 51.9463 74.5774 50.642 78.9922 50.6428V45.0149H53.6102Z" fill="white"/>
</svg>
