<svg width="333" height="256" viewBox="0 0 333 256" fill="none" xmlns="http://www.w3.org/2000/svg">
<rect width="333" height="256" fill="black"/>
<g clip-path="url(#clip0_3521_16869)">
<path d="M183.825 145.272V89.9997C181.494 89.9944 179.167 90.228 176.884 90.6967C170.147 92.0718 163.972 95.4149 159.146 100.3C154.321 105.186 151.062 111.393 149.785 118.131C148.507 124.869 149.27 131.834 151.974 138.138C154.679 144.443 159.204 149.803 164.973 153.535C160.136 151.768 155.756 148.945 152.155 145.272H118V152.182H139.478C144.899 152.183 150.197 153.785 154.707 156.784L161.665 161.398C166.171 164.396 171.466 165.997 176.884 166H177.575C182.996 165.999 188.295 164.398 192.804 161.398L199.762 156.784C204.27 153.782 209.57 152.181 214.99 152.182V145.272H183.825Z" fill="white"/>
</g>
<defs>
<clipPath id="clip0_3521_16869">
<rect width="97" height="76" fill="white" transform="translate(118 90)"/>
</clipPath>
</defs>
</svg>
