<svg width="277" height="30" viewBox="0 0 277 30" fill="none" xmlns="http://www.w3.org/2000/svg">
<g clip-path="url(#clip0_3824_16606)">
<path d="M0 0.691696H11.4075C19.3746 0.691696 23.0743 3.30934 23.0743 8.22577C23.0743 11.3474 21.4539 13.3685 18.6668 14.4253C22.0372 15.3921 23.852 17.7424 23.852 21.134C23.852 25.6364 21.1661 29.3134 12.3201 29.3134H0V0.691696ZM5.33301 4.41245V12.7256H13.2016C16.6731 12.7256 17.5468 12.7256 17.5468 9.23631V8.22834C17.5468 4.41245 16.852 4.41245 12.7038 4.41245H5.33301ZM18.195 21.548V20.2623C18.195 16.3127 17.1372 16.3127 13.3857 16.3127H5.33301V25.5901H13.2016C16.9998 25.5901 18.195 25.5901 18.195 21.548Z" fill="white"/>
<path d="M33.6677 0.691696H39.0473V25.4976H52.656L50.9734 29.3134H33.6677V0.691696Z" fill="white"/>
<path d="M162.241 0.691696H173.648C181.615 0.691696 185.315 3.30934 185.315 8.22577C185.315 11.3474 183.694 13.3685 180.907 14.4253C184.278 15.3921 186.093 17.7346 186.093 21.134C186.093 25.6364 183.407 29.3109 174.558 29.3109H162.241V0.691696ZM167.574 4.41245V12.7256H175.442C178.916 12.7256 179.787 12.7256 179.787 9.23631V8.22834C179.787 4.41502 179.1 4.41502 174.931 4.41502L167.574 4.41245ZM180.446 21.548V20.2623C180.446 16.3127 179.385 16.3127 175.634 16.3127H167.574V25.5901H175.442C179.24 25.5901 180.446 25.5901 180.446 21.548Z" fill="white"/>
<path d="M197.98 0.771408H203.359V29.3906H197.98V0.771408Z" fill="white"/>
<path d="M216.242 0.691696H229.304C236.021 0.691696 240.335 3.08563 240.335 8.68347C240.324 10.0446 239.892 11.3694 239.097 12.4787C238.301 13.588 237.182 14.4282 235.889 14.8856C238.482 15.9887 239.547 17.7809 239.547 21.0414V29.3134H234.16V21.3628C234.16 18.1023 233.473 16.539 229.534 16.539H221.622V29.3134H216.242V0.691696ZM221.622 4.45873V12.7719H230.509C233.379 12.7719 234.53 12.7719 234.53 9.6863V8.1332C234.53 4.45873 233.009 4.45873 229.073 4.45873H221.622Z" fill="white"/>
<path d="M251.942 0.691696H261.017C271.532 0.691696 277.044 6.1584 276.997 15.1607C276.904 24.6259 271.208 29.3032 261.203 29.3032H251.942V0.691696ZM270.785 16.1713V13.461C270.785 4.4613 267.366 4.4613 261.193 4.4613H257.304V25.4976H261.234C267.737 25.4976 270.785 25.5901 270.785 16.1713Z" fill="white"/>
<path d="M140.872 11.7845L153.879 0.691696H147.903L132.812 13.7953V0.691696H131.02H127.432V29.3109H131.02H132.812V18.6346L137.02 15.0681L148.321 29.3109H154.673L140.872 11.7845Z" fill="white"/>
<path d="M81.0658 29.3134H86.8162L74.3121 0.691696H69.3861L56.6564 29.3134H61.2427L64.7272 21.3422H77.6462L81.0658 29.3134ZM66.3942 17.5264L71.2476 6.42839L76.0076 17.5212L66.3942 17.5264Z" fill="white"/>
<path d="M114.238 20.5708H118.905C118.218 26.4515 113.543 29.9923 106.378 29.9923H106.144C98.3663 29.9923 94.1352 25.621 92.9426 20.0283C92.5308 18.3746 92.3296 16.6763 92.3437 14.973C92.326 13.1336 92.5659 11.3008 93.0567 9.52687C94.3711 4.08331 98.5919 0 106.139 0H106.372C113.352 0 118.236 3.36333 118.928 9.51401H114.243C113.52 4.08074 108.97 3.93932 106.878 3.85703C106.772 3.85703 106.665 3.85703 106.559 3.85703H105.952C105.846 3.85703 105.74 3.85703 105.633 3.85703C103.054 3.89817 101.135 4.19645 99.9556 5.77783C99.0612 6.98123 98.5971 8.93032 98.5971 12.0725V17.9095C98.5971 21.0388 99.0612 22.9853 99.9478 24.1887C101.127 25.7804 103.046 26.0838 105.633 26.1224C105.74 26.1224 105.846 26.1224 105.952 26.1224C106.059 26.1224 106.152 26.1224 106.258 26.1224C106.365 26.1224 106.46 26.1224 106.559 26.1224C106.658 26.1224 106.772 26.1224 106.878 26.1224C108.975 26.0581 113.52 26.0375 114.238 20.5708Z" fill="white"/>
</g>
<defs>
<clipPath id="clip0_3824_16606">
<rect width="277" height="30" fill="white"/>
</clipPath>
</defs>
</svg>
