<svg width="61" height="61" viewBox="0 0 61 61" fill="none" xmlns="http://www.w3.org/2000/svg">
<path d="M59.5037 31.9966C60.817 31.4339 60.817 29.5725 59.5037 29.0097L50.6951 25.2346C43.9842 22.3585 38.6368 17.0111 35.7608 10.3002L31.9856 1.49162C31.4229 0.178602 29.5614 0.178604 28.9987 1.49163L25.2236 10.3002C22.3475 17.0111 17.0001 22.3585 10.2892 25.2346L1.48062 29.0097C0.167594 29.5725 0.167593 31.4339 1.48062 31.9966L10.2892 35.7718C17.0001 38.6478 22.3475 43.9952 25.2236 50.7061L28.9987 59.5146C29.5615 60.8279 31.4229 60.8279 31.9856 59.5146L35.7608 50.7061C38.6368 43.9952 43.9842 38.6478 50.6951 35.7718L59.5037 31.9966Z" fill="white"/>
</svg>
