<svg width="291" height="57" viewBox="0 0 291 57" fill="none" xmlns="http://www.w3.org/2000/svg">
<g clip-path="url(#clip0_3728_16403)">
<path d="M69.6897 34.0417C72.3169 34.0417 74.4491 31.9137 74.4491 29.2917V22.1667C74.4491 19.5447 72.3169 17.4167 69.6897 17.4167H46.6862V39.5833H53.8252V34.0417H69.6897ZM53.8252 22.9583H65.8822C66.758 22.9583 67.4687 23.6677 67.4687 24.5417V26.9167C67.4687 27.7907 66.758 28.5 65.8822 28.5H55.015L53.8252 31.2708V22.9583Z" fill="white"/>
<path d="M203.269 34.0417H183.438V17.4167H176.299V34.8333C176.299 37.4553 178.432 39.5833 181.059 39.5833H200.969L203.269 34.0417Z" fill="white"/>
<path d="M232.063 34.0417H212.233V17.4167H205.094V34.8333C205.094 37.4553 207.226 39.5833 209.853 39.5833H229.763L232.063 34.0417Z" fill="white"/>
<path d="M291 34.0417H271.169V17.4167H264.03V34.8333C264.03 37.4553 266.162 39.5833 268.79 39.5833H288.7L291 34.0417Z" fill="white"/>
<path d="M93.4263 17.4167H86.2492C85.1164 17.4167 84.0694 18.0215 83.5014 19L71.5935 39.5833H79.5258L81.1313 36.8093H98.5474L100.153 39.5833H108.085L96.1772 19C95.6092 18.0215 94.5622 17.4167 93.4295 17.4167H93.4263ZM95.3395 31.2677H84.3359L88.9144 23.3542C89.0572 23.1103 89.3174 22.9583 89.5998 22.9583H90.0725C90.3581 22.9583 90.6214 23.1072 90.761 23.351L95.3395 31.2677Z" fill="white"/>
<path d="M161.168 17.4167H153.991C152.858 17.4167 151.811 18.0215 151.243 19L139.335 39.5833H147.267L148.873 36.8093H166.289L167.894 39.5833H175.827L163.919 19C163.351 18.0215 162.304 17.4167 161.171 17.4167H161.168ZM163.081 31.2677H152.077L156.656 23.3542C156.799 23.1103 157.059 22.9583 157.341 22.9583H157.814C158.1 22.9583 158.363 23.1072 158.503 23.351L163.081 31.2677Z" fill="white"/>
<path d="M137.59 29.2917V22.1667C137.59 19.5447 135.461 17.4167 132.831 17.4167H109.827V39.5833H116.966V34.0417H123.87L129.42 39.5802H137.59L132.041 34.0417H132.831C135.461 34.0417 137.59 31.9137 137.59 29.2917ZM130.61 26.9167C130.61 27.7907 129.899 28.5 129.023 28.5H118.156L116.966 31.2708V22.9583H129.023C129.899 22.9583 130.61 23.6677 130.61 24.5417V26.9167Z" fill="white"/>
<path d="M241.027 22.9583V25.7292H261.651V31.2708H241.027V34.0417H261.651V39.5833H238.647C236.017 39.5833 233.888 37.4585 233.888 34.8333V22.1667C233.888 19.5447 236.017 17.4167 238.647 17.4167H261.651V22.9583H241.027Z" fill="white"/>
<path d="M4.43575 51.2683C4.2073 51.775 4.07721 52.3387 4.07721 52.9308C4.07721 55.1792 5.9048 57.0032 8.15757 57.0032C9.87094 57.0032 11.3368 55.9455 11.9397 54.4508L24.1173 26.0933C24.3457 25.5867 24.4758 25.023 24.4758 24.4308C24.4758 22.1825 22.6482 20.3585 20.3955 20.3585C18.6821 20.3585 17.2162 21.4162 16.6134 22.9108L4.43575 51.2683Z" fill="white"/>
<path d="M0.358538 30.9099C0.130089 31.4166 0 31.9802 0 32.5724C0 34.8207 1.82759 36.6447 4.08036 36.6447C5.79373 36.6447 7.25961 35.5871 7.86246 34.0924L20.0401 5.73172C20.2685 5.22505 20.3986 4.66139 20.3986 4.06922C20.3986 1.82089 18.571 -0.00311279 16.3183 -0.00311279C14.6049 -0.00311279 13.139 1.05455 12.5362 2.54922L0.358538 30.9099Z" fill="white"/>
</g>
<defs>
<clipPath id="clip0_3728_16403">
<rect width="291" height="57" fill="white"/>
</clipPath>
</defs>
</svg>
