<svg xmlns="http://www.w3.org/2000/svg" width="139" height="32" viewBox="0 0 32 32" fill="none">
<path d="M29.6367 19.9168L26.1446 17.9664L18.3674 22.5378C17.8486 22.835 17.2802 22.9893 16.7045 22.9893C16.1288 22.9893 15.5605 22.835 15.0416 22.5378L4.80849 16.9302L1.26527 19.0026C0.901914 19.2363 0.598383 19.5828 0.386839 20.0053C0.175295 20.4278 0.0635986 20.9106 0.0635986 21.4026C0.0635986 21.8945 0.175295 22.3773 0.386839 22.7998C0.598383 23.2223 0.901914 23.5688 1.26527 23.8025L14.9777 31.3454C15.4946 31.6503 16.0637 31.8089 16.6406 31.8089C17.2174 31.8089 17.7865 31.6503 18.3035 31.3454L29.5727 24.6864C29.9331 24.4571 30.2354 24.1171 30.4482 23.7017C30.6611 23.2863 30.7768 22.8106 30.7833 22.324C30.7898 21.8374 30.6869 21.3576 30.4853 20.9343C30.2837 20.511 29.9907 20.1597 29.6367 19.9168Z" fill="url(#paint0_linear_59_742)"/>
<path d="M12.8106 0.451521C13.3298 0.154329 13.8985 0 14.4745 0C15.0506 0 15.6193 0.154329 16.1384 0.451521L29.6544 8.07057C30.0148 8.30556 30.3155 8.65164 30.525 9.07255C30.7345 9.49345 30.845 9.97369 30.845 10.4629C30.845 10.9522 30.7345 11.4324 30.525 11.8533C30.3155 12.2742 30.0148 12.6203 29.6544 12.8553L18.3783 19.5144C17.861 19.8193 17.2916 19.9779 16.7144 19.9779C16.1372 19.9779 15.5678 19.8193 15.0505 19.5144L1.32973 11.8953C0.965764 11.6638 0.661439 11.319 0.449257 10.8976C0.237075 10.4763 0.125 9.99421 0.125 9.50293C0.125 9.01165 0.237075 8.52962 0.449257 8.10826C0.661439 7.6869 0.965764 7.34206 1.32973 7.11056L12.8106 0.451521Z" fill="url(#paint1_linear_59_742)"/>
<defs>
<linearGradient id="paint0_linear_59_742" x1="30.7777" y1="22.7839" x2="0.0705866" y2="22.7839" gradientUnits="userSpaceOnUse">
<stop stop-color="#EF18AC"/>
<stop offset="1" stop-color="#FAD972"/>
</linearGradient>
<linearGradient id="paint1_linear_59_742" x1="26.9416" y1="15.0895" x2="0.130607" y2="15.0895" gradientUnits="userSpaceOnUse">
<stop stop-color="#5314F1"/>
<stop offset="1" stop-color="#04E2FF"/>
</linearGradient>
</defs>
</svg>