<svg width="333" height="256" viewBox="0 0 333 256" fill="none" xmlns="http://www.w3.org/2000/svg">
<rect width="333" height="256" fill="#DEF141"/>
<g clip-path="url(#clip0_3521_17498)">
<path d="M151.977 169.641C151.568 170.558 151.333 171.574 151.333 172.643C151.333 176.706 154.617 180 158.667 180C161.748 180 164.382 178.09 165.467 175.39L187.358 124.146C187.767 123.229 188 122.214 188 121.144C188 117.082 184.716 113.787 180.667 113.787C177.585 113.787 174.952 115.697 173.866 118.398L151.977 169.641ZM144.644 132.855C144.235 133.773 144 134.788 144 135.857C144 139.92 147.284 143.214 151.333 143.214C154.415 143.214 157.048 141.305 158.134 138.604L180.025 87.3589C180.434 86.4417 180.667 85.4264 180.667 84.3571C180.667 80.2944 177.383 77 173.333 77C170.252 77 167.618 78.9096 166.533 81.6105L144.644 132.855Z" fill="black"/>
</g>
<defs>
<clipPath id="clip0_3521_17498">
<rect width="44" height="103" fill="white" transform="translate(144 77)"/>
</clipPath>
</defs>
</svg>
