<svg width="333" height="256" viewBox="0 0 333 256" fill="none" xmlns="http://www.w3.org/2000/svg">
<rect width="333" height="256" fill="#DEF141"/>
<g clip-path="url(#clip0_3521_17498)">
<path d="M147.696 183.121C147.148 184.35 146.833 185.71 146.833 187.143C146.833 192.586 151.236 197 156.667 197C160.799 197 164.33 194.442 165.785 190.823L195.139 122.167C195.688 120.938 196 119.578 196 118.145C196 112.702 191.597 108.288 186.167 108.288C182.034 108.288 178.503 110.846 177.048 114.465L147.696 183.121ZM137.863 133.835C137.315 135.064 137 136.425 137 137.857C137 143.3 141.403 147.714 146.833 147.714C150.966 147.714 154.497 145.156 155.952 141.537L185.306 72.8789C185.854 71.65 186.167 70.2897 186.167 68.8571C186.167 63.4138 181.764 59 176.333 59C172.201 59 168.67 61.5585 167.215 65.1771L137.863 133.835Z" fill="black"/>
</g>
<defs>
<clipPath id="clip0_3521_17498">
<rect width="59" height="138" fill="white" transform="translate(137 59)"/>
</clipPath>
</defs>
</svg>
