<svg width="118" height="41" viewBox="0 0 118 41" fill="none" xmlns="http://www.w3.org/2000/svg">
<path d="M0 40.3201V33.0767L16.9132 7.38341H1.90181V0.676498H25.4747V6.89825L7.85426 33.6166H26.1685V40.3235H0V40.3201Z" fill="white"/>
<path d="M25.6642 20.7426C25.6642 16.0207 26.3579 12.1292 27.7386 9.07467C29.1226 6.02017 30.9297 3.74125 33.1631 2.24817C35.3966 0.74825 38.1004 0 41.2813 0C45.8903 0 49.6432 1.77667 52.5433 5.32658C55.4434 8.87992 56.8951 13.9366 56.8951 20.5C56.8951 27.0634 55.3588 32.3182 52.2861 36.0492C49.5891 39.3497 45.9276 40.9966 41.3016 40.9966C36.6757 40.9966 32.9635 39.3668 30.2664 36.1039C27.1971 32.3729 25.6608 27.2513 25.6642 20.7426ZM32.3611 20.4727C32.3611 25.0339 33.2207 28.454 34.9363 30.7363C36.652 33.0187 38.7806 34.1598 41.3219 34.1598C43.8599 34.1598 45.9986 33.0289 47.6805 30.7671C49.3623 28.5052 50.2016 25.0305 50.2016 20.3394C50.2016 15.6517 49.3826 12.3444 47.7448 10.1441C46.1103 7.94717 43.9648 6.84358 41.3186 6.84358C38.6723 6.84358 36.5167 7.95058 34.8551 10.1714C33.1902 12.3854 32.3611 15.8192 32.3611 20.4727Z" fill="white"/>
<path d="M58.7191 40.3201V0.676498H72.404C75.9031 0.676498 78.4038 1.03183 79.9029 1.7425C81.4054 2.45658 82.6372 3.69 83.5983 5.44616C84.5627 7.20233 85.0432 9.31042 85.0432 11.7602C85.0432 14.8625 84.3089 17.3567 82.8335 19.2529C81.3648 21.1492 79.2735 22.3382 76.5562 22.8233C77.9504 23.8312 79.1009 24.9382 80.0112 26.1375C80.9215 27.3367 82.1635 29.4858 83.7336 32.5882L87.6455 40.3235H79.8894L75.1823 31.6964C73.4903 28.577 72.3397 26.6261 71.7306 25.8402C71.1215 25.0544 70.4785 24.5146 69.8017 24.2173C69.1215 23.9201 68.0353 23.7697 66.5328 23.7697H65.1927V40.3201H58.7191ZM65.2029 17.4421H70.0251C72.9725 17.4421 74.8473 17.3122 75.6493 17.0492C76.4547 16.7861 77.1044 16.2599 77.6052 15.4672C78.1027 14.6746 78.3531 13.6222 78.3531 12.3034C78.3531 10.9846 78.1027 10.0279 77.6052 9.26258C77.1044 8.49725 76.4276 7.97108 75.568 7.68066C74.9589 7.4825 73.2026 7.38341 70.2924 7.38341H65.2029V17.4421Z" fill="white"/>
<path d="M118 40.3201H110.954L108.136 31.3411H95.2459L92.5827 40.3201H85.6726L98.2103 0.676498H105.097L118 40.3201ZM106.041 24.6342L101.594 9.922L97.2323 24.6342H106.041Z" fill="white"/>
</svg>
