<svg xmlns="http://www.w3.org/2000/svg" width="770" height="356" viewBox="0 0 770 356" fill="none">
<g filter="url(#filter0_iii_1344_9404)">
<circle r="157.501" transform="matrix(-1 0 0 1 387.64 196.522)" fill="#FFB6D9"/>
</g>
<g opacity="0.7">
<g clip-path="url(#clip0_1344_9404)">
<path d="M386.526 123.74C410.666 123.74 430.235 112.146 430.235 97.8447C430.235 83.543 410.666 71.9492 386.526 71.9492C362.386 71.9492 342.816 83.543 342.816 97.8447C342.816 112.146 362.386 123.74 386.526 123.74Z" fill="#E6007A"/>
<path d="M386.526 318.858C410.666 318.858 430.235 307.265 430.235 292.963C430.235 278.661 410.666 267.067 386.526 267.067C362.386 267.067 342.816 278.661 342.816 292.963C342.816 307.265 362.386 318.858 386.526 318.858Z" fill="#E6007A"/>
<path d="M325.617 159.586C337.687 138.291 337.609 115.227 325.442 108.071C313.276 100.915 293.628 112.378 281.558 133.673C269.488 154.968 269.566 178.032 281.733 185.188C293.899 192.344 313.547 180.881 325.617 159.586Z" fill="#E6007A"/>
<path d="M491.49 257.133C503.56 235.838 503.488 212.777 491.33 205.627C479.171 198.476 459.53 209.942 447.46 231.237C435.39 252.533 435.462 275.593 447.62 282.744C459.779 289.894 479.42 278.428 491.49 257.133Z" fill="#E6007A"/>
<path d="M325.454 282.739C337.621 275.583 337.699 252.519 325.629 231.224C313.559 209.928 293.911 198.466 281.745 205.622C269.578 212.777 269.5 235.841 281.57 257.137C293.64 278.432 313.287 289.894 325.454 282.739Z" fill="#E6007A"/>
<path d="M491.334 185.193C503.492 178.042 503.564 154.982 491.494 133.686C479.424 112.391 459.783 100.925 447.624 108.076C435.466 115.227 435.394 138.287 447.464 159.582C459.534 180.877 479.175 192.344 491.334 185.193Z" fill="#E6007A"/>
</g>
</g>
<path fill-rule="evenodd" clip-rule="evenodd" d="M510.575 75.2438C510.3 74.1739 510.945 73.0841 512.015 72.8096C577.742 55.9461 634.793 45.0908 676.428 41.3857C697.228 39.5346 714.292 39.4571 726.703 41.3537C732.905 42.3014 738.06 43.7583 741.965 45.811C745.881 47.8685 748.703 50.6166 749.887 54.1919C751.482 59.011 749.804 64.3783 746.051 69.8937C742.269 75.4517 736.127 81.5475 727.978 88.0637C711.662 101.111 686.902 116.155 655.624 132.246C593.04 164.442 504.033 200.996 403.43 234.299C302.826 267.602 209.589 291.376 140.156 302.881C105.455 308.631 76.6094 311.333 55.7305 310.598C45.3031 310.231 36.7371 309.004 30.3857 306.801C24.0829 304.614 19.5344 301.308 17.9391 296.489C16.7754 292.973 17.3604 289.153 19.1999 285.237C21.0342 281.331 24.185 277.169 28.444 272.8C36.9666 264.058 50.2511 254.159 67.4784 243.472C101.961 222.081 152.629 197.294 213.687 172.065C214.708 171.643 215.877 172.129 216.299 173.15C216.721 174.171 216.235 175.34 215.214 175.762C154.253 200.951 103.808 225.642 69.587 246.871C52.4622 257.495 39.4965 267.193 31.3083 275.592C27.2119 279.795 24.3921 283.591 22.8204 286.937C21.2538 290.273 20.9974 292.999 21.7364 295.231C22.7491 298.291 25.8406 300.99 31.6967 303.022C37.504 305.036 45.6156 306.24 55.8712 306.601C76.3583 307.322 104.9 304.669 139.502 298.935C208.674 287.473 301.703 263.76 402.173 230.501C502.642 197.243 591.445 160.764 653.794 128.689C684.983 112.644 709.47 97.7425 725.48 84.9397C733.495 78.5308 739.286 72.7251 742.744 67.6433C746.232 62.5189 747.102 58.5081 746.089 55.4489C745.338 53.1789 743.455 51.1125 740.105 49.3518C736.745 47.5861 732.074 46.2208 726.099 45.3078C714.157 43.4828 697.464 43.5294 676.782 45.3699C635.452 49.048 578.635 59.8467 513.009 76.6841C511.939 76.9586 510.849 76.3138 510.575 75.2438Z" fill="url(#paint0_linear_1344_9404)"/>
<defs>
<filter id="filter0_iii_1344_9404" x="229.575" y="38.1727" width="315.566" height="334.522" filterUnits="userSpaceOnUse" color-interpolation-filters="sRGB">
<feFlood flood-opacity="0" result="BackgroundImageFix"/>
<feBlend mode="normal" in="SourceGraphic" in2="BackgroundImageFix" result="shape"/>
<feColorMatrix in="SourceAlpha" type="matrix" values="0 0 0 0 0 0 0 0 0 0 0 0 0 0 0 0 0 0 127 0" result="hardAlpha"/>
<feOffset dx="-0.282917" dy="-0.84875"/>
<feGaussianBlur stdDeviation="0.565833"/>
<feComposite in2="hardAlpha" operator="arithmetic" k2="-1" k3="1"/>
<feColorMatrix type="matrix" values="0 0 0 0 0.679167 0 0 0 0 0.0933854 0 0 0 0 0.550295 0 0 0 1 0"/>
<feBlend mode="normal" in2="shape" result="effect1_innerShadow_1344_9404"/>
<feColorMatrix in="SourceAlpha" type="matrix" values="0 0 0 0 0 0 0 0 0 0 0 0 0 0 0 0 0 0 127 0" result="hardAlpha"/>
<feOffset dy="43.8521"/>
<feGaussianBlur stdDeviation="9.33625"/>
<feComposite in2="hardAlpha" operator="arithmetic" k2="-1" k3="1"/>
<feColorMatrix type="matrix" values="0 0 0 0 1 0 0 0 0 0.845833 0 0 0 0 0.938333 0 0 0 0.6 0"/>
<feBlend mode="normal" in2="effect1_innerShadow_1344_9404" result="effect2_innerShadow_1344_9404"/>
<feColorMatrix in="SourceAlpha" type="matrix" values="0 0 0 0 0 0 0 0 0 0 0 0 0 0 0 0 0 0 127 0" result="hardAlpha"/>
<feOffset dx="-0.565833" dy="2.82916"/>
<feGaussianBlur stdDeviation="2.26333"/>
<feComposite in2="hardAlpha" operator="arithmetic" k2="-1" k3="1"/>
<feColorMatrix type="matrix" values="0 0 0 0 1 0 0 0 0 0.8625 0 0 0 0 0.957151 0 0 0 1 0"/>
<feBlend mode="hue" in2="effect2_innerShadow_1344_9404" result="effect3_innerShadow_1344_9404"/>
</filter>
<linearGradient id="paint0_linear_1344_9404" x1="421.339" y1="223.856" x2="372.553" y2="86.4967" gradientUnits="userSpaceOnUse">
<stop stop-color="#EE3897"/>
<stop offset="0.819381" stop-color="#EE3897" stop-opacity="0"/>
</linearGradient>
<clipPath id="clip0_1344_9404">
<rect width="227.932" height="246.927" fill="white" transform="translate(272.566 71.9492)"/>
</clipPath>
</defs>
</svg>