<svg width="176" height="25" viewBox="0 0 176 25" fill="none" xmlns="http://www.w3.org/2000/svg">
<g clip-path="url(#clip0_3728_16531)">
<path d="M8.88692 24.0446C6.2757 24.0446 4.13626 23.4213 2.46859 22.1745C0.822862 20.9055 0 19.1021 0 16.7645C0 16.2746 0.0548574 15.6736 0.164573 14.9612C0.449831 13.3582 0.855777 11.4324 1.38241 9.18374C2.87454 3.06125 6.72554 0 12.9354 0C14.625 0 16.1391 0.289427 17.4776 0.868281C18.8162 1.42487 19.8693 2.27089 20.6374 3.40633C21.4054 4.51951 21.7894 5.85533 21.7894 7.41377C21.7894 7.88132 21.7346 8.4713 21.6249 9.18374C21.2956 11.1652 20.9007 13.091 20.4399 14.9612C19.6719 18.0113 18.3444 20.2933 16.4573 21.8071C14.5701 23.2988 12.0467 24.0446 8.88692 24.0446ZM9.34772 19.2357C10.5765 19.2357 11.6188 18.8685 12.4746 18.1337C13.3523 17.399 13.9777 16.2746 14.3507 14.7607C14.8555 12.668 15.2394 10.8424 15.5028 9.28392C15.5906 8.81639 15.6344 8.33771 15.6344 7.84792C15.6344 5.82193 14.592 4.80894 12.5075 4.80894C11.2787 4.80894 10.2254 5.17629 9.34772 5.91099C8.49194 6.64569 7.87754 7.77 7.50451 9.28392C7.10953 10.7756 6.71456 12.6012 6.31959 14.7607C6.23181 15.2061 6.18793 15.6736 6.18793 16.1633C6.18793 18.2117 7.24119 19.2357 9.34772 19.2357Z" fill="white"/>
<path d="M25.1293 23.7107C24.8878 23.7107 24.7014 23.6328 24.5697 23.477C24.46 23.2988 24.4271 23.0984 24.4709 22.8758L29.0132 1.16883C29.057 0.923932 29.1778 0.72356 29.3752 0.567715C29.5727 0.41187 29.7812 0.333946 30.0006 0.333946H38.7558C41.1915 0.333946 43.1444 0.846009 44.6146 1.87014C46.1067 2.89427 46.8529 4.37479 46.8529 6.31172C46.8529 6.86831 46.787 7.44717 46.6554 8.04829C46.1067 10.6086 44.9986 12.5009 43.331 13.7255C41.6853 14.95 39.4251 15.5623 36.5505 15.5623H32.1071L30.593 22.8758C30.5492 23.1207 30.4284 23.3211 30.231 23.477C30.0335 23.6328 29.8251 23.7107 29.6056 23.7107H25.1293ZM36.781 10.9537C37.7026 10.9537 38.5035 10.6976 39.1837 10.1856C39.886 9.67353 40.3467 8.93883 40.5661 7.98149C40.632 7.60302 40.6649 7.26906 40.6649 6.97964C40.6649 6.33399 40.4784 5.84418 40.1054 5.51023C39.7324 5.15402 39.096 4.97591 38.1964 4.97591H34.2466L32.9958 10.9537H36.781Z" fill="white"/>
<path d="M54.2689 23.7107C54.0275 23.7107 53.8409 23.6328 53.7093 23.477C53.5777 23.2988 53.5338 23.0984 53.5776 22.8758L57.2312 5.57703H51.3724C51.131 5.57703 50.9445 5.4991 50.8128 5.34325C50.7031 5.16515 50.6702 4.96478 50.7141 4.74214L51.4712 1.16883C51.515 0.923932 51.6357 0.72356 51.8331 0.567715C52.0306 0.41187 52.2391 0.333946 52.4585 0.333946H70.1666C70.4079 0.333946 70.5944 0.41187 70.7262 0.567715C70.8139 0.701296 70.8578 0.834877 70.8578 0.968459C70.8578 1.03525 70.8468 1.10204 70.8248 1.16883L70.0678 4.74214C70.0239 4.98704 69.9033 5.18741 69.7057 5.34325C69.5302 5.4991 69.3218 5.57703 69.0804 5.57703H63.2545L59.601 22.8758C59.5571 23.1207 59.4365 23.3211 59.239 23.477C59.0414 23.6328 58.833 23.7107 58.6136 23.7107H54.2689Z" fill="white"/>
<path d="M71.6974 23.7107C71.4561 23.7107 71.2696 23.6328 71.138 23.477C71.0062 23.2988 70.9623 23.0984 71.0062 22.8758L75.5814 1.16883C75.6253 0.923932 75.746 0.72356 75.9435 0.567715C76.1409 0.41187 76.3493 0.333946 76.5689 0.333946H81.0123C81.2536 0.333946 81.4402 0.41187 81.5718 0.567715C81.6596 0.701296 81.7035 0.834877 81.7035 0.968459C81.7035 1.03525 81.6924 1.10204 81.6705 1.16883L77.1283 22.8758C77.0844 23.1207 76.9638 23.3211 76.7663 23.477C76.5689 23.6328 76.3604 23.7107 76.1409 23.7107H71.6974Z" fill="white"/>
<path d="M84.2301 23.7107C83.9888 23.7107 83.8022 23.6328 83.6706 23.477C83.5389 23.3211 83.495 23.1207 83.5389 22.8758L88.0811 1.16883C88.125 0.923932 88.2456 0.72356 88.4431 0.567715C88.6407 0.41187 88.8601 0.333946 89.1015 0.333946H92.6562C93.1829 0.333946 93.5229 0.578846 93.6765 1.06865L97.2642 11.5882L105.262 1.06865C105.372 0.890537 105.526 0.72356 105.723 0.567715C105.943 0.41187 106.206 0.333946 106.513 0.333946H110.101C110.342 0.333946 110.529 0.41187 110.66 0.567715C110.748 0.701296 110.792 0.834877 110.792 0.968459C110.792 1.03525 110.781 1.10204 110.759 1.16883L106.217 22.8758C106.173 23.1207 106.052 23.3211 105.855 23.477C105.657 23.6328 105.449 23.7107 105.23 23.7107H101.247C101.006 23.7107 100.819 23.6328 100.687 23.477C100.578 23.2988 100.545 23.0984 100.589 22.8758L103.156 10.5529L98.12 17.3323C97.9006 17.5771 97.6921 17.7663 97.4947 17.8999C97.2972 18.0336 97.0667 18.1003 96.8034 18.1003H95.0919C94.6311 18.1003 94.3129 17.8443 94.1374 17.3323L91.8005 10.2524L89.1673 22.8758C89.1234 23.1207 89.0027 23.3211 88.8052 23.477C88.6077 23.6328 88.3992 23.7107 88.1798 23.7107H84.2301Z" fill="white"/>
<path d="M113.283 23.7107C113.042 23.7107 112.855 23.6328 112.724 23.477C112.592 23.2988 112.548 23.0984 112.592 22.8758L117.167 1.16883C117.211 0.923932 117.332 0.72356 117.529 0.567715C117.726 0.41187 117.935 0.333946 118.155 0.333946H122.598C122.84 0.333946 123.026 0.41187 123.158 0.567715C123.246 0.701296 123.289 0.834877 123.289 0.968459C123.289 1.03525 123.279 1.10204 123.256 1.16883L118.714 22.8758C118.671 23.1207 118.55 23.3211 118.352 23.477C118.155 23.6328 117.946 23.7107 117.726 23.7107H113.283Z" fill="white"/>
<path d="M133.946 24.0446C132.015 24.0446 130.358 23.7775 128.976 23.2432C127.615 22.7089 126.584 21.9964 125.882 21.106C125.202 20.2154 124.861 19.2246 124.861 18.1337C124.861 17.9556 124.884 17.6885 124.927 17.3323C124.972 17.1318 125.06 16.9649 125.191 16.8313C125.345 16.6977 125.52 16.631 125.718 16.631H129.93C130.194 16.631 130.391 16.6755 130.523 16.7645C130.676 16.8536 130.83 17.0094 130.984 17.232C131.137 17.8108 131.488 18.2895 132.037 18.668C132.608 19.0465 133.387 19.2357 134.374 19.2357C135.624 19.2357 136.635 19.0354 137.402 18.6346C138.17 18.2339 138.632 17.6885 138.784 16.9982C138.806 16.9092 138.817 16.7756 138.817 16.5975C138.817 16.041 138.478 15.6068 137.797 15.2951C137.117 14.9612 135.866 14.5715 134.045 14.1263C131.917 13.6587 130.303 12.9574 129.206 12.0224C128.109 11.065 127.561 9.81825 127.561 8.28206C127.561 7.74774 127.627 7.20227 127.758 6.64569C128.197 4.57517 129.284 2.94993 131.017 1.76995C132.772 0.589986 135.032 0 137.797 0C139.465 0 140.947 0.300558 142.241 0.901676C143.535 1.5028 144.533 2.27089 145.236 3.20596C145.96 4.11876 146.322 5.03157 146.322 5.94438C146.322 6.21155 146.311 6.40079 146.289 6.51211C146.245 6.71248 146.147 6.87945 145.993 7.01304C145.862 7.14662 145.696 7.2134 145.499 7.2134H141.089C140.606 7.2134 140.277 7.02417 140.102 6.64569C140.079 6.13362 139.815 5.69949 139.311 5.34326C138.806 4.98705 138.148 4.80894 137.336 4.80894C136.371 4.80894 135.57 4.98705 134.933 5.34326C134.32 5.69949 133.935 6.22268 133.782 6.91285C133.76 7.02417 133.748 7.16888 133.748 7.34699C133.748 7.88131 134.056 8.32658 134.67 8.68281C135.306 9.01676 136.415 9.36185 137.994 9.71806C140.453 10.2079 142.241 10.9092 143.36 11.822C144.501 12.7348 145.071 13.9481 145.071 15.462C145.071 15.9742 145.005 16.5307 144.874 17.1318C144.391 19.4027 143.217 21.1282 141.351 22.3081C139.509 23.4658 137.041 24.0446 133.946 24.0446Z" fill="white"/>
<path d="M149.438 23.7107C149.197 23.7107 149.01 23.6328 148.879 23.477C148.747 23.3211 148.703 23.1207 148.747 22.8758L153.289 1.16883C153.333 0.923932 153.453 0.72356 153.652 0.567715C153.849 0.41187 154.068 0.333946 154.31 0.333946H157.864C158.391 0.333946 158.731 0.578846 158.885 1.06865L162.473 11.5882L170.47 1.06865C170.581 0.890537 170.734 0.72356 170.931 0.567715C171.151 0.41187 171.414 0.333946 171.721 0.333946H175.309C175.551 0.333946 175.737 0.41187 175.869 0.567715C175.957 0.701296 176 0.834877 176 0.968459C176 1.03525 175.99 1.10204 175.967 1.16883L171.425 22.8758C171.381 23.1207 171.26 23.3211 171.063 23.477C170.866 23.6328 170.657 23.7107 170.437 23.7107H166.455C166.213 23.7107 166.027 23.6328 165.895 23.477C165.785 23.2988 165.752 23.0984 165.797 22.8758L168.364 10.5529L163.328 17.3323C163.109 17.5771 162.9 17.7663 162.703 17.8999C162.506 18.0336 162.275 18.1003 162.012 18.1003H160.3C159.839 18.1003 159.521 17.8443 159.346 17.3323L157.009 10.2524L154.376 22.8758C154.331 23.1207 154.21 23.3211 154.013 23.477C153.816 23.6328 153.607 23.7107 153.388 23.7107H149.438Z" fill="white"/>
</g>
<defs>
<clipPath id="clip0_3728_16531">
<rect width="176" height="25" fill="white"/>
</clipPath>
</defs>
</svg>
