<svg width="333" height="256" viewBox="0 0 333 256" fill="none" xmlns="http://www.w3.org/2000/svg">
<rect width="333" height="256" fill="#FF0420"/>
<g clip-path="url(#clip0_3521_17250)">
<path d="M77.9978 140.93C75.0602 140.93 72.6533 140.232 70.7772 138.835C68.9257 137.414 68 135.394 68 132.776C68 132.228 68.0617 131.554 68.1851 130.757C68.5061 128.961 68.9627 126.804 69.5552 124.286C71.2339 117.429 75.5662 114 82.5523 114C84.4531 114 86.1565 114.324 87.6623 114.972C89.1682 115.596 90.353 116.543 91.2171 117.815C92.081 119.062 92.5131 120.558 92.5131 122.303C92.5131 122.827 92.4514 123.488 92.328 124.286C91.9576 126.505 91.5133 128.662 90.9949 130.757C90.1309 134.173 88.6374 136.729 86.5145 138.424C84.3914 140.095 81.5526 140.93 77.9978 140.93ZM78.5162 135.544C79.8986 135.544 81.0712 135.133 82.034 134.31C83.0213 133.487 83.7249 132.228 84.1445 130.532C84.7124 128.188 85.1443 126.143 85.4406 124.398C85.5394 123.874 85.5887 123.338 85.5887 122.79C85.5887 120.521 84.416 119.386 82.0709 119.386C80.6885 119.386 79.5036 119.797 78.5162 120.62C77.5534 121.443 76.8622 122.702 76.4426 124.398C75.9982 126.069 75.5539 128.113 75.1095 130.532C75.0108 131.031 74.9614 131.554 74.9614 132.103C74.9614 134.397 76.1463 135.544 78.5162 135.544Z" fill="white"/>
<path d="M96.2706 140.556C95.9989 140.556 95.7892 140.469 95.6411 140.294C95.5177 140.095 95.4806 139.87 95.5299 139.621L100.64 115.309C100.689 115.035 100.825 114.81 101.047 114.636C101.269 114.461 101.504 114.374 101.751 114.374H111.6C114.341 114.374 116.538 114.948 118.192 116.095C119.87 117.242 120.71 118.9 120.71 121.069C120.71 121.693 120.636 122.341 120.487 123.014C119.87 125.882 118.624 128.001 116.747 129.373C114.896 130.744 112.353 131.43 109.119 131.43H104.121L102.417 139.621C102.368 139.895 102.232 140.12 102.01 140.294C101.788 140.469 101.553 140.556 101.306 140.556H96.2706ZM109.379 126.268C110.416 126.268 111.317 125.981 112.082 125.408C112.872 124.834 113.39 124.011 113.637 122.939C113.711 122.515 113.748 122.141 113.748 121.817C113.748 121.094 113.538 120.545 113.119 120.171C112.699 119.773 111.983 119.573 110.971 119.573H106.528L105.12 126.268H109.379Z" fill="white"/>
<path d="M129.052 140.556C128.781 140.556 128.571 140.469 128.423 140.294C128.275 140.095 128.225 139.87 128.275 139.621L132.385 120.246H125.794C125.522 120.246 125.313 120.159 125.164 119.984C125.041 119.785 125.004 119.561 125.053 119.311L125.905 115.309C125.954 115.035 126.09 114.81 126.312 114.636C126.534 114.461 126.769 114.374 127.016 114.374H146.937C147.209 114.374 147.419 114.461 147.567 114.636C147.666 114.785 147.715 114.935 147.715 115.085C147.715 115.159 147.703 115.234 147.678 115.309L146.826 119.311C146.777 119.585 146.641 119.81 146.419 119.984C146.221 120.159 145.987 120.246 145.715 120.246H139.161L135.051 139.621C135.002 139.895 134.866 140.12 134.644 140.294C134.422 140.469 134.187 140.556 133.94 140.556H129.052Z" fill="white"/>
<path d="M148.659 140.556C148.388 140.556 148.178 140.469 148.03 140.294C147.882 140.095 147.832 139.87 147.882 139.621L153.029 115.309C153.078 115.035 153.214 114.81 153.436 114.636C153.658 114.461 153.893 114.374 154.14 114.374H159.139C159.41 114.374 159.62 114.461 159.768 114.636C159.867 114.785 159.916 114.935 159.916 115.085C159.916 115.159 159.904 115.234 159.879 115.309L154.769 139.621C154.72 139.895 154.584 140.12 154.362 140.294C154.14 140.469 153.905 140.556 153.658 140.556H148.659Z" fill="white"/>
<path d="M162.759 140.556C162.487 140.556 162.278 140.469 162.13 140.294C161.981 140.12 161.932 139.895 161.981 139.621L167.091 115.309C167.141 115.035 167.276 114.81 167.499 114.636C167.721 114.461 167.968 114.374 168.239 114.374H172.238C172.831 114.374 173.213 114.648 173.386 115.197L177.422 126.979L186.42 115.197C186.544 114.997 186.717 114.81 186.939 114.636C187.186 114.461 187.482 114.374 187.828 114.374H191.864C192.135 114.374 192.345 114.461 192.493 114.636C192.592 114.785 192.641 114.935 192.641 115.085C192.641 115.159 192.629 115.234 192.604 115.309L187.494 139.621C187.445 139.895 187.309 140.12 187.087 140.294C186.865 140.469 186.63 140.556 186.383 140.556H181.903C181.631 140.556 181.422 140.469 181.273 140.294C181.15 140.095 181.113 139.87 181.162 139.621L184.051 125.819L178.385 133.412C178.138 133.686 177.904 133.898 177.682 134.048C177.459 134.198 177.2 134.272 176.904 134.272H174.979C174.46 134.272 174.102 133.986 173.905 133.412L171.276 125.483L168.313 139.621C168.264 139.895 168.128 140.12 167.906 140.294C167.684 140.469 167.449 140.556 167.202 140.556H162.759Z" fill="white"/>
<path d="M195.444 140.556C195.172 140.556 194.963 140.469 194.815 140.294C194.666 140.095 194.617 139.87 194.666 139.621L199.813 115.309C199.863 115.035 199.999 114.81 200.221 114.636C200.442 114.461 200.677 114.374 200.924 114.374H205.923C206.195 114.374 206.405 114.461 206.553 114.636C206.652 114.785 206.701 114.935 206.701 115.085C206.701 115.159 206.689 115.234 206.664 115.309L201.554 139.621C201.505 139.895 201.369 140.12 201.146 140.294C200.924 140.469 200.689 140.556 200.442 140.556H195.444Z" fill="white"/>
<path d="M218.69 140.93C216.517 140.93 214.653 140.631 213.098 140.032C211.567 139.434 210.407 138.636 209.618 137.639C208.852 136.641 208.469 135.532 208.469 134.31C208.469 134.11 208.494 133.811 208.543 133.412C208.593 133.188 208.692 133.001 208.84 132.851C209.013 132.701 209.21 132.627 209.433 132.627H214.172C214.469 132.627 214.69 132.677 214.838 132.776C215.011 132.876 215.184 133.051 215.357 133.3C215.53 133.948 215.925 134.484 216.542 134.908C217.184 135.332 218.06 135.544 219.17 135.544C220.578 135.544 221.714 135.32 222.577 134.871C223.442 134.422 223.961 133.811 224.132 133.038C224.157 132.938 224.169 132.789 224.169 132.589C224.169 131.966 223.788 131.48 223.022 131.131C222.257 130.757 220.85 130.32 218.801 129.821C216.406 129.298 214.591 128.512 213.357 127.465C212.123 126.393 211.507 124.996 211.507 123.276C211.507 122.677 211.58 122.067 211.728 121.443C212.222 119.124 213.444 117.304 215.394 115.982C217.369 114.661 219.911 114 223.022 114C224.898 114 226.565 114.337 228.021 115.01C229.477 115.683 230.6 116.543 231.391 117.591C232.205 118.613 232.612 119.635 232.612 120.658C232.612 120.957 232.6 121.169 232.575 121.294C232.526 121.518 232.415 121.705 232.242 121.855C232.095 122.004 231.908 122.079 231.687 122.079H226.725C226.182 122.079 225.811 121.867 225.615 121.443C225.59 120.87 225.293 120.383 224.725 119.984C224.157 119.585 223.417 119.386 222.503 119.386C221.417 119.386 220.517 119.585 219.8 119.984C219.11 120.383 218.677 120.969 218.505 121.742C218.48 121.867 218.467 122.029 218.467 122.229C218.467 122.827 218.813 123.326 219.504 123.725C220.22 124.099 221.467 124.485 223.244 124.884C226.009 125.433 228.021 126.218 229.28 127.241C230.563 128.263 231.205 129.622 231.205 131.317C231.205 131.891 231.131 132.514 230.983 133.188C230.441 135.731 229.119 137.664 227.021 138.985C224.948 140.282 222.171 140.93 218.69 140.93Z" fill="white"/>
<path d="M236.118 140.556C235.846 140.556 235.636 140.469 235.488 140.294C235.341 140.12 235.29 139.895 235.341 139.621L240.45 115.309C240.499 115.035 240.635 114.81 240.858 114.636C241.08 114.461 241.327 114.374 241.599 114.374H245.597C246.19 114.374 246.572 114.648 246.745 115.197L250.782 126.979L259.779 115.197C259.903 114.997 260.076 114.81 260.298 114.636C260.545 114.461 260.84 114.374 261.186 114.374H265.223C265.495 114.374 265.705 114.461 265.852 114.636C265.951 114.785 266 114.935 266 115.085C266 115.159 265.988 115.234 265.963 115.309L260.854 139.621C260.803 139.895 260.667 140.12 260.446 140.294C260.224 140.469 259.989 140.556 259.742 140.556H255.262C254.99 140.556 254.78 140.469 254.632 140.294C254.508 140.095 254.471 139.87 254.522 139.621L257.41 125.819L251.744 133.412C251.497 133.686 251.262 133.898 251.041 134.048C250.819 134.198 250.559 134.272 250.263 134.272H248.337C247.819 134.272 247.461 133.986 247.264 133.412L244.635 125.483L241.673 139.621C241.623 139.895 241.487 140.12 241.265 140.294C241.043 140.469 240.808 140.556 240.561 140.556H236.118Z" fill="white"/>
</g>
<defs>
<clipPath id="clip0_3521_17250">
<rect width="198" height="28" fill="white" transform="translate(68 114)"/>
</clipPath>
</defs>
</svg>
