<svg width="333" height="256" viewBox="0 0 333 256" fill="none" xmlns="http://www.w3.org/2000/svg">
<rect width="333" height="256" fill="#78C5EF"/>
<path d="M114.534 86.834L115.041 93.8981C115.053 94.0682 115.122 94.2273 115.233 94.3439C115.374 94.4919 115.445 94.7053 115.423 94.9205L115.398 95.1816C115.393 95.2232 115.393 95.2647 115.395 95.3062L115.853 102.465L115.787 103.13L115.919 104.017L115.853 104.755L115.986 105.642L115.853 108.67L116.052 109.631L116.184 110.961L116.383 111.552L116.515 113.399L116.846 114.802L117.111 116.206L117.773 118.422L118.236 120.047L118.5 120.786L119.03 121.82L119.361 122.559L120.354 123.594L121.214 124.184L122.074 124.332H122.868L123.795 123.741L124.192 123.446L124.589 123.298L125.582 122.411L126.707 121.082L127.435 120.195L128.097 119.678L128.957 118.348L129.222 118.127L129.883 117.167L130.281 116.871L131.075 115.689L131.34 115.467L131.737 114.729L132.266 113.99L134.251 110.887L134.516 110.517L134.649 110L134.913 109.779L135.31 108.892L135.641 108.449L136.17 107.119L137.163 106.011L137.825 105.42L138.95 104.903L139.281 104.608L139.81 104.46L140.075 104.238L140.737 103.943H141.002L141.531 104.534L141.796 105.347L141.928 107.341L141.796 108.302L141.664 108.966L141.598 111.109L141.134 113.399V114.433L140.936 115.541L140.34 117.388V118.274L140.075 119.826L139.943 120.417L139.281 122.19L139.215 123.298L138.619 125.071L138.355 126.549L137.958 127.656V128.174L137.693 129.282L137.626 130.242L137.362 131.202L137.296 131.646L136.898 132.237L136.832 133.049L136.501 134.084L136.369 135.266L136.038 135.709L135.906 136.448L135.972 137.777L135.376 140.363L135.112 140.954L134.847 142.358L134.781 143.244L134.582 144.131L134.647 145.457L132.272 168.433L131.48 170.2L130.689 169.758L129.897 169.316L129.106 168.433L128.314 167.991L128.169 166.386L127.838 165.795L130.148 146.642L130.281 145.608L130.678 143.909L130.876 142.579L130.943 141.249L131.472 138.073L131.604 136.226L131.935 135.266L132.067 133.197L132.398 131.055L132.795 129.429L132.729 128.691L132.861 127.952L133.325 126.031V125.071L133.656 123.224L133.855 122.707L133.921 121.082L134.251 119.604V118.939L134.45 118.274L134.251 117.979L133.986 117.831L133.656 117.979L133.391 118.127L132.729 119.013L132.134 119.9L131.207 121.229L130.611 121.672L129.949 123.002L127.898 125.145L126.31 127.139L125.119 128.1L124.391 128.322L123.729 129.356L122.14 130.39L120.023 131.129L119.096 130.833L118.5 130.759L117.839 130.538L117.442 129.946L116.78 129.577L116.118 128.765L115.655 128.026L114.993 127.361L114.596 126.622L113.537 124.184L113.273 123.52L113.008 123.298H112.677L112.544 123.52L112.279 125.071V125.736L111.949 127.435V128.174L111.618 130.242L111.552 131.572L111.221 132.458L111.353 132.902L111.088 134.084L110.956 135.709L110.691 136.596L110.427 137.556V139.181L110.294 140.584L110.03 141.028L110.096 142.21L109.831 142.506L109.897 143.244L109.5 144.352L109.633 145.534L109.434 147.307L109.236 147.677L108.772 148.12L108.441 148.858L108.176 149.154L107.779 149.376L106.655 149.45L105.662 149.819H105.397L105.066 149.597L105.198 148.858L105.132 148.194L105.198 147.603L105 146.938L105.264 144.278L105.463 142.358V141.176L105.662 140.215V139.476L106.059 137.999L105.794 136.743V135.635L106.191 133.049V131.719L106.39 130.242V129.208L106.853 127.583L106.787 125.662L106.985 124.48L106.721 123.741L106.853 123.002L107.118 120.86L107.25 120.343L107.316 118.792L107.647 117.019L107.713 115.984L108.044 115.024V114.433L107.779 113.842L108.044 110.222L108.375 108.892L108.176 107.784L108.375 105.864L108.507 104.977L108.64 103.721L108.772 103.057L108.523 95.9712V94.2038V91.6208C108.523 91.5753 108.527 91.5303 108.535 91.4861L108.883 89.546C108.906 89.4139 108.964 89.2928 109.049 89.1969L110.816 87.2091C110.837 87.1852 110.86 87.1632 110.884 87.1433L112.446 85.8381C112.469 85.8186 112.492 85.7974 112.512 85.774L113.026 85.2014C113.334 84.8576 113.855 84.9699 114.026 85.417L114.486 86.6188C114.512 86.6873 114.528 86.7598 114.534 86.834Z" fill="white"/>
<path d="M145.535 142.093L146.5 142.751L147.41 144.069L147.624 144.874L147.892 145.314L148.16 146.778L148.214 148.607L147.999 149.266L147.357 149.852L147.249 150.438L146.982 150.73L146.5 150.876L145.857 150.511L144.731 149.485L144.196 148.68L143.821 147.802L143.553 146.778L143.607 146.119L143.5 145.533L143.767 144.728L143.821 143.703L144.035 143.044L144.41 142.386L144.785 142.093H145.053H145.535Z" fill="white"/>
<path d="M161.674 99.2635L162.062 100.062L162.32 100.787L162.707 101.441L162.965 102.094L163.352 102.602L163.417 103.038V103.981L163.352 106.231L163.223 107.102L163.094 108.335L162.771 109.86L162.836 111.311L162.578 112.327L162.771 113.343L162.642 114.141L162.707 116.101L162.578 117.117L162.449 117.915L162.707 119.004V121.182L162.771 123.213L162.642 124.81L162.965 125.899L163.03 127.641V129.092L163.352 130.979L163.611 132.358L163.74 134.318L163.804 135.551L163.869 136.132L164.062 137.003L164.127 138.092L164.32 138.672L164.449 140.051L164.579 140.341L164.901 140.486L165.16 140.269L165.546 139.833L165.998 138.744L166.708 137.075L167.547 135.478L167.676 134.68L168.516 132.648L168.774 131.487L169.548 129.673L170 128.875V127.858L170.581 126.407L171.032 124.448L171.613 122.851L172.001 120.964L172.388 120.456V119.367L172.581 118.641L173.033 116.537L173.421 115.23V114.432L173.549 113.271L173.808 111.674L174.195 109.497L174.453 108.989L174.905 108.481L175.098 107.682L175.486 107.174L176.26 106.811L177.099 106.594L177.745 106.231L178.777 105.868L179.1 105.795L179.552 106.013L179.874 106.376L180.197 107.247L180.326 108.045L180.262 108.916L179.939 110.44L179.81 112.037L179.422 113.851L179.358 115.448L179.164 116.827L178.842 117.988V118.569L178.713 119.803L178.454 121.327V122.488L178.197 123.649V125.028L177.938 126.624L178.003 129.165L177.809 130.253L177.938 130.979V132.793V137.438L178.003 138.744L178.132 139.761L178.197 139.978L178.454 140.051L178.713 139.761L178.971 139.253L179.358 138.454L179.422 137.656L179.616 137.438L179.746 136.858L180.003 136.568L180.326 135.406L181.423 133.011L181.488 132.068L182.262 129.818L182.327 129.237L182.972 127.205L183.295 126.697L183.618 125.318L184.07 124.81L184.392 122.488L184.844 121.109L185.296 119.44L185.941 117.407L186.328 115.521L187.232 112.182L187.748 109.932L187.813 109.352L187.684 108.553L187.813 107.682L188.264 105.287L188.652 104.489L189.491 103.401L190.136 102.892L190.717 102.166L191.039 102.312L191.298 102.892L191.427 103.618L191.362 104.707L191.233 105.941L191.362 106.521L191.104 107.392L191.169 108.553L191.104 109.714L190.975 110.731L190.717 111.166L190.911 112.037L190.717 112.763L190.459 114.214L190.265 114.795L190.136 115.883L189.878 116.9L189.749 117.843L189.555 118.786L189.426 119.294L189.103 120.746L189.039 121.617L188.523 122.706L188.587 123.576L188.071 125.1L187.619 126.044L187.49 126.334L187.296 127.423L186.845 129.455L186.2 131.197L186.07 132.213L185.748 132.939L185.489 134.245L185.167 134.535L184.973 135.261L184.586 135.769V136.495L184.005 137.801L183.811 138.672L183.36 139.616L183.23 139.761L183.037 140.559L182.65 141.575L182.198 142.519L181.94 143.535L181.423 144.405V144.768L181.165 144.986L177.543 159.209C177.471 159.371 177.36 159.507 177.223 159.603L176.727 159.945C176.639 160.007 176.561 160.085 176.498 160.177L176.362 160.373C176.221 160.576 176.014 160.708 175.787 160.741C175.681 160.755 175.573 160.748 175.469 160.719L175.433 160.709C175.225 160.65 175.005 160.681 174.816 160.794L174.218 161.153C174.167 161.183 174.114 161.208 174.059 161.226L173.618 161.375C173.537 161.403 173.453 161.417 173.369 161.417H173.038C172.915 161.417 172.793 161.387 172.68 161.329L172.655 161.334L171.685 160.821C171.52 160.736 171.382 160.595 171.292 160.417L170.974 159.791C170.934 159.714 170.905 159.631 170.886 159.544L170.488 157.759C170.471 157.682 170.463 157.602 170.463 157.523L173.041 145.273L173.485 141.72L173.421 139.833L173.227 138.382L173.421 137.148L173.098 136.204L173.162 134.39L173.033 134.027L173.162 133.156L172.904 132.576V132.068L172.775 131.85L172.517 131.923L172.323 132.213L172.001 132.866L171.871 133.447L171.484 134.172L171.355 135.043L170.968 135.624L170.839 136.277L170.322 136.785L170 137.874L169.677 138.092L169.742 138.962L169.29 139.833L168.516 142.156L167.999 143.026L167.483 144.623L166.837 145.857L166.515 146.873L166.192 147.236L165.998 147.889L165.418 149.195L163.998 150.211L163.546 150.357L162.578 150.284L162.126 150.067L161.481 149.34L161.029 147.526L160.771 147.164L160.125 144.986L159.867 143.316L159.609 142.228L159.867 141.285L159.351 140.414L159.157 139.398L158.835 138.309V137.511L158.641 136.64V135.696L158.383 134.753V133.809L158.254 133.374L158.318 132.14L157.867 131.342L157.802 130.035L157.544 129.455L157.286 126.697L156.963 124.737L156.834 123.213L155.995 122.633L155.608 121.98V121.182L155.479 120.528L155.285 118.206L155.543 117.407L155.479 116.9L155.349 116.391L155.414 115.158L155.349 114.577L155.479 114.069L155.737 111.311L155.866 109.279L156.124 107.465L156.253 106.521L156.576 105.795L156.382 104.78L156.705 102.457L157.028 100.933L157.35 100.135L157.608 98.9735L158.318 98.3927L159.093 98.2473L159.996 98.1753L161.674 99.2635Z" fill="white"/>
<path d="M191.445 142.093L192.57 142.751L193.633 144.069L193.883 144.874L194.195 145.314L194.508 146.778L194.57 148.607L194.32 149.266L193.57 149.852L193.445 150.438L193.133 150.73L192.57 150.876L191.82 150.511L190.508 149.485L189.883 148.68L189.445 147.802L189.133 146.778L189.196 146.119L189.07 145.533L189.383 144.728L189.445 143.703L189.695 143.044L190.133 142.386L190.57 142.093H190.883H191.445Z" fill="white"/>
<path d="M220.444 128.225L220.24 127.492L220.309 126.173L220.24 125.586L220.512 123.9L220.784 122.434L221.056 120.968L221.396 120.015L221.463 118.696L222.075 116.643L222.891 113.931L223.705 113.125L224.521 111.806L224.725 109.68L224.249 108.654L223.434 108.067L222.347 107.628L221.327 106.895L218.678 106.821L217.998 107.187L217.047 107.407L215.62 107.92L214.465 108.214L213.378 109.46L212.155 110.413L211.679 111.146L210.66 112.539L209.777 113.858L209.098 114.664L208.554 116.057L207.603 118.329L207.263 118.769L206.108 122.434L205.905 123.9L205.496 125L205.225 127.932L205.021 129.984L204.545 131.084L204.953 132.183L205.157 134.382L204.817 135.262L205.361 137.461L206.108 138.56L206.991 140.906L207.4 142.665L208.758 143.545L209.301 144.425L210.66 145.67L211.883 146.331L213.922 146.991L215.281 147.137L217.047 146.844L218.542 146.477H219.426L220.444 145.597L221.532 145.378L223.298 143.985H224.317L224.997 142.812L225.404 142.519L225.88 142.886V143.912L225.472 145.451L223.842 146.917L223.298 147.576L221.396 148.969L219.968 149.629L218.746 150.362L216.028 151.388L214.261 151.682L212.223 151.755L210.932 151.535L210.117 151.462L209.505 151.242L208.826 150.802L207.942 150.729L207.263 150.215L206.38 150.069L204.749 149.189L203.798 148.53L203.119 147.796L202.507 147.21L201.692 146.037L200.74 144.498L199.721 142.006L199.586 140.686L199.246 139.953L198.838 138.414L198.906 137.827L198.703 137.021L198.974 135.995L198.703 135.335L198.77 134.309L198.499 133.43L198.77 130.717L199.11 127.199L199.518 125.513L200.129 124.707L199.993 123.387L200.877 121.188L201.284 119.722L202.643 116.79L203.526 115.104L204.614 113.345L205.836 111.586L206.788 110.34L208.01 109.313L208.146 108.654L209.777 107.114L210.388 106.821L211.204 105.721L213.378 103.962L214.397 103.669L215.552 102.643L216.639 102.203L216.911 102.056L218.542 101.543L218.949 101.323L221.26 100.81L222.619 100.957L224.181 100.884L225.404 101.69L226.967 102.203L227.986 103.229L228.665 104.915L228.801 106.674L229.006 107.628L229.141 109.607L229.073 112.319V113.785L228.598 116.79L228.19 117.963V118.989L227.85 120.528L227.511 121.848L227.307 122.581L226.831 123.827L226.287 125.733L225.336 128.078L224.657 129.471L223.162 129.837L221.939 130.351L220.512 130.131L220.24 129.765L220.444 128.225Z" fill="white"/>
</svg>
