<svg width="95" height="66" viewBox="0 0 95 66" fill="none" xmlns="http://www.w3.org/2000/svg">
<path d="M7.29569 1.40348L7.68401 6.80935C7.6931 6.93952 7.7458 7.06125 7.83091 7.15051C7.93905 7.26378 7.99297 7.42709 7.97661 7.59175L7.95692 7.79159C7.95359 7.82337 7.95298 7.85516 7.9551 7.88694L8.30556 13.3655L8.25497 13.874L8.35614 14.5526L8.30556 15.118L8.40703 15.7963L8.30556 18.1141L8.45761 18.8491L8.55878 19.8669L8.71084 20.319L8.81201 21.7323L9.06523 22.8065L9.26787 23.8807L9.77433 25.5767L10.129 26.8203L10.3314 27.3857L10.7366 28.1772L10.9899 28.7426L11.7496 29.5341L12.4081 29.9862L13.0663 30.0994H13.6739L14.383 29.647L14.6868 29.4208L14.9909 29.3079L15.7503 28.6293L16.6114 27.6119L17.1685 26.9336L17.6749 26.5377L18.3334 25.5199L18.5358 25.3505L19.0422 24.6158L19.3463 24.3896L19.9539 23.4851L20.1566 23.3154L20.4604 22.75L20.8657 22.1847L22.3847 19.8104L22.5874 19.5274L22.6888 19.1318L22.8912 18.9621L23.1953 18.2838L23.4485 17.9447L23.8535 16.9269L24.6132 16.0789L25.1196 15.6269L25.9805 15.2309L26.234 15.005L26.639 14.8918L26.8416 14.7224L27.3481 14.4962H27.5507L27.9557 14.9486L28.1583 15.5704L28.2595 17.0967L28.1583 17.8317L28.0572 18.3403L28.0066 19.9798L27.6519 21.7323V22.5238L27.5001 23.3718L27.0443 24.7852V25.4635L26.8416 26.6506L26.7404 27.103L26.234 28.4599L26.1831 29.3079L25.7275 30.6648L25.5249 31.7954L25.2211 32.6431V33.0391L25.0184 33.8871L24.9676 34.6218L24.7652 35.3569L24.7146 35.696L24.4105 36.1484L24.3599 36.7702L24.1067 37.5618L24.0055 38.4662L23.7523 38.8054L23.6511 39.3707L23.7017 40.3884L23.2459 42.3671L23.0432 42.8192L22.8406 43.8934L22.79 44.5717L22.6383 45.2503L22.6876 46.2653L20.8702 63.8476L20.2644 65.2001L19.6586 64.862L19.0528 64.5238L18.447 63.8476L17.8412 63.5095L17.7303 62.281L17.4771 61.829L19.2448 47.1722L19.3463 46.381L19.6501 45.0809L19.8019 44.0628L19.8528 43.0454L20.2577 40.6146L20.3592 39.201L20.6121 38.4662L20.7136 36.8831L20.9668 35.2439L21.2706 34L21.2201 33.4347L21.3212 32.8693L21.6756 31.3995V30.6648L21.9292 29.2514L22.0812 28.8555L22.1318 27.6119L22.3847 26.4812V25.9723L22.5368 25.4635L22.3847 25.2376L22.1821 25.1243L21.9292 25.2376L21.7265 25.3505L21.2201 26.0288L20.7642 26.7074L20.0551 27.7248L19.5992 28.0639L19.0928 29.0817L17.5228 30.7212L16.3073 32.2475L15.3959 32.9826L14.8388 33.1523L14.3324 33.9435L13.1168 34.7351L11.4963 35.3004L10.7872 35.0742L10.3314 35.0177L9.82491 34.848L9.5211 34.3956L9.01465 34.1133L8.5082 33.4915L8.15351 32.9261L7.64705 32.4172L7.34355 31.8519L6.53298 29.9862L6.33064 29.4776L6.128 29.3079H5.87477L5.7733 29.4776L5.57066 30.6648V31.1736L5.31774 32.4737V33.0391L5.06421 34.6218L5.01362 35.6395L4.76071 36.3178L4.86187 36.6573L4.65923 37.5618L4.55806 38.8054L4.35512 39.484L4.15278 40.2187V41.4627L4.05161 42.5365L3.84897 42.8757L3.89955 43.7805L3.69691 44.0067L3.7478 44.5717L3.44369 45.4197L3.54516 46.3245L3.3931 47.681L3.24135 47.964L2.88665 48.3028L2.63343 48.8682L2.43078 49.0944L2.12697 49.2641L1.26613 49.3206L0.50645 49.6036H0.303811L0.0505896 49.4335L0.151754 48.8682L0.101172 48.3596L0.151754 47.9072L0 47.3987L0.202343 45.3632L0.354393 43.8934V42.9889L0.50645 42.2539V41.6885L0.810261 40.5578L0.607622 39.5969V38.7489L0.911433 36.7702V35.7525L1.06349 34.6218V33.8306L1.41788 32.5866L1.3673 31.1168L1.51936 30.2124L1.31671 29.647L1.41788 29.0817L1.62052 27.4421L1.72169 27.0465L1.77228 25.8594L2.02581 24.5025L2.07639 23.711L2.32962 22.9759V22.5238L2.12697 22.0714L2.32962 19.3012L2.58284 18.2838L2.43078 17.4358L2.58284 15.966L2.68401 15.2874L2.78518 14.3264L2.88665 13.8179L2.69613 8.39581V7.04332V5.06667C2.69613 5.03185 2.69916 4.99735 2.70521 4.96354L2.97116 3.47886C2.98934 3.37776 3.03356 3.28512 3.09868 3.21175L4.45084 1.69054C4.4672 1.67228 4.48446 1.65538 4.50294 1.64016L5.69818 0.64135C5.71606 0.626472 5.73302 0.610245 5.74877 0.592323L6.14163 0.154114C6.37729 -0.108948 6.77621 -0.023056 6.90737 0.319122L7.25934 1.23881C7.27933 1.29122 7.29175 1.34667 7.29569 1.40348Z" fill="white"/>
<path d="M31.0199 43.6908L31.7579 44.1946L32.4548 45.2031L32.6188 45.8192L32.8238 46.1556L33.0288 47.2759L33.0698 48.676L32.9057 49.1802L32.4138 49.6285L32.3317 50.0768L32.127 50.3005L31.7579 50.4124L31.2661 50.1328L30.4049 49.3481L29.995 48.732L29.7081 48.0599L29.5031 47.2759L29.5441 46.7717L29.4622 46.3234L29.6671 45.7073L29.7081 44.923L29.8721 44.4184L30.159 43.9149L30.4461 43.6908H30.6509H31.0199Z" fill="white"/>
<path d="M43.3706 10.9152L43.6669 11.5264L43.8645 12.0815L44.1608 12.5814L44.3584 13.0813L44.6547 13.4703L44.704 13.8035V14.5253L44.6547 16.2469L44.556 16.9136L44.4571 17.8577L44.2101 19.0243L44.2594 20.135L44.0621 20.9123L44.2101 21.6899L44.1111 22.3008L44.1608 23.8002L44.0621 24.5779L43.9632 25.1887L44.1608 26.0221V27.6883L44.2101 29.2432L44.1111 30.465L44.3584 31.2984L44.4077 32.631V33.7418L44.6547 35.1858L44.8523 36.2411L44.9509 37.7409L45.0003 38.6849L45.0499 39.1293L45.1979 39.7957L45.2472 40.6288L45.3955 41.0729L45.4942 42.1282L45.5931 42.3504L45.8401 42.4614L46.0377 42.295L46.3337 41.9618L46.6796 41.1284L47.2228 39.8512L47.865 38.6291L47.9637 38.0182L48.6058 36.4633L48.8035 35.5748L49.396 34.1863L49.7416 33.5754V32.7978L50.1862 31.687L50.5318 30.1876L50.9764 28.9655L51.2729 27.5216L51.5692 27.1329V26.2995L51.7172 25.7441L52.0628 24.1337L52.3594 23.1339V22.523L52.4581 21.6345L52.6557 20.4124L52.952 18.7462L53.1496 18.3576L53.4955 17.9689L53.6435 17.3577L53.9398 16.9691L54.5326 16.6914L55.1745 16.525L55.6684 16.2469L56.4586 15.9696L56.7058 15.9138L57.0514 16.0805L57.2981 16.3582L57.5453 17.0246L57.644 17.6358L57.5947 18.3021L57.3477 19.4684L57.249 20.6904L56.9525 22.0786L56.9031 23.3006L56.7548 24.3556L56.5082 25.2445V25.6886L56.4092 26.633L56.2116 27.7993V28.6878L56.0143 29.5764V30.6317L55.8167 31.8534L55.866 33.7976L55.7177 34.6304L55.8167 35.1858V36.5743V40.1289L55.866 41.1284L55.9647 41.906L56.0143 42.0727L56.2116 42.1282L56.4092 41.906L56.6069 41.5173L56.9031 40.9065L56.9525 40.2956L57.1007 40.1289L57.1997 39.6847L57.397 39.4625L57.644 38.5736L58.4835 36.741L58.5331 36.0189L59.1257 34.2972L59.175 33.8528L59.6689 32.2979L59.9159 31.9092L60.1631 30.8539L60.5087 30.465L60.7556 28.6878L61.1013 27.6325L61.4472 26.3553L61.9411 24.8001L62.2371 23.3561L62.9289 20.8014L63.3235 19.0794L63.3731 18.6353L63.2745 18.0244L63.3731 17.3577L63.7187 15.5251L64.0153 14.9143L64.6575 14.0812L65.1511 13.6922L65.596 13.1368L65.8423 13.2481L66.0399 13.6922L66.1392 14.2479L66.0896 15.0807L65.9909 16.0251L66.0896 16.4692L65.8919 17.1358L65.9416 18.0244L65.8919 18.913L65.7933 19.6906L65.596 20.0238L65.7439 20.6904L65.596 21.2458L65.3983 22.3563L65.2501 22.8007L65.1511 23.6338L64.9535 24.4114L64.8551 25.1332L64.7065 25.8554L64.6079 26.244L64.3609 27.3548L64.3116 28.0212L63.9163 28.8546L63.966 29.5209L63.5707 30.6872L63.2251 31.4093L63.1259 31.6312L62.9779 32.4646L62.6323 34.0195L62.1387 35.3525L62.0394 36.1302L61.7928 36.6856L61.5952 37.6851L61.3482 37.9073L61.1999 38.4627L60.9039 38.8513V39.4067L60.4591 40.4066L60.3111 41.0729L59.9655 41.795L59.8665 41.906L59.7182 42.5172L59.4223 43.2948L59.0763 44.0166L58.8787 44.7942L58.4835 45.4606V45.7383L58.2862 45.905L55.5145 56.789C55.4593 56.9129 55.3742 57.0175 55.269 57.0903L54.89 57.3527C54.8224 57.3995 54.763 57.4594 54.7143 57.5297L54.6106 57.6795C54.5028 57.8354 54.3444 57.9366 54.1702 57.9612C54.0889 57.9725 54.0065 57.9668 53.9268 57.9446L53.8993 57.937C53.7401 57.8921 53.5717 57.9154 53.427 58.0024L52.9694 58.2768C52.9307 58.2997 52.8899 58.3186 52.8483 58.3326L52.5106 58.4469C52.4486 58.4678 52.3845 58.4784 52.3198 58.4784H52.067C51.9724 58.4784 51.8788 58.4555 51.7928 58.4116L51.7736 58.415L51.0316 58.0224C50.9049 57.9576 50.7997 57.8497 50.7306 57.7138L50.4869 57.2347C50.4568 57.1753 50.434 57.1119 50.4196 57.0454L50.1156 55.6795C50.1026 55.6204 50.0958 55.5596 50.0958 55.4989L52.069 46.1246L52.4087 43.4057L52.3594 41.9618L52.2111 40.851L52.3594 39.9066L52.1125 39.1845L52.1618 37.7963L52.0628 37.5183L52.1618 36.852L51.9645 36.4079V36.0189L51.8655 35.8525L51.6679 35.9079L51.5196 36.1302L51.2729 36.6301L51.174 37.0742L50.8777 37.6296L50.7791 38.2959L50.4825 38.7404L50.3838 39.2403L49.9886 39.6289L49.7416 40.462L49.4947 40.6288L49.544 41.2951L49.1984 41.9618L48.6058 43.7389L48.2106 44.4053L47.8154 45.6273L47.3215 46.5717L47.0748 47.349L46.8276 47.6267L46.6796 48.1263L46.235 49.1261L45.1486 49.9034L44.8027 50.015L44.0621 49.9592L43.7162 49.7928L43.2223 49.237L42.8767 47.8489L42.6791 47.5712L42.1852 45.905L41.9876 44.6271L41.7899 43.7944L41.9876 43.0726L41.5923 42.4059L41.4443 41.6283L41.1974 40.7955V40.1843L41.0491 39.518V38.7958L40.8518 38.0737V37.3519L40.7528 37.0187L40.8022 36.0747L40.4565 35.4635L40.4069 34.4636L40.2096 34.0195L40.012 31.9092L39.765 30.4095L39.6664 29.2432L39.0242 28.7988L38.7279 28.2992V27.6883L38.6292 27.1884L38.481 25.4109L38.6786 24.8001L38.6292 24.4114L38.5303 24.0225L38.5796 23.0784L38.5303 22.634L38.6292 22.2453L38.8266 20.135L38.9255 18.5798L39.1231 17.1913L39.2218 16.4692L39.4687 15.9138L39.3208 15.1365L39.5674 13.359L39.8147 12.1928L40.0613 11.5819L40.2589 10.6933L40.8022 10.2489L41.395 10.1376L42.0862 10.0825L43.3706 10.9152Z" fill="white"/>
<path d="M66.1533 43.6908L67.014 44.1946L67.8269 45.2031L68.0183 45.8192L68.2577 46.1556L68.4965 47.2759L68.5443 48.676L68.3529 49.1802L67.7791 49.6285L67.6836 50.0768L67.4445 50.3005L67.014 50.4124L66.4399 50.1328L65.4359 49.3481L64.9576 48.732L64.6226 48.0599L64.3835 47.2759L64.4316 46.7717L64.3354 46.3234L64.5749 45.7073L64.6226 44.923L64.814 44.4184L65.1487 43.9149L65.4836 43.6908H65.7225H66.1533Z" fill="white"/>
<path d="M88.3447 33.0786L88.1886 32.5173L88.2409 31.5078L88.1886 31.0589L88.3967 29.7689L88.6047 28.647L88.8127 27.5251L89.0727 26.7957L89.1246 25.7862L89.5924 24.2154L90.2168 22.14L90.8403 21.5231L91.4644 20.5132L91.6205 18.8864L91.2564 18.1013L90.6323 17.6525L89.8007 17.3159L89.0205 16.755L86.9929 16.6986L86.473 16.9791L85.745 17.1475L84.6531 17.5401L83.7694 17.7645L82.9372 18.7183L82.0015 19.4474L81.6373 20.0083L80.8574 21.0742L80.1816 22.0837L79.6617 22.701L79.2456 23.7665L78.5179 25.5054L78.2576 25.8422L77.3738 28.647L77.2181 29.7689L76.9055 30.6103L76.6981 32.8541L76.5417 34.4246L76.1778 35.266L76.4901 36.1074L76.6462 37.7903L76.3859 38.4633L76.802 40.1465L77.3738 40.9875L78.0496 42.7828L78.3621 44.1288L79.4014 44.8018L79.8175 45.4751L80.8574 46.4286L81.7934 46.9339L83.3533 47.4388L84.3932 47.5508L85.745 47.3264L86.889 47.0456H87.5651L88.3447 46.3726L89.1769 46.2045L90.5284 45.1386H91.3083L91.8286 44.2412L92.1402 44.0167L92.5043 44.2975V45.0826L92.1924 46.2605L90.9445 47.3828L90.5284 47.887L89.0727 48.9532L87.9806 49.4578L87.0449 50.0191L84.965 50.8042L83.6132 51.0286L82.0534 51.0846L81.0654 50.9166L80.4416 50.8605L79.9736 50.6921L79.4536 50.3553L78.7776 50.2996L78.2576 49.9064L77.5819 49.7946L76.3339 49.1213L75.6059 48.6167L75.0863 48.0554L74.6183 47.6069L73.9945 46.7094L73.2662 45.5315L72.4863 43.6242L72.3824 42.6144L72.1224 42.0534L71.8102 40.8755L71.8624 40.4266L71.7066 39.8096L71.9144 39.0246L71.7066 38.5193L71.7586 37.7342L71.5505 37.0612L71.7586 34.9855L72.0182 32.2932L72.3305 31.0028L72.7985 30.3859L72.6943 29.376L73.3704 27.6932L73.682 26.5713L74.7222 24.3275L75.3979 23.0375L76.2301 21.6912L77.1658 20.3448L77.8938 19.3913L78.8295 18.6059L78.9337 18.1013L80.1816 16.9231L80.6493 16.6986L81.2735 15.8572L82.9372 14.5112L83.7171 14.2868L84.6012 13.5014L85.4331 13.1649L85.6411 13.0525L86.889 12.6599L87.2006 12.4915L88.9688 12.099L90.0088 12.211L91.2044 12.155L92.1402 12.772L93.3362 13.1649L94.1161 13.9499L94.6361 15.2402L94.7399 16.5866L94.8963 17.3159L94.9999 18.8304L94.948 20.9058V22.0277L94.5841 24.3275L94.2722 25.2253V26.0103L94.0122 27.1883L93.7523 28.1981L93.5962 28.759L93.2323 29.7125L92.8162 31.1713L92.0882 32.9662L91.5686 34.032L90.4248 34.3122L89.4885 34.705L88.3967 34.5366L88.1886 34.2565L88.3447 33.0786Z" fill="white"/>
</svg>
