<svg width="333" height="256" viewBox="0 0 333 256" fill="none" xmlns="http://www.w3.org/2000/svg">
<rect width="333" height="256" fill="#C1E449"/>
<g clip-path="url(#clip0_3521_17461)">
<path d="M210.406 100H122.544C106.795 100 94.0273 112.713 94.0273 128.395V128.395C94.0273 144.078 106.795 156.791 122.544 156.791H210.406C226.155 156.791 238.922 144.078 238.922 128.395V128.395C238.922 112.713 226.155 100 210.406 100Z" fill="#C1E449"/>
<path d="M128.991 143.151C116.595 143.151 108.358 137.175 108.358 128.191C108.358 119.168 116.595 113.231 128.991 113.231C141.386 113.231 149.624 119.168 149.624 128.191C149.624 137.175 141.386 143.151 128.991 143.151ZM128.991 135.925C135.149 135.925 139.229 132.839 139.229 128.191C139.229 123.543 135.149 120.457 128.991 120.457C122.832 120.457 118.713 123.543 118.713 128.191C118.713 132.839 122.832 135.925 128.991 135.925ZM159.49 142.174H148.742L162.785 114.208H174.788L188.439 142.174H177.73L175.573 137.331H161.608L159.49 142.174ZM168.59 120.496L163.569 131.589H173.611L168.669 120.496H168.59ZM200.783 142.174H190.427V114.208H200.783V124.168L200.861 124.207L212.747 114.208H225.692L212.159 125.496L225.77 142.174H213.218L204.98 131.433L200.783 134.948V142.174Z" fill="#25312C"/>
</g>
<defs>
<clipPath id="clip0_3521_17461">
<rect width="145" height="57" fill="white" transform="translate(94 100)"/>
</clipPath>
</defs>
</svg>
