<svg width="118" height="30" viewBox="0 0 118 30" fill="none" xmlns="http://www.w3.org/2000/svg">
<path d="M20.6328 29.9195C8.23747 29.9195 0 23.9434 0 14.9598C0 5.93702 8.23747 0 20.6328 0C33.0283 0 41.2657 5.93702 41.2657 14.9598C41.2657 23.9434 33.0283 29.9195 20.6328 29.9195ZM20.6328 22.6934C26.7914 22.6934 30.8708 19.6079 30.8708 14.9598C30.8708 10.3117 26.7914 7.22598 20.6328 7.22598C14.4745 7.22598 10.3556 10.3117 10.3556 14.9598C10.3556 19.6079 14.4745 22.6934 20.6328 22.6934ZM51.132 28.9429H40.3841L54.4271 0.976467H66.4301L80.0807 28.9429H69.372L67.2147 24.0996H53.2503L51.132 28.9429ZM60.2325 7.26505L55.2114 18.3579H65.2533L60.3108 7.26505H60.2325ZM92.4251 28.9429H82.0693V0.976467H92.4251V10.9366L92.5034 10.9757L104.389 0.976467H117.334L103.801 12.2645L117.412 28.9429H104.86L96.6223 18.2017L92.4251 21.7171V28.9429Z" fill="white"/>
</svg>
