<svg width="333" height="256" viewBox="0 0 333 256" fill="none" xmlns="http://www.w3.org/2000/svg">
<g clip-path="url(#clip0_3521_16849)">
<rect width="333" height="256" fill="white"/>
<rect width="333" height="256" fill="url(#paint0_linear_3521_16849)"/>
<g clip-path="url(#clip1_3521_16849)">
<path d="M159.246 114.143C153.571 114.143 149.788 111.219 149.788 106.882H154.959C154.959 109.051 156.598 110.121 159.309 110.121C162.019 110.121 163.376 108.958 163.376 107.449C163.376 105.783 162.272 105.437 159.971 105.092L157.198 104.683C153.13 104.085 150.263 102.199 150.263 97.9554C150.263 94.1205 153.574 91.0402 159.217 91.0402C164.86 91.0402 168.202 94.1518 168.265 97.8616H163.094C163.094 96.2277 161.959 95.0647 159.185 95.0647C156.412 95.0647 155.434 96.2589 155.434 97.5179C155.434 99.183 156.6 99.6562 158.744 99.971L161.424 100.348C165.364 100.915 168.58 102.518 168.58 107.013C168.58 111.509 164.797 114.15 159.248 114.15L159.246 114.143Z" fill="white"/>
<path d="M176.485 95.942H169.644V91.5402H188.434V95.942H181.593V113.672H176.487V95.942H176.485Z" fill="white"/>
<path d="M202.046 113.672L200.658 109.679H191.735L190.379 113.672H185.114L193.343 91.5402H199.27L207.499 113.672H202.046ZM196.118 96.8862L193.249 105.279H199.113L196.181 96.8862H196.118Z" fill="white"/>
<path d="M209.26 113.672V91.5402H215.092L223.983 105.969H224.014V91.5402H228.87V113.672H223.383L214.241 98.5513H214.21V113.672H209.26Z" fill="white"/>
<path d="M241.179 91.5402C247.989 91.5402 251.928 96.4129 251.928 102.605C251.928 108.797 248.02 113.67 241.179 113.67H232.29V91.5379H241.179V91.5402ZM241.179 95.942H237.396V109.27H241.179C244.206 109.27 246.697 107.194 246.697 103.487V101.694C246.697 98.0156 244.206 95.942 241.179 95.942Z" fill="white"/>
<path d="M149.251 117.475H154.641L158.487 131.685H158.55L162.586 117.413H167.219L171.318 131.81H171.381L175.195 117.475H180.144L173.807 139.638H168.983L164.697 125.179H164.634L160.379 139.638H155.808L149.251 117.475Z" fill="white"/>
<path d="M181.953 117.475H187.061V139.607H181.953V117.475Z" fill="white"/>
<path d="M196.156 121.875H189.316V117.473H208.105V121.875H201.265V139.605H196.156V121.875Z" fill="white"/>
<path d="M210.369 117.475H215.477V126.089H224.746V117.475H229.855V139.607H224.746V130.491H215.477V139.607H210.369V117.475Z" fill="white"/>
<path d="M160.506 161.549C163.345 161.549 164.636 159.946 164.92 158.248H170.248C169.491 162.9 165.865 165.982 160.696 165.982C153.73 165.982 150.01 160.984 150.01 154.475C150.01 147.967 153.762 142.938 160.696 142.938C165.836 142.938 169.491 146.08 170.185 150.388H164.795C164.448 148.627 163.029 147.371 160.508 147.371C157.607 147.371 155.243 149.603 155.243 153.627V155.292C155.243 159.317 157.607 161.549 160.508 161.549H160.506Z" fill="white"/>
<path d="M172.594 165.54V143.408H183.093C188.326 143.408 191.1 146.458 191.1 150.451C191.1 154.192 188.736 156.801 184.29 157.116L192.707 165.54H185.644L177.7 157.304V165.54H172.592H172.594ZM185.929 150.703V150.388C185.929 148.596 184.856 147.685 182.934 147.685H177.7V153.375H182.934C184.856 153.375 185.929 152.431 185.929 150.703Z" fill="white"/>
<path d="M198.905 165.54V157.304L191.118 143.408H196.635L201.491 152.368H201.553L206.409 143.408H211.862L204.011 157.304V165.54H198.903H198.905Z" fill="white"/>
<path d="M213.572 165.54V143.408H224.039C229.273 143.408 232.046 146.489 232.046 150.513C232.046 154.538 229.273 157.618 224.039 157.618H218.68V165.54H213.572ZM226.875 150.672V150.357C226.875 148.627 225.803 147.748 223.88 147.748H218.678V153.281H223.88C225.803 153.281 226.875 152.371 226.875 150.672Z" fill="white"/>
<path d="M239.966 147.81H233.125V143.408H251.915V147.81H245.074V165.54H239.966V147.81Z" fill="white"/>
<path d="M263.278 165.98C256.437 165.98 252.526 160.951 252.526 154.473C252.526 147.996 256.466 142.935 263.278 142.935C270.089 142.935 274.027 148.027 274.027 154.473C274.027 160.92 270.118 165.98 263.278 165.98ZM263.278 161.547C266.304 161.547 268.795 159.315 268.795 155.29V153.625C268.795 149.6 266.304 147.368 263.278 147.368C260.251 147.368 257.76 149.6 257.76 153.625V155.29C257.76 159.315 260.251 161.547 263.278 161.547Z" fill="white"/>
<path d="M79.2085 91.0379H60.0985V124.857C61.3632 142.65 73.1981 157.955 90.1301 163.703L98.3208 166.484V91.0379H79.2085Z" fill="white"/>
<path d="M117.433 91.0379H98.3208V166.484L106.511 163.699C123.448 157.951 135.278 142.643 136.543 124.85V91.0379H117.431H117.433Z" fill="white"/>
</g>
</g>
<defs>
<linearGradient id="paint0_linear_3521_16849" x1="336.359" y1="4.51882e-06" x2="336.359" y2="256" gradientUnits="userSpaceOnUse">
<stop offset="0.489583" stop-color="#0052FF"/>
<stop offset="1" stop-color="#89B4FC"/>
</linearGradient>
<clipPath id="clip0_3521_16849">
<rect width="333" height="256" fill="white"/>
</clipPath>
<clipPath id="clip1_3521_16849">
<rect width="214" height="75" fill="white" transform="translate(60 91)"/>
</clipPath>
</defs>
</svg>
