<svg width="333" height="256" viewBox="0 0 333 256" fill="none" xmlns="http://www.w3.org/2000/svg">
<rect width="333" height="256" fill="black"/>
<path d="M90.6923 128.392V137.49H81.5538V146.588H99.8308V128.392H90.6923Z" fill="white"/>
<path d="M90.6923 128.392V110.196H63.2769V137.49H81.5538V128.392H90.6923Z" fill="white"/>
<path d="M125.327 144.142V146.588H123.841C122.014 146.588 121.387 145.783 121.387 144.455C120.501 145.803 119.143 146.743 116.987 146.743C114.066 146.743 112.029 145.315 112.029 142.845C112.029 140.115 114.012 138.582 117.746 138.582H121.13V137.777C121.13 136.294 120.061 135.388 118.206 135.388C116.537 135.388 115.414 136.166 115.204 137.335H112.438C112.726 134.737 114.97 133.127 118.338 133.127C121.888 133.127 123.922 134.811 123.922 137.959V143.286C123.922 143.96 124.21 144.145 124.786 144.145L125.327 144.142ZM121.1 140.658H117.6C115.854 140.658 114.892 141.308 114.892 142.659C114.892 143.778 115.833 144.556 117.373 144.556C119.722 144.556 121.079 143.178 121.096 141.126L121.1 140.658Z" fill="white"/>
<path d="M139.292 139.175V146.588H136.446V139.411C136.446 136.89 135.376 135.539 133.261 135.539C131.017 135.539 129.686 137.177 129.686 139.879V146.588H126.867V133.278H129.321L129.632 135.02C130.468 133.979 131.748 133.123 133.914 133.123C136.865 133.11 139.292 134.734 139.292 139.175Z" fill="white"/>
<path d="M141.248 139.93C141.248 135.886 143.99 133.123 148.062 133.123C152.133 133.123 154.875 135.876 154.875 139.93C154.875 143.984 152.133 146.74 148.062 146.74C143.99 146.74 141.248 144.01 141.248 139.93ZM152.001 139.93C152.001 137.359 150.438 135.512 148.062 135.512C145.686 135.512 144.146 137.359 144.146 139.93C144.146 142.501 145.686 144.347 148.062 144.347C150.438 144.347 152.001 142.504 152.001 139.93Z" fill="white"/>
<path d="M158.006 135.748H155.677V133.278H158.002V129.572H160.845V133.278H164.108V135.748H160.845V142.686C160.845 143.724 161.211 144.115 162.284 144.115H164.267V146.588H161.654C159.099 146.588 158.002 145.392 158.002 142.976L158.006 135.748Z" fill="white"/>
<path d="M178.496 139.175V146.588H175.677V139.411C175.677 136.89 174.553 135.539 172.465 135.539C170.231 135.539 168.877 137.177 168.877 139.849V146.588H166.068V128.392H168.877V135.202C169.345 134.528 169.977 133.983 170.714 133.617C171.451 133.251 172.268 133.077 173.091 133.11C176.066 133.11 178.496 134.734 178.496 139.175Z" fill="white"/>
<path d="M180.449 139.957C180.449 135.849 183.086 133.123 187.029 133.123C190.89 133.123 193.476 135.566 193.554 139.461C193.553 139.819 193.527 140.176 193.476 140.53H183.4V140.712C183.478 142.973 184.913 144.452 187.123 144.452C188.846 144.452 190.098 143.596 190.491 142.113H193.31C192.84 144.738 190.603 146.74 187.279 146.74C183.092 146.74 180.449 144.037 180.449 139.957ZM190.63 138.474C190.396 136.5 189.012 135.384 187.056 135.384C186.181 135.355 185.327 135.658 184.668 136.232C184.009 136.805 183.593 137.607 183.505 138.474H190.63Z" fill="white"/>
<path d="M203.21 133.278V135.903H201.958C199.454 135.903 198.641 137.851 198.641 139.906V146.588H195.825V133.278H198.323L198.634 135.28C199.311 134.161 200.384 133.278 202.578 133.278H203.21Z" fill="white"/>
<path d="M218.428 139.93C218.428 144.01 215.764 146.74 212.112 146.74C210.024 146.74 208.585 145.857 207.753 144.661L207.414 146.585H204.957V128.392H207.776V135.253C208.267 134.569 208.919 134.016 209.675 133.642C210.431 133.269 211.268 133.086 212.112 133.11C215.764 133.11 218.428 135.644 218.428 139.93ZM215.558 139.93C215.558 137.332 213.99 135.512 211.642 135.512C209.293 135.512 207.753 137.332 207.753 139.893C207.753 142.518 209.293 144.361 211.642 144.361C213.99 144.361 215.558 142.545 215.558 139.93Z" fill="white"/>
<path d="M220.695 128.392H223.515V146.588H220.695V128.392Z" fill="white"/>
<path d="M225.786 139.93C225.786 135.886 228.527 133.123 232.599 133.123C236.671 133.123 239.412 135.876 239.412 139.93C239.412 143.984 236.671 146.74 232.599 146.74C228.527 146.74 225.786 144.01 225.786 139.93ZM236.542 139.93C236.542 137.359 234.975 135.512 232.599 135.512C230.223 135.512 228.683 137.359 228.683 139.93C228.683 142.501 230.223 144.347 232.599 144.347C234.975 144.347 236.542 142.504 236.542 139.93Z" fill="white"/>
<path d="M241.186 139.957C241.186 135.849 243.85 133.123 247.894 133.123C251.34 133.123 253.482 135.02 254.027 138.033H251.079C250.714 136.476 249.59 135.512 247.843 135.512C245.572 135.512 244.083 137.332 244.083 139.957C244.083 142.582 245.572 144.337 247.843 144.337C249.566 144.337 250.714 143.35 251.052 141.817H254.027C253.506 144.833 251.235 146.73 247.816 146.73C243.768 146.74 241.186 144.115 241.186 139.957Z" fill="white"/>
<path d="M256.2 128.392H259.019V139.724L265.068 133.278H268.385L263.345 138.67L268.696 146.588H265.355L261.412 140.712L259.013 143.205V146.575H256.2V128.392Z" fill="white"/>
</svg>
