<svg width="277" height="84" viewBox="0 0 277 84" fill="none" xmlns="http://www.w3.org/2000/svg">
<path d="M52.3007 41.8759V52.3449H41.8405V62.8139H62.7608V41.8759H52.3007Z" fill="white"/>
<path d="M52.3007 41.8759V20.938H20.9203V52.3449H41.8405V41.8759H52.3007Z" fill="white"/>
<path d="M91.9446 59.9989V62.8139H90.2439C88.1519 62.8139 87.4352 61.8872 87.4352 60.3595C86.4201 61.9104 84.8666 62.9922 82.3988 62.9922C79.0554 62.9922 76.7232 61.3482 76.7232 58.5061C76.7232 55.3654 78.9934 53.6012 83.2666 53.6012H87.1407V52.6745C87.1407 50.9684 85.9165 49.9254 83.7935 49.9254C81.8835 49.9254 80.5973 50.8211 80.3571 52.1665H77.192C77.5213 49.1771 80.0898 47.3237 83.9446 47.3237C88.0085 47.3237 90.3369 49.2624 90.3369 52.8839V59.014C90.3369 59.7895 90.6662 60.0028 91.3248 60.0028L91.9446 59.9989ZM87.1059 55.9897H83.1C81.101 55.9897 80.0007 56.738 80.0007 58.2928C80.0007 59.5801 81.0777 60.4758 82.8405 60.4758C85.5291 60.4758 87.0826 58.89 87.102 56.5286L87.1059 55.9897Z" fill="white"/>
<path d="M107.929 54.2836V62.8139H104.671V54.555C104.671 51.6547 103.447 50.0999 101.026 50.0999C98.457 50.0999 96.9345 51.9843 96.9345 55.094V62.8139H93.7074V47.4982H96.5161L96.8725 49.5028C97.8294 48.3047 99.2939 47.3198 101.773 47.3198C105.152 47.3043 107.929 49.1732 107.929 54.2836Z" fill="white"/>
<path d="M110.169 55.1521C110.169 50.4993 113.307 47.3198 117.967 47.3198C122.628 47.3198 125.766 50.4876 125.766 55.1521C125.766 59.8167 122.628 62.9884 117.967 62.9884C113.307 62.9884 110.169 59.8477 110.169 55.1521ZM122.477 55.1521C122.477 52.1937 120.687 50.0689 117.967 50.0689C115.247 50.0689 113.485 52.1937 113.485 55.1521C113.485 58.1106 115.247 60.2354 117.967 60.2354C120.687 60.2354 122.477 58.1145 122.477 55.1521Z" fill="white"/>
<path d="M129.349 50.3403H126.684V47.4981H129.345V43.233H132.6V47.4981H136.334V50.3403H132.6V58.3238C132.6 59.5181 133.018 59.9679 134.246 59.9679H136.516V62.8139H133.526C130.601 62.8139 129.345 61.4374 129.345 58.6573L129.349 50.3403Z" fill="white"/>
<path d="M152.803 54.2836V62.8139H149.576V54.555C149.576 51.6547 148.29 50.0999 145.9 50.0999C143.343 50.0999 141.793 51.9843 141.793 55.0591V62.8139H138.577V41.8759H141.793V49.7122C142.329 48.9365 143.052 48.309 143.896 47.888C144.739 47.467 145.675 47.2662 146.616 47.3043C150.022 47.3043 152.803 49.1732 152.803 54.2836Z" fill="white"/>
<path d="M155.039 55.1832C155.039 50.4566 158.057 47.3198 162.57 47.3198C166.99 47.3198 169.95 50.1309 170.039 54.6132C170.038 55.0244 170.008 55.4351 169.95 55.8423H158.417V56.0517C158.506 58.6534 160.149 60.3556 162.678 60.3556C164.65 60.3556 166.084 59.3708 166.533 57.6647H169.76C169.222 60.6852 166.661 62.9884 162.857 62.9884C158.064 62.9884 155.039 59.8787 155.039 55.1832ZM166.692 53.4771C166.425 51.2049 164.84 49.9215 162.601 49.9215C161.599 49.8879 160.622 50.2365 159.868 50.8966C159.113 51.5568 158.638 52.4792 158.537 53.4771H166.692Z" fill="white"/>
<path d="M181.092 47.4982V50.5186H179.659C176.792 50.5186 175.862 52.7598 175.862 55.125V62.8139H172.639V47.4982H175.498L175.854 49.8013C176.629 48.514 177.857 47.4982 180.368 47.4982H181.092Z" fill="white"/>
<path d="M198.51 55.1521C198.51 59.8477 195.461 62.9884 191.281 62.9884C188.891 62.9884 187.244 61.9725 186.291 60.596L185.904 62.81H183.091V41.8759H186.318V49.7703C186.88 48.9835 187.627 48.3471 188.492 47.9171C189.357 47.4871 190.315 47.2766 191.281 47.3043C195.461 47.3043 198.51 50.2201 198.51 55.1521ZM195.225 55.1521C195.225 52.1627 193.431 50.0689 190.743 50.0689C188.054 50.0689 186.291 52.1627 186.291 55.1095C186.291 58.13 188.054 60.2509 190.743 60.2509C193.431 60.2509 195.225 58.161 195.225 55.1521Z" fill="white"/>
<path d="M201.106 41.8759H204.333V62.8139H201.106V41.8759Z" fill="white"/>
<path d="M206.933 55.1521C206.933 50.4993 210.071 47.3198 214.731 47.3198C219.392 47.3198 222.53 50.4876 222.53 55.1521C222.53 59.8167 219.392 62.9884 214.731 62.9884C210.071 62.9884 206.933 59.8477 206.933 55.1521ZM219.245 55.1521C219.245 52.1937 217.451 50.0689 214.731 50.0689C212.012 50.0689 210.249 52.1937 210.249 55.1521C210.249 58.1106 212.012 60.2354 214.731 60.2354C217.451 60.2354 219.245 58.1145 219.245 55.1521Z" fill="white"/>
<path d="M224.56 55.1832C224.56 50.4566 227.609 47.3198 232.238 47.3198C236.182 47.3198 238.635 49.5028 239.258 52.9692H235.884C235.466 51.1778 234.179 50.0689 232.18 50.0689C229.581 50.0689 227.876 52.1627 227.876 55.1832C227.876 58.2037 229.581 60.2238 232.18 60.2238C234.152 60.2238 235.465 59.0877 235.853 57.3235H239.258C238.662 60.7938 236.062 62.9767 232.149 62.9767C227.516 62.9884 224.56 59.9679 224.56 55.1832Z" fill="white"/>
<path d="M241.745 41.8759H244.973V54.9156L251.896 47.4982H255.692L249.924 53.702L256.049 62.8139H252.225L247.712 56.0517L244.965 58.921V62.7984H241.745V41.8759Z" fill="white"/>
</svg>
