<svg width="333" height="256" viewBox="0 0 333 256" fill="none" xmlns="http://www.w3.org/2000/svg">
<rect width="333" height="256" fill="black"/>
<g clip-path="url(#clip0_3521_17190)">
<path fill-rule="evenodd" clip-rule="evenodd" d="M118 95V162H181.508C200.214 162 215.378 147.002 215.378 128.5C215.378 109.998 200.214 95 181.508 95H118ZM177.909 102.357C164.88 104.095 154.835 115.137 154.835 128.5C154.835 141.863 164.88 152.905 177.909 154.643V102.357ZM185.107 154.643C198.136 152.905 208.181 141.863 208.181 128.5C208.181 115.137 198.136 104.095 185.107 102.357V154.643ZM160.63 154.881C152.72 148.749 147.637 139.212 147.637 128.5C147.637 117.789 152.72 108.251 160.63 102.119H125.198V154.881H160.63Z" fill="white"/>
</g>
<defs>
<clipPath id="clip0_3521_17190">
<rect width="98" height="67" fill="white" transform="translate(118 95)"/>
</clipPath>
</defs>
</svg>
