<svg width="69" height="47" viewBox="0 0 69 47" fill="none" xmlns="http://www.w3.org/2000/svg">
<path fill-rule="evenodd" clip-rule="evenodd" d="M0 0V47H44.7147C57.8853 47 68.5624 36.4787 68.5624 23.5C68.5624 10.5213 57.8853 0 44.7147 0H0ZM42.1809 5.16074C33.0072 6.37992 25.9345 14.126 25.9345 23.5C25.9345 32.874 33.0072 40.6201 42.1809 41.8393V5.16074ZM47.2486 41.8393C56.4221 40.6201 63.4951 32.874 63.4951 23.5C63.4951 14.126 56.4221 6.37992 47.2486 5.16074V41.8393ZM30.0152 42.0062C24.4457 37.7044 20.8669 31.0141 20.8669 23.5C20.8669 15.986 24.4457 9.29557 30.0152 4.99375H5.06767V42.0062H30.0152Z" fill="white"/>
</svg>
