<svg width="333" height="256" viewBox="0 0 333 256" fill="none" xmlns="http://www.w3.org/2000/svg">
<rect width="333" height="256" fill="#5F1BFF"/>
<path d="M133.314 128.075V143.109H127.137V130.179C127.137 124.425 125.634 122.845 122.383 122.845C118.807 122.845 115.516 126.857 115.516 132.733V143.108H109.299V117.661H115.476C115.476 117.661 115.394 123.78 115.557 123.415C116.735 120.862 119.62 117.296 124.09 117.296C129.616 117.254 133.314 120.862 133.314 128.075Z" fill="white"/>
<path d="M156.76 130.385C156.76 126.333 154.728 122.848 150.38 122.848C146.316 122.848 143.594 126.333 143.594 130.385C143.594 134.438 146.315 137.923 150.38 137.923C154.728 137.923 156.76 134.438 156.76 130.385ZM143.757 121.997C145.301 119.283 147.861 117.255 151.843 117.255C158.466 117.255 162.977 123.05 162.977 130.385C162.977 137.721 158.466 143.515 151.843 143.515C150.181 143.555 148.541 143.127 147.111 142.282C145.681 141.436 144.519 140.207 143.757 138.733C143.676 138.571 143.594 143.11 143.594 143.11H137.418V108.381H143.594C143.635 108.381 143.676 122.2 143.757 121.997Z" fill="white"/>
<path d="M183.944 130.385C183.944 126.252 181.587 122.848 177.362 122.848C173.136 122.848 170.779 126.211 170.779 130.385C170.779 134.559 173.136 137.923 177.362 137.923C181.588 137.923 183.944 134.559 183.944 130.385ZM190.162 130.385C190.162 137.639 185.367 143.515 177.402 143.515C169.437 143.515 164.641 137.639 164.641 130.385C164.641 123.132 169.438 117.256 177.402 117.256C185.367 117.256 190.162 123.172 190.162 130.385Z" fill="white"/>
<path d="M201.987 132.209C199.345 132.492 197.842 133.505 197.842 135.775C197.842 137.882 199.873 139.26 202.717 138.855C206.009 138.409 209.382 136.302 209.422 129.98C208 131.601 205.644 131.845 201.987 132.209ZM200.93 128.116C205.481 127.873 209.504 128.318 209.463 125.928C209.422 124.185 208.732 122.282 204.343 122.282C199.995 122.282 198.898 124.062 198.532 126.131H192.437C193.293 119.728 198.819 117.256 204.547 117.256C210.398 117.256 215.68 119.202 215.68 129.009V143.11H209.504C209.504 143.11 209.504 137.72 209.422 137.964C207.959 141.489 205.156 143.515 200.605 143.515C195.81 143.515 191.706 140.435 191.706 136.138C191.624 130.507 195.81 128.4 200.93 128.116Z" fill="white"/>
<path d="M226.407 122.645C227.952 119.119 229.374 117.296 235.589 117.296V123.537C228.397 123.05 226.322 125.603 226.322 132.087V143.152H220.146V117.701H226.327C226.284 117.659 226.327 122.767 226.408 122.645" fill="white"/>
<path d="M255.909 130.385C255.909 126.333 253.188 122.848 249.123 122.848C244.775 122.848 242.743 126.333 242.743 130.385C242.743 134.438 244.775 137.923 249.123 137.923C253.187 137.923 255.909 134.438 255.909 130.385ZM262.126 108.381V143.11H255.949L255.787 138.733C253.998 141.367 251.561 143.515 247.7 143.515C241.076 143.515 236.567 137.72 236.567 130.385C236.567 123.051 241.076 117.256 247.7 117.256C251.682 117.256 254.364 119.202 255.787 121.998C255.868 122.2 255.949 108.382 255.949 108.382L262.126 108.381Z" fill="white"/>
<path d="M99.0998 126.009L88.7785 136.302C87.4393 137.621 85.6313 138.358 83.7491 138.352C81.8669 138.346 80.0635 137.598 78.7326 136.271C77.4017 134.943 76.6514 133.145 76.6455 131.268C76.6397 129.391 77.3787 127.588 78.7013 126.252L89.0225 115.959C90.3617 114.64 92.1698 113.903 94.0519 113.909C95.9341 113.915 97.7375 114.663 99.0684 115.99C100.399 117.318 101.15 119.116 101.155 120.993C101.161 122.87 100.422 124.673 99.0998 126.009ZM88.9001 108.786C78.2541 108.786 71.8743 116.566 71.8743 126.171C71.8743 135.775 78.2541 143.555 88.9001 143.555C99.5461 143.555 105.926 135.775 105.926 126.171C105.926 116.566 99.5465 108.786 88.9001 108.786Z" fill="white"/>
</svg>
