<svg width="151" height="28" viewBox="0 0 151 28" fill="none" xmlns="http://www.w3.org/2000/svg">
<path d="M48.7639 15.6775V27.645H43.8613V17.3524C43.8613 12.772 42.668 11.5142 40.0883 11.5142C37.2502 11.5142 34.6378 14.708 34.6378 19.3849V27.6436H29.7031V7.38707H34.6057C34.6057 7.38707 34.541 12.2584 34.6702 11.9678C35.6051 9.93559 37.8953 7.09685 41.4426 7.09685C45.8287 7.06311 48.7639 9.93559 48.7639 15.6775Z" fill="white"/>
<path d="M67.3722 17.5164C67.3722 14.2906 65.7598 11.5163 62.309 11.5163C59.0836 11.5163 56.9229 14.2906 56.9229 17.5164C56.9229 20.7422 59.0822 23.5161 62.309 23.5161C65.7598 23.5161 67.3722 20.7422 67.3722 17.5164ZM57.0518 10.8386C58.2775 8.67888 60.3093 7.06445 63.47 7.06445C68.7265 7.06445 72.3069 11.6772 72.3069 17.5164C72.3069 23.3555 68.7265 27.9676 63.47 27.9676C62.1509 27.9994 60.8495 27.6593 59.7145 26.9863C58.5795 26.3132 57.6568 25.3342 57.0518 24.1614C56.9877 24.0324 56.9229 27.6457 56.9229 27.6457H52.021V0H56.9229C56.9553 0 56.9877 11.0003 57.0518 10.8386Z" fill="white"/>
<path d="M88.9482 17.5164C88.9482 14.2258 87.0774 11.5163 83.7237 11.5163C80.3701 11.5163 78.4989 14.1937 78.4989 17.5164C78.4989 20.839 80.3694 23.5161 83.7237 23.5161C87.0781 23.5161 88.9482 20.839 88.9482 17.5164ZM93.8829 17.5164C93.8829 23.2904 90.0775 27.9676 83.7558 27.9676C77.4341 27.9676 73.6277 23.2904 73.6277 17.5164C73.6277 11.7424 77.4345 7.06512 83.7558 7.06512C90.0771 7.06512 93.8829 11.7741 93.8829 17.5164Z" fill="white"/>
<path d="M103.268 18.9678C101.172 19.1936 99.9782 19.9998 99.9782 21.8065C99.9782 23.4837 101.591 24.5808 103.848 24.2582C106.461 23.9032 109.138 22.226 109.17 17.1937C108.041 18.4842 106.171 18.6786 103.268 18.9678ZM102.429 15.7099C106.042 15.5162 109.234 15.8709 109.202 13.9679C109.17 12.581 108.622 11.0658 105.138 11.0658C101.687 11.0658 100.817 12.4831 100.526 14.1299H95.6887C96.3678 9.03254 100.754 7.06512 105.3 7.06512C109.944 7.06512 114.136 8.61374 114.136 16.4203V27.6457H109.234C109.234 27.6457 109.234 23.3551 109.17 23.5489C108.008 26.3552 105.783 27.9676 102.171 27.9676C98.3655 27.9676 95.1084 25.5159 95.1084 22.0957C95.0436 17.6132 98.3655 15.9357 102.429 15.7099Z" fill="white"/>
<path d="M122.65 11.3546C123.876 8.54828 125.005 7.09685 129.938 7.09685V12.065C124.229 11.6772 122.583 13.7098 122.583 18.8709V27.6787H117.681V7.41946H122.586C122.553 7.38572 122.586 11.4518 122.651 11.3546" fill="white"/>
<path d="M146.065 17.5164C146.065 14.2906 143.906 11.5163 140.679 11.5163C137.229 11.5163 135.616 14.2906 135.616 17.5164C135.616 20.7422 137.229 23.5161 140.679 23.5161C143.905 23.5161 146.065 20.7422 146.065 17.5164ZM151 0V27.6457H146.097L145.969 24.1614C144.549 26.258 142.614 27.9676 139.55 27.9676C134.293 27.9676 130.714 23.3548 130.714 17.5164C130.714 11.6779 134.293 7.06513 139.55 7.06513C142.711 7.06513 144.839 8.61375 145.969 10.8393C146.033 11.0006 146.097 0.000674556 146.097 0.000674556L151 0Z" fill="white"/>
<path d="M21.6085 14.0324L13.4166 22.226C12.3537 23.2759 10.9187 23.8626 9.42487 23.858C7.93102 23.8533 6.49968 23.2577 5.44337 22.2011C4.38705 21.1446 3.79155 19.7129 3.78689 18.2187C3.78223 16.7246 4.36878 15.2892 5.41848 14.2261L13.6103 6.03249C14.6732 4.98256 16.1082 4.39588 17.6021 4.40055C19.0959 4.40521 20.5273 5.00084 21.5836 6.05739C22.6399 7.11393 23.2354 8.54558 23.24 10.0398C23.2447 11.5339 22.6582 12.9693 21.6085 14.0324ZM13.5131 0.322617C5.06354 0.322617 0 6.51608 0 14.1613C0 21.8065 5.06354 28 13.5131 28C21.9627 28 27.0266 21.8065 27.0266 14.1613C27.0266 6.51608 21.9631 0.322617 13.5131 0.322617Z" fill="white"/>
</svg>
