<svg width="333" height="256" viewBox="0 0 333 256" fill="none" xmlns="http://www.w3.org/2000/svg">
<rect width="333" height="256" fill="#181A2C"/>
<path d="M66.8028 136.031L86.4812 155.71C94.1116 148.079 94.1116 135.83 86.4812 128.3L72.7264 114.445L66.8028 120.369C62.4856 124.686 62.4856 131.714 66.8028 136.031Z" fill="url(#paint0_linear_3521_17372)"/>
<path d="M86.3814 128.2L100.136 141.955L106.06 136.031C110.377 131.714 110.377 124.686 106.06 120.369L86.3814 100.69C78.8514 108.321 78.8514 120.57 86.3814 128.2Z" fill="url(#paint1_linear_3521_17372)"/>
<path d="M132.063 137.738H127.846V118.762H132.063V137.738Z" fill="white"/>
<path d="M164.492 131.814C164.492 135.429 161.681 138.14 157.163 138.14C153.047 138.14 150.035 135.027 150.035 131.413H154.151C154.352 133.019 155.557 134.324 157.163 134.324C159.071 134.324 160.376 133.421 160.376 131.814C160.376 130.208 158.669 129.806 155.858 129.204C152.745 128.501 150.235 126.995 150.235 124.284C150.235 120.77 152.946 118.361 157.163 118.361C160.978 118.361 164.191 120.871 164.191 124.284H159.974C159.673 123.08 158.468 122.176 157.163 122.176C155.557 122.176 154.352 123.08 154.352 124.184C154.352 125.489 156.862 126.192 159.372 126.694C161.982 126.995 164.492 128.802 164.492 131.814Z" fill="white"/>
<path d="M182.363 137.738V118.762H186.58V127.096L192.403 118.762H197.824L190.897 128.2L199.23 137.638H193.708L186.58 129.104V137.638H182.363V137.738Z" fill="white"/>
<path d="M216.399 137.738V118.762H225.837C229.351 118.762 232.262 121.574 232.262 125.088C232.262 127.798 230.555 130.108 228.146 131.011L233.266 137.738H228.347L223.628 131.413H220.716V137.738H216.399ZM220.616 127.598H225.636C226.841 127.598 228.045 126.493 228.045 125.088C228.045 123.682 226.841 122.578 225.636 122.578H220.616V127.598Z" fill="white"/>
<path d="M257.462 118.762H261.076L269.51 137.738H264.791L263.386 134.224H255.253L253.848 137.738H249.129L257.462 118.762ZM256.558 130.911H261.98L259.269 124.284L256.558 130.911Z" fill="white"/>
<defs>
<linearGradient id="paint0_linear_3521_17372" x1="93.8855" y1="149.381" x2="66.0544" y2="121.55" gradientUnits="userSpaceOnUse">
<stop stop-color="#00339B"/>
<stop offset="1" stop-color="#01CCFF"/>
</linearGradient>
<linearGradient id="paint1_linear_3521_17372" x1="108.93" y1="136.967" x2="79.7859" y2="107.824" gradientUnits="userSpaceOnUse">
<stop offset="0.00161173" stop-color="#01CCFF"/>
<stop offset="1" stop-color="#FE339A"/>
</linearGradient>
</defs>
</svg>
