<svg width="187" height="26" viewBox="0 0 187 26" fill="none" xmlns="http://www.w3.org/2000/svg">
<path d="M5.54314 25.4721H0V0.527916H5.54314V25.4721Z" fill="white"/>
<path d="M48.1726 17.6853C48.1726 22.4366 44.4771 26 38.538 26C33.1269 26 29.1675 21.9086 29.1675 17.1574H34.5786C34.8426 19.269 36.4264 20.9848 38.538 20.9848C41.0457 20.9848 42.7614 19.797 42.7614 17.6853C42.7614 15.5736 40.5177 15.0457 36.8223 14.2538C32.7309 13.33 29.4314 11.3503 29.4314 7.78681C29.4314 3.16752 32.9949 7.62939e-06 38.538 7.62939e-06C43.5533 7.62939e-06 47.7766 3.2995 47.7766 7.78681H42.2335C41.8375 6.20305 40.2538 5.01523 38.538 5.01523C36.4264 5.01523 34.8426 6.20305 34.8426 7.65483C34.8426 9.37056 38.1421 10.2944 41.4416 10.9543C44.8731 11.3503 48.1726 13.7259 48.1726 17.6853Z" fill="white"/>
<path d="M71.6641 25.4721V0.527916H77.2072V11.4822L84.862 0.527916H91.9889L82.8823 12.934L93.8367 25.3401H86.5778L77.2072 14.1218V25.3401H71.6641V25.4721Z" fill="white"/>
<path d="M116.406 25.4721V0.527916H128.812C133.431 0.527916 137.259 4.22335 137.259 8.84264C137.259 12.4061 135.015 15.4416 131.847 16.6294L138.578 25.4721H132.111L125.908 17.1574H122.081V25.4721H116.406ZM121.949 12.1421H128.548C130.132 12.1421 131.715 10.6904 131.715 8.84264C131.715 6.99492 130.132 5.54315 128.548 5.54315H121.949V12.1421Z" fill="white"/>
<path d="M170.385 0.527916H175.136L186.223 25.4721H180.019L178.172 20.8528H167.481L165.634 25.4721H159.431L170.385 0.527916ZM169.197 16.4975H176.324L172.761 7.7868L169.197 16.4975Z" fill="white"/>
</svg>
