<svg width="333" height="256" viewBox="0 0 333 256" fill="none" xmlns="http://www.w3.org/2000/svg">
<rect width="333" height="256" fill="url(#paint0_linear_322_78)"/>
<path d="M113.499 98.8493H121.449C162.429 98.8493 195.649 132.07 195.649 173.049V180.999H211.549C215.94 180.999 219.499 177.44 219.499 173.049C219.499 118.898 175.601 74.9993 121.449 74.9993C117.058 74.9993 113.499 78.5586 113.499 82.9493V98.8493Z" fill="url(#paint1_radial_322_78)"/>
<path d="M198.299 173.049H219.499C219.499 177.44 215.939 180.999 211.549 180.999H198.299V173.049Z" fill="url(#paint2_linear_322_78)"/>
<path d="M121.449 74.9993L121.449 96.1993H113.499L113.499 82.9493C113.499 78.5586 117.058 74.9993 121.449 74.9993Z" fill="url(#paint3_linear_322_78)"/>
<path d="M113.499 96.199H121.449C163.892 96.199 198.299 130.606 198.299 173.049V180.999H174.449V173.049C174.449 143.778 150.72 120.049 121.449 120.049H113.499V96.199Z" fill="url(#paint4_radial_322_78)"/>
<path d="M177.099 173.049H198.299V180.999H177.099V173.049Z" fill="url(#paint5_linear_322_78)"/>
<path d="M113.499 117.399L113.499 96.199L121.449 96.199L121.449 117.399H113.499Z" fill="url(#paint6_linear_322_78)"/>
<path d="M113.499 130.649C113.499 135.04 117.058 138.599 121.449 138.599C140.475 138.599 155.899 154.023 155.899 173.049C155.899 177.44 159.458 180.999 163.849 180.999H177.099V173.049C177.099 142.315 152.184 117.399 121.449 117.399H113.499V130.649Z" fill="url(#paint7_radial_322_78)"/>
<path d="M155.899 173.049H177.099V180.999H163.849C159.458 180.999 155.899 177.44 155.899 173.049Z" fill="url(#paint8_radial_322_78)"/>
<path d="M121.449 138.599C117.058 138.599 113.499 135.04 113.499 130.649L113.499 117.399L121.449 117.399L121.449 138.599Z" fill="url(#paint9_radial_322_78)"/>
<defs>
<linearGradient id="paint0_linear_322_78" x1="166.5" y1="0" x2="166.5" y2="256" gradientUnits="userSpaceOnUse">
<stop/>
<stop offset="1" stop-color="#001E59"/>
</linearGradient>
<radialGradient id="paint1_radial_322_78" cx="0" cy="0" r="1" gradientUnits="userSpaceOnUse" gradientTransform="translate(121.449 173.049) rotate(-90) scale(98.05)">
<stop offset="0.770277" stop-color="#FF4000"/>
<stop offset="1" stop-color="#8754C9"/>
</radialGradient>
<linearGradient id="paint2_linear_322_78" x1="196.974" y1="177.024" x2="219.499" y2="177.024" gradientUnits="userSpaceOnUse">
<stop stop-color="#FF4000"/>
<stop offset="1" stop-color="#8754C9"/>
</linearGradient>
<linearGradient id="paint3_linear_322_78" x1="117.474" y1="74.9993" x2="117.474" y2="97.5243" gradientUnits="userSpaceOnUse">
<stop stop-color="#8754C9"/>
<stop offset="1" stop-color="#FF4000"/>
</linearGradient>
<radialGradient id="paint4_radial_322_78" cx="0" cy="0" r="1" gradientUnits="userSpaceOnUse" gradientTransform="translate(121.449 173.049) rotate(-90) scale(76.85)">
<stop offset="0.723929" stop-color="#FFF700"/>
<stop offset="1" stop-color="#FF9901"/>
</radialGradient>
<linearGradient id="paint5_linear_322_78" x1="177.099" y1="177.024" x2="198.299" y2="177.024" gradientUnits="userSpaceOnUse">
<stop stop-color="#FFF700"/>
<stop offset="1" stop-color="#FF9901"/>
</linearGradient>
<linearGradient id="paint6_linear_322_78" x1="117.474" y1="117.399" x2="117.474" y2="96.199" gradientUnits="userSpaceOnUse">
<stop stop-color="#FFF700"/>
<stop offset="1" stop-color="#FF9901"/>
</linearGradient>
<radialGradient id="paint7_radial_322_78" cx="0" cy="0" r="1" gradientUnits="userSpaceOnUse" gradientTransform="translate(121.449 173.049) rotate(-90) scale(55.65)">
<stop offset="0.59513" stop-color="#00AAFF"/>
<stop offset="1" stop-color="#01DA40"/>
</radialGradient>
<radialGradient id="paint8_radial_322_78" cx="0" cy="0" r="1" gradientUnits="userSpaceOnUse" gradientTransform="translate(154.574 177.024) scale(22.525 60.0667)">
<stop stop-color="#00AAFF"/>
<stop offset="1" stop-color="#01DA40"/>
</radialGradient>
<radialGradient id="paint9_radial_322_78" cx="0" cy="0" r="1" gradientUnits="userSpaceOnUse" gradientTransform="translate(117.474 139.924) rotate(-90) scale(22.525 427.141)">
<stop stop-color="#00AAFF"/>
<stop offset="1" stop-color="#01DA40"/>
</radialGradient>
</defs>
</svg>
