<svg width="159" height="31" viewBox="0 0 159 31" fill="none" xmlns="http://www.w3.org/2000/svg">
<path d="M15.3002 8.99897L14.8816 15.3264C13.812 14.7171 12.7889 14.4827 11.3472 14.4827C8.55693 14.4827 6.69673 16.0763 6.69673 19.6852V29.5279H0V8.71775H6.69673V12.5142C7.48732 10.1707 9.62655 8.15531 12.4169 8.15531C13.6725 8.15531 14.7421 8.53027 15.3002 8.99897ZM29.4842 20.7164V20.2945L26.0893 20.9976C23.9966 21.4194 22.6945 21.935 22.6945 23.5754C22.6945 24.794 23.6246 25.5439 25.0662 25.5439C27.531 25.5439 29.4842 23.6692 29.4842 20.7164ZM36.0879 16.2638V23.8566C36.0879 24.9346 36.553 25.4033 37.3901 25.4033C37.9946 25.4033 38.5062 25.3096 39.1108 25.0284V28.6373C38.0877 29.3872 36.7855 29.9966 34.7393 29.9966C32.2745 29.9966 30.4608 28.6842 29.8563 26.3407C28.6936 28.7311 26.1358 29.9966 22.927 29.9966C18.788 29.9966 16.1838 27.8874 16.1838 24.3253C16.1838 20.3414 19.1601 18.6541 23.7176 17.7636L29.4842 16.7325V16.3575C29.4842 14.389 28.5076 13.2172 26.4614 13.2172C24.5082 13.2172 23.5316 14.4358 23.1595 16.17L16.9278 15.7013C17.6254 11.2487 20.9273 8.15531 26.8334 8.15531C32.228 8.15531 36.0879 10.5925 36.0879 16.2638ZM41.4825 8.71775H48.1792V29.5279H41.4825V8.71775ZM41.436 6.18679V0H48.2723V6.18679H41.436ZM59.2475 18.9353V29.5279H52.5507V8.71775H59.2475V11.9518C60.3636 9.65514 62.8749 8.15531 65.9907 8.15531C71.5713 8.15531 73.4315 12.0455 73.4315 16.4981V29.5279H66.7348V18.1385C66.7348 15.1389 65.7582 13.4984 63.2934 13.4984C60.5961 13.4984 59.2475 15.6545 59.2475 18.9353ZM84.2672 18.8885V19.3572C84.2672 22.7318 86.1739 24.8409 88.9642 24.8409C92.1265 24.8409 93.6612 22.5443 93.6612 19.1228C93.6612 15.7482 92.1265 13.4516 88.9642 13.4516C86.1739 13.4516 84.2672 15.5607 84.2672 18.8885ZM83.9417 25.7783L82.7325 29.5279H77.5705V0H84.2672V12.4673C85.2903 9.98323 87.6621 8.15531 91.243 8.15531C97.2886 8.15531 100.451 13.0298 100.451 19.1228C100.451 25.2627 97.2886 30.0903 91.1034 30.0903C87.6621 30.0903 85.0578 28.3092 83.9417 25.7783ZM109.426 19.1228C109.426 22.5912 110.775 24.9815 113.751 24.9815C116.681 24.9815 118.123 22.5912 118.123 19.1228C118.123 15.6545 116.681 13.2641 113.751 13.2641C110.775 13.2641 109.426 15.6545 109.426 19.1228ZM124.913 19.1228C124.913 25.5908 120.355 30.0903 113.751 30.0903C107.148 30.0903 102.637 25.5908 102.637 19.1228C102.637 12.7017 107.148 8.15531 113.751 8.15531C120.355 8.15531 124.913 12.7017 124.913 19.1228ZM145.282 8.71775L148.584 21.3725H148.77L152.723 8.71775H158.815L152.258 29.5279H145.7L142.352 16.9668H142.166L138.864 29.5279H132.307L125.75 8.71775H132.446L136.399 21.3725H136.585L139.887 8.71775H145.282Z" fill="white"/>
</svg>
